# WaveFront *.obj file (generated by Autodesk ATF)

mtllib bridge.mtl

g Solid1

v -0.314084 0.875536 -1.050000
v -0.314084 0.875536 1.050000
v -0.288494 0.894749 -1.050000
v -0.288494 0.894749 1.050000
v -0.216450 0.840000 -1.050000
v -0.216450 0.840000 1.050000
v 0.000000 0.900000 -1.050000
v 0.000000 0.900000 1.050000
v 0.216450 0.840000 -1.050000
v 0.216450 0.840000 1.050000
v 0.288494 0.894749 -1.050000
v 0.288494 0.894749 1.050000
v 0.314084 0.875536 -1.050000
v 0.314084 0.875536 1.050000
vt -31.408407 0.553589 0.000000
vt -21.645000 -3.000000 0.000000
vt 21.645000 -3.000000 0.000000
vt 31.408407 0.553589 0.000000
vt 28.849415 2.474934 0.000000
vt 0.000000 3.000000 0.000000
vt -28.849415 2.474934 0.000000
vt 43.290001 -105.000000 0.000000
vt 43.290001 105.000000 0.000000
vt 0.000000 105.000000 0.000000
vt 0.000000 -105.000000 0.000000
vt 10.390000 -105.000000 0.000000
vt 10.390000 105.000000 0.000000
vt 0.000000 105.000000 0.000000
vt 0.000000 -105.000000 0.000000
vt 3.200000 -105.000000 0.000000
vt 3.200000 105.000000 0.000000
vt 0.000000 105.000000 0.000000
vt 0.000000 -105.000000 0.000000
vt 28.854193 -105.000000 0.000000
vt 28.854193 105.000000 0.000000
vt 0.000000 105.000000 0.000000
vt 0.000000 -105.000000 0.000000
vt 28.854193 -105.000000 0.000000
vt 28.854193 105.000000 0.000000
vt 0.000000 105.000000 0.000000
vt 0.000000 -105.000000 0.000000
vt 3.200000 -105.000000 0.000000
vt 3.200000 105.000000 0.000000
vt 0.000000 105.000000 0.000000
vt 0.000000 -105.000000 0.000000
vt 10.390000 -105.000000 0.000000
vt 10.390000 105.000000 0.000000
vt 0.000000 105.000000 0.000000
vt 0.000000 -105.000000 0.000000
vt 21.645000 -3.000000 0.000000
vt 31.408407 0.553589 0.000000
vt 28.849415 2.474934 0.000000
vt 0.000000 3.000000 0.000000
vt -28.849415 2.474934 0.000000
vt -31.408407 0.553589 0.000000
vt -21.645000 -3.000000 0.000000
vn 0.000000 0.000000 -100.000000
vn 0.000000 0.000000 -100.000000
vn 0.000000 0.000000 -100.000000
vn 0.000000 0.000000 -100.000000
vn 0.000000 0.000000 -100.000000
vn 0.000000 0.000000 -100.000000
vn 0.000000 0.000000 -100.000000
vn 0.000000 -100.000000 0.000000
vn 0.000000 -100.000000 0.000000
vn 0.000000 -100.000000 0.000000
vn 0.000000 -100.000000 0.000000
vn -34.202015 -93.969262 0.000000
vn -34.202015 -93.969262 0.000000
vn -34.202015 -93.969262 0.000000
vn -34.202015 -93.969262 0.000000
vn -60.042024 79.968464 0.000000
vn -60.042024 79.968464 0.000000
vn -60.042024 79.968464 0.000000
vn -60.042024 79.968464 0.000000
vn -1.819722 99.983442 0.000000
vn -1.819722 99.983442 0.000000
vn -1.819722 99.983442 0.000000
vn -1.819722 99.983442 0.000000
vn 1.819722 99.983442 0.000000
vn 1.819722 99.983442 0.000000
vn 1.819722 99.983442 0.000000
vn 1.819722 99.983442 0.000000
vn 60.042024 79.968464 0.000000
vn 60.042024 79.968464 0.000000
vn 60.042024 79.968464 0.000000
vn 60.042024 79.968464 0.000000
vn 34.202015 -93.969262 0.000000
vn 34.202015 -93.969262 0.000000
vn 34.202015 -93.969262 0.000000
vn 34.202015 -93.969262 0.000000
vn 0.000000 0.000000 100.000000
vn 0.000000 0.000000 100.000000
vn 0.000000 0.000000 100.000000
vn 0.000000 0.000000 100.000000
vn 0.000000 0.000000 100.000000
vn 0.000000 0.000000 100.000000
vn 0.000000 0.000000 100.000000
usemtl 191,191,191
f 9/2/2 5/3/3 13/1/1
f 13/1/1 5/3/3 1/4/4
f 13/1/1 1/4/4 7/6/6
f 7/6/6 1/4/4 3/5/5
f 7/6/6 11/7/7 13/1/1
f 10/9/9 6/10/10 9/8/8
f 9/8/8 6/10/10 5/11/11
f 6/13/13 2/14/14 5/12/12
f 5/12/12 2/14/14 1/15/15
f 2/17/17 4/18/18 1/16/16
f 1/16/16 4/18/18 3/19/19
f 4/21/21 8/22/22 3/20/20
f 3/20/20 8/22/22 7/23/23
f 8/25/25 12/26/26 7/24/24
f 7/24/24 12/26/26 11/27/27
f 12/29/29 14/30/30 11/28/28
f 11/28/28 14/30/30 13/31/31
f 14/33/33 10/34/34 13/32/32
f 13/32/32 10/34/34 9/35/35
f 6/42/42 10/36/36 2/41/41
f 2/41/41 10/36/36 14/37/37
f 2/41/41 14/37/37 8/39/39
f 8/39/39 14/37/37 12/38/38
f 8/39/39 4/40/40 2/41/41

# 14 vertices
# 42 texture params
# 42 normals
# 24 facets

# 1 groups
