solid
 facet normal  5.660161e-02  8.660254e-01 -4.967859e-01
   outer loop
     vertex  4.298988e+03  2.280543e+04 -1.059090e+04
     vertex  4.312548e+03  2.284921e+04 -1.051303e+04
     vertex  4.393337e+03  2.281869e+04 -1.055704e+04
   endloop
 endfacet
 facet normal  5.660161e-02  8.660254e-01 -4.967859e-01
   outer loop
     vertex  4.329999e+03  2.289174e+04 -1.043690e+04
     vertex  4.350398e+03  2.293088e+04 -1.036635e+04
     vertex  4.412791e+03  2.290199e+04 -1.040960e+04
   endloop
 endfacet
 facet normal  5.660161e-02  8.660254e-01 -4.967859e-01
   outer loop
     vertex  4.368545e+03  2.295900e+04 -1.031526e+04
     vertex  4.390612e+03  2.298684e+04 -1.026421e+04
     vertex  4.430980e+03  2.296111e+04 -1.030447e+04
   endloop
 endfacet
 facet normal  5.660161e-02  8.660254e-01 -4.967859e-01
   outer loop
     vertex  4.413552e+03  2.301050e+04 -1.022036e+04
     vertex  4.435615e+03  2.302948e+04 -1.018475e+04
     vertex  4.461281e+03  2.300876e+04 -1.021796e+04
   endloop
 endfacet
 facet normal  5.660161e-02  8.660254e-01 -4.967859e-01
   outer loop
     vertex  4.457972e+03  2.304578e+04 -1.015379e+04
     vertex  4.476608e+03  2.305748e+04 -1.013127e+04
     vertex  4.492009e+03  2.304242e+04 -1.015578e+04
   endloop
 endfacet
 facet normal  5.660161e-02  8.660254e-01 -4.967859e-01
   outer loop
     vertex  4.493905e+03  2.306697e+04 -1.011275e+04
     vertex  4.509710e+03  2.307457e+04 -1.009771e+04
     vertex  4.516092e+03  2.306417e+04 -1.011511e+04
   endloop
 endfacet
 facet normal  5.660161e-02  8.660254e-01 -4.967859e-01
   outer loop
     vertex  4.520544e+03  2.307921e+04 -1.008839e+04
     vertex  4.531285e+03  2.308337e+04 -1.007991e+04
     vertex  4.534558e+03  2.307546e+04 -1.009334e+04
   endloop
 endfacet
 facet normal  5.660161e-02  8.660254e-01 -4.967859e-01
   outer loop
     vertex  4.542600e+03  2.308729e+04 -1.007180e+04
     vertex  4.554093e+03  2.309077e+04 -1.006441e+04
     vertex  4.555925e+03  2.308363e+04 -1.007665e+04
   endloop
 endfacet
 facet normal  5.660160e-02  8.660254e-01 -4.967859e-01
   outer loop
     vertex  4.568031e+03  2.309430e+04 -1.005667e+04
     vertex  4.582923e+03  2.309719e+04 -1.004993e+04
     vertex  4.582158e+03  2.308952e+04 -1.006339e+04
   endloop
 endfacet
 facet normal  5.660161e-02  8.660254e-01 -4.967859e-01
   outer loop
     vertex  4.595677e+03  2.309891e+04 -1.004548e+04
     vertex  4.607110e+03  2.309980e+04 -1.004263e+04
     vertex  4.603587e+03  2.309479e+04 -1.005177e+04
   endloop
 endfacet
 facet normal  5.660161e-02  8.660254e-01 -4.967859e-01
   outer loop
     vertex  4.619247e+03  2.309994e+04 -1.004100e+04
     vertex  4.632725e+03  2.309898e+04 -1.004114e+04
     vertex  4.625187e+03  2.309405e+04 -1.005060e+04
   endloop
 endfacet
 facet normal  5.660161e-02  8.660254e-01 -4.967859e-01
   outer loop
     vertex  4.645852e+03  2.309672e+04 -1.004359e+04
     vertex  4.657987e+03  2.309310e+04 -1.004851e+04
     vertex  4.646034e+03  2.309023e+04 -1.005487e+04
   endloop
 endfacet
 facet normal  5.660160e-02  8.660254e-01 -4.967859e-01
   outer loop
     vertex  4.668404e+03  2.308829e+04 -1.005571e+04
     vertex  4.675746e+03  2.308339e+04 -1.006342e+04
     vertex  4.664786e+03  2.308276e+04 -1.006577e+04
   endloop
 endfacet
 facet normal  5.660161e-02  8.660254e-01 -4.967859e-01
   outer loop
     vertex  4.680921e+03  2.307862e+04 -1.007114e+04
     vertex  4.684722e+03  2.307383e+04 -1.007906e+04
     vertex  4.673931e+03  2.307492e+04 -1.007838e+04
   endloop
 endfacet
 facet normal  5.660160e-02  8.660254e-01 -4.967859e-01
   outer loop
     vertex  4.687897e+03  2.306802e+04 -1.008882e+04
     vertex  4.689708e+03  2.306285e+04 -1.009764e+04
     vertex  4.680067e+03  2.306520e+04 -1.009464e+04
   endloop
 endfacet
 facet normal  5.660161e-02  8.660254e-01 -4.967859e-01
   outer loop
     vertex  4.690941e+03  2.305617e+04 -1.010915e+04
     vertex  4.691122e+03  2.304898e+04 -1.012164e+04
     vertex  4.678822e+03  2.305352e+04 -1.011514e+04
   endloop
 endfacet
 facet normal  5.660161e-02  8.660254e-01 -4.967859e-01
   outer loop
     vertex  4.690400e+03  2.304236e+04 -1.013327e+04
     vertex  4.689114e+03  2.303632e+04 -1.014395e+04
     vertex  4.677758e+03  2.304079e+04 -1.013745e+04
   endloop
 endfacet
 facet normal  5.660161e-02  8.660254e-01 -4.967859e-01
   outer loop
     vertex  4.687196e+03  2.302993e+04 -1.015532e+04
     vertex  4.684710e+03  2.302340e+04 -1.016698e+04
     vertex  4.673527e+03  2.302830e+04 -1.015970e+04
   endloop
 endfacet
 facet normal  5.660161e-02  8.660254e-01 -4.967859e-01
   outer loop
     vertex  4.681595e+03  2.301658e+04 -1.017921e+04
     vertex  4.677850e+03  2.300951e+04 -1.019197e+04
     vertex  4.665915e+03  2.301497e+04 -1.018381e+04
   endloop
 endfacet
 facet normal  5.660161e-02  8.660254e-01 -4.967859e-01
   outer loop
     vertex  4.672940e+03  2.300132e+04 -1.020681e+04
     vertex  4.665976e+03  2.299098e+04 -1.022563e+04
     vertex  4.651792e+03  2.299928e+04 -1.021277e+04
   endloop
 endfacet
 facet normal  5.660161e-02  8.660254e-01 -4.967859e-01
   outer loop
     vertex  4.658115e+03  2.298043e+04 -1.024491e+04
     vertex  4.647235e+03  2.296710e+04 -1.026939e+04
     vertex  4.626219e+03  2.298009e+04 -1.024914e+04
   endloop
 endfacet
 facet normal  5.660161e-02  8.660254e-01 -4.967859e-01
   outer loop
     vertex  4.634831e+03  2.295308e+04 -1.029524e+04
     vertex  4.617224e+03  2.293452e+04 -1.032961e+04
     vertex  4.591143e+03  2.295326e+04 -1.029991e+04
   endloop
 endfacet
 facet normal  5.660161e-02  8.660254e-01 -4.967859e-01
   outer loop
     vertex  4.597018e+03  2.291435e+04 -1.036706e+04
     vertex  4.573451e+03  2.289176e+04 -1.040913e+04
     vertex  4.537503e+03  2.291670e+04 -1.036975e+04
   endloop
 endfacet
 facet normal  5.660161e-02  8.660254e-01 -4.967859e-01
   outer loop
     vertex  4.543801e+03  2.286440e+04 -1.046021e+04
     vertex  4.505318e+03  2.283044e+04 -1.052380e+04
     vertex  4.459578e+03  2.286210e+04 -1.047380e+04
   endloop
 endfacet
 facet normal  5.660161e-02  8.660254e-01 -4.967859e-01
   outer loop
     vertex  4.505318e+03  2.283044e+04 -1.052380e+04
     vertex  4.457867e+03  2.279002e+04 -1.059967e+04
     vertex  4.393337e+03  2.281869e+04 -1.055704e+04
   endloop
 endfacet
 facet normal  5.660161e-02  8.660254e-01 -4.967859e-01
   outer loop
     vertex  4.457867e+03  2.279002e+04 -1.059967e+04
     vertex  4.415839e+03  2.275450e+04 -1.066637e+04
     vertex  4.393337e+03  2.281869e+04 -1.055704e+04
   endloop
 endfacet
 facet normal  5.660161e-02  8.660254e-01 -4.967859e-01
   outer loop
     vertex  4.415839e+03  2.275450e+04 -1.066637e+04
     vertex  4.380385e+03  2.272504e+04 -1.072177e+04
     vertex  4.344610e+03  2.275229e+04 -1.067834e+04
   endloop
 endfacet
 facet normal  5.660161e-02  8.660254e-01 -4.967859e-01
   outer loop
     vertex  4.314952e+03  2.267045e+04 -1.082438e+04
     vertex  4.283949e+03  2.264747e+04 -1.086798e+04
     vertex  4.281024e+03  2.267625e+04 -1.081814e+04
   endloop
 endfacet
 facet normal  5.660161e-02  8.660254e-01 -4.967859e-01
   outer loop
     vertex  4.285711e+03  2.273723e+04 -1.071131e+04
     vertex  4.290476e+03  2.276834e+04 -1.065652e+04
     vertex  4.344610e+03  2.275229e+04 -1.067834e+04
   endloop
 endfacet
 facet normal  5.660161e-02  8.660254e-01 -4.967859e-01
   outer loop
     vertex  4.312548e+03  2.284921e+04 -1.051303e+04
     vertex  4.329999e+03  2.289174e+04 -1.043690e+04
     vertex  4.382546e+03  2.286476e+04 -1.047795e+04
   endloop
 endfacet
 facet normal  5.660161e-02  8.660254e-01 -4.967859e-01
   outer loop
     vertex  4.350398e+03  2.293088e+04 -1.036635e+04
     vertex  4.368545e+03  2.295900e+04 -1.031526e+04
     vertex  4.406702e+03  2.293553e+04 -1.035184e+04
   endloop
 endfacet
 facet normal  5.660161e-02  8.660254e-01 -4.967859e-01
   outer loop
     vertex  4.390612e+03  2.298684e+04 -1.026421e+04
     vertex  4.413552e+03  2.301050e+04 -1.022036e+04
     vertex  4.446148e+03  2.298673e+04 -1.025808e+04
   endloop
 endfacet
 facet normal  5.660161e-02  8.660254e-01 -4.967859e-01
   outer loop
     vertex  4.435615e+03  2.302948e+04 -1.018475e+04
     vertex  4.457972e+03  2.304578e+04 -1.015379e+04
     vertex  4.477697e+03  2.302698e+04 -1.018432e+04
   endloop
 endfacet
 facet normal  5.660161e-02  8.660254e-01 -4.967859e-01
   outer loop
     vertex  4.476608e+03  2.305748e+04 -1.013127e+04
     vertex  4.493905e+03  2.306697e+04 -1.011275e+04
     vertex  4.505115e+03  2.305485e+04 -1.013260e+04
   endloop
 endfacet
 facet normal  5.660161e-02  8.660254e-01 -4.967859e-01
   outer loop
     vertex  4.509710e+03  2.307457e+04 -1.009771e+04
     vertex  4.520544e+03  2.307921e+04 -1.008839e+04
     vertex  4.523455e+03  2.307182e+04 -1.010093e+04
   endloop
 endfacet
 facet normal  5.660161e-02  8.660254e-01 -4.967859e-01
   outer loop
     vertex  4.531285e+03  2.308337e+04 -1.007991e+04
     vertex  4.542600e+03  2.308729e+04 -1.007180e+04
     vertex  4.544680e+03  2.307998e+04 -1.008429e+04
   endloop
 endfacet
 facet normal  5.660161e-02  8.660254e-01 -4.967859e-01
   outer loop
     vertex  4.554093e+03  2.309077e+04 -1.006441e+04
     vertex  4.568031e+03  2.309430e+04 -1.005667e+04
     vertex  4.568533e+03  2.308656e+04 -1.007011e+04
   endloop
 endfacet
 facet normal  5.660161e-02  8.660254e-01 -4.967859e-01
   outer loop
     vertex  4.582923e+03  2.309719e+04 -1.004993e+04
     vertex  4.595677e+03  2.309891e+04 -1.004548e+04
     vertex  4.594095e+03  2.309216e+04 -1.005742e+04
   endloop
 endfacet
 facet normal  5.660161e-02  8.660254e-01 -4.967859e-01
   outer loop
     vertex  4.607110e+03  2.309980e+04 -1.004263e+04
     vertex  4.619247e+03  2.309994e+04 -1.004100e+04
     vertex  4.613814e+03  2.309433e+04 -1.005141e+04
   endloop
 endfacet
 facet normal  5.660161e-02  8.660254e-01 -4.967859e-01
   outer loop
     vertex  4.632725e+03  2.309898e+04 -1.004114e+04
     vertex  4.645852e+03  2.309672e+04 -1.004359e+04
     vertex  4.636654e+03  2.309380e+04 -1.004973e+04
   endloop
 endfacet
 facet normal  5.660160e-02  8.660254e-01 -4.967859e-01
   outer loop
     vertex  4.657987e+03  2.309310e+04 -1.004851e+04
     vertex  4.668404e+03  2.308829e+04 -1.005571e+04
     vertex  4.655573e+03  2.308652e+04 -1.006025e+04
   endloop
 endfacet
 facet normal  5.660160e-02  8.660254e-01 -4.967859e-01
   outer loop
     vertex  4.675746e+03  2.308339e+04 -1.006342e+04
     vertex  4.680921e+03  2.307862e+04 -1.007114e+04
     vertex  4.671695e+03  2.307945e+04 -1.007075e+04
   endloop
 endfacet
 facet normal  5.660160e-02  8.660254e-01 -4.967859e-01
   outer loop
     vertex  4.684722e+03  2.307383e+04 -1.007906e+04
     vertex  4.687897e+03  2.306802e+04 -1.008882e+04
     vertex  4.676722e+03  2.306986e+04 -1.008689e+04
   endloop
 endfacet
 facet normal  5.660160e-02  8.660254e-01 -4.967859e-01
   outer loop
     vertex  4.689708e+03  2.306285e+04 -1.009764e+04
     vertex  4.690941e+03  2.305617e+04 -1.010915e+04
     vertex  4.678990e+03  2.305999e+04 -1.010385e+04
   endloop
 endfacet
 facet normal  5.660161e-02  8.660254e-01 -4.967859e-01
   outer loop
     vertex  4.691122e+03  2.304898e+04 -1.012164e+04
     vertex  4.690400e+03  2.304236e+04 -1.013327e+04
     vertex  4.678604e+03  2.304704e+04 -1.012647e+04
   endloop
 endfacet
 facet normal  5.660161e-02  8.660254e-01 -4.967859e-01
   outer loop
     vertex  4.689114e+03  2.303632e+04 -1.014395e+04
     vertex  4.687196e+03  2.302993e+04 -1.015532e+04
     vertex  4.676032e+03  2.303465e+04 -1.014835e+04
   endloop
 endfacet
 facet normal  5.660161e-02  8.660254e-01 -4.967859e-01
   outer loop
     vertex  4.684710e+03  2.302340e+04 -1.016698e+04
     vertex  4.681595e+03  2.301658e+04 -1.017921e+04
     vertex  4.669850e+03  2.302184e+04 -1.017139e+04
   endloop
 endfacet
 facet normal  5.660161e-02  8.660254e-01 -4.967859e-01
   outer loop
     vertex  4.677850e+03  2.300951e+04 -1.019197e+04
     vertex  4.672940e+03  2.300132e+04 -1.020681e+04
     vertex  4.659856e+03  2.300747e+04 -1.019758e+04
   endloop
 endfacet
 facet normal  5.660161e-02  8.660254e-01 -4.967859e-01
   outer loop
     vertex  4.665976e+03  2.299098e+04 -1.022563e+04
     vertex  4.658115e+03  2.298043e+04 -1.024491e+04
     vertex  4.640445e+03  2.299047e+04 -1.022941e+04
   endloop
 endfacet
 facet normal  5.660161e-02  8.660254e-01 -4.967859e-01
   outer loop
     vertex  4.647235e+03  2.296710e+04 -1.026939e+04
     vertex  4.634831e+03  2.295308e+04 -1.029524e+04
     vertex  4.609951e+03  2.296834e+04 -1.027148e+04
   endloop
 endfacet
 facet normal  5.660161e-02  8.660254e-01 -4.967859e-01
   outer loop
     vertex  4.617224e+03  2.293452e+04 -1.032961e+04
     vertex  4.597018e+03  2.291435e+04 -1.036706e+04
     vertex  4.568794e+03  2.293598e+04 -1.033258e+04
   endloop
 endfacet
 facet normal  5.660161e-02  8.660254e-01 -4.967859e-01
   outer loop
     vertex  4.573451e+03  2.289176e+04 -1.040913e+04
     vertex  4.543801e+03  2.286440e+04 -1.046021e+04
     vertex  4.498230e+03  2.289460e+04 -1.041276e+04
   endloop
 endfacet
 facet normal  5.660161e-02  8.660254e-01 -4.967859e-01
   outer loop
     vertex  4.505318e+03  2.283044e+04 -1.052380e+04
     vertex  4.393337e+03  2.281869e+04 -1.055704e+04
     vertex  4.459578e+03  2.286210e+04 -1.047380e+04
   endloop
 endfacet
 facet normal  5.660161e-02  8.660254e-01 -4.967859e-01
   outer loop
     vertex  4.344610e+03  2.275229e+04 -1.067834e+04
     vertex  4.380385e+03  2.272504e+04 -1.072177e+04
     vertex  4.285711e+03  2.273723e+04 -1.071131e+04
   endloop
 endfacet
 facet normal  5.660161e-02  8.660254e-01 -4.967859e-01
   outer loop
     vertex  4.314952e+03  2.267045e+04 -1.082438e+04
     vertex  4.281024e+03  2.267625e+04 -1.081814e+04
     vertex  4.347374e+03  2.269759e+04 -1.077338e+04
   endloop
 endfacet
 facet normal  5.660161e-02  8.660254e-01 -4.967859e-01
   outer loop
     vertex  4.281024e+03  2.267625e+04 -1.081814e+04
     vertex  4.282695e+03  2.270849e+04 -1.076174e+04
     vertex  4.347374e+03  2.269759e+04 -1.077338e+04
   endloop
 endfacet
 facet normal  5.660161e-02  8.660254e-01 -4.967859e-01
   outer loop
     vertex  4.380385e+03  2.272504e+04 -1.072177e+04
     vertex  4.347374e+03  2.269759e+04 -1.077338e+04
     vertex  4.285711e+03  2.273723e+04 -1.071131e+04
   endloop
 endfacet
 facet normal  5.660161e-02  8.660254e-01 -4.967859e-01
   outer loop
     vertex  4.350398e+03  2.293088e+04 -1.036635e+04
     vertex  4.406702e+03  2.293553e+04 -1.035184e+04
     vertex  4.412791e+03  2.290199e+04 -1.040960e+04
   endloop
 endfacet
 facet normal  5.660161e-02  8.660254e-01 -4.967859e-01
   outer loop
     vertex  4.390612e+03  2.298684e+04 -1.026421e+04
     vertex  4.446148e+03  2.298673e+04 -1.025808e+04
     vertex  4.430980e+03  2.296111e+04 -1.030447e+04
   endloop
 endfacet
 facet normal  5.660161e-02  8.660254e-01 -4.967859e-01
   outer loop
     vertex  4.435615e+03  2.302948e+04 -1.018475e+04
     vertex  4.477697e+03  2.302698e+04 -1.018432e+04
     vertex  4.461281e+03  2.300876e+04 -1.021796e+04
   endloop
 endfacet
 facet normal  5.660161e-02  8.660254e-01 -4.967859e-01
   outer loop
     vertex  4.476608e+03  2.305748e+04 -1.013127e+04
     vertex  4.505115e+03  2.305485e+04 -1.013260e+04
     vertex  4.492009e+03  2.304242e+04 -1.015578e+04
   endloop
 endfacet
 facet normal  5.660161e-02  8.660254e-01 -4.967859e-01
   outer loop
     vertex  4.509710e+03  2.307457e+04 -1.009771e+04
     vertex  4.523455e+03  2.307182e+04 -1.010093e+04
     vertex  4.516092e+03  2.306417e+04 -1.011511e+04
   endloop
 endfacet
 facet normal  5.660161e-02  8.660254e-01 -4.967859e-01
   outer loop
     vertex  4.531285e+03  2.308337e+04 -1.007991e+04
     vertex  4.544680e+03  2.307998e+04 -1.008429e+04
     vertex  4.534558e+03  2.307546e+04 -1.009334e+04
   endloop
 endfacet
 facet normal  5.660161e-02  8.660254e-01 -4.967859e-01
   outer loop
     vertex  4.554093e+03  2.309077e+04 -1.006441e+04
     vertex  4.568533e+03  2.308656e+04 -1.007011e+04
     vertex  4.555925e+03  2.308363e+04 -1.007665e+04
   endloop
 endfacet
 facet normal  5.660161e-02  8.660254e-01 -4.967859e-01
   outer loop
     vertex  4.582923e+03  2.309719e+04 -1.004993e+04
     vertex  4.594095e+03  2.309216e+04 -1.005742e+04
     vertex  4.582158e+03  2.308952e+04 -1.006339e+04
   endloop
 endfacet
 facet normal  5.660161e-02  8.660254e-01 -4.967859e-01
   outer loop
     vertex  4.607110e+03  2.309980e+04 -1.004263e+04
     vertex  4.613814e+03  2.309433e+04 -1.005141e+04
     vertex  4.603587e+03  2.309479e+04 -1.005177e+04
   endloop
 endfacet
 facet normal  5.660161e-02  8.660254e-01 -4.967859e-01
   outer loop
     vertex  4.632725e+03  2.309898e+04 -1.004114e+04
     vertex  4.636654e+03  2.309380e+04 -1.004973e+04
     vertex  4.625187e+03  2.309405e+04 -1.005060e+04
   endloop
 endfacet
 facet normal  5.660161e-02  8.660254e-01 -4.967859e-01
   outer loop
     vertex  4.657987e+03  2.309310e+04 -1.004851e+04
     vertex  4.655573e+03  2.308652e+04 -1.006025e+04
     vertex  4.646034e+03  2.309023e+04 -1.005487e+04
   endloop
 endfacet
 facet normal  5.660160e-02  8.660254e-01 -4.967859e-01
   outer loop
     vertex  4.675746e+03  2.308339e+04 -1.006342e+04
     vertex  4.671695e+03  2.307945e+04 -1.007075e+04
     vertex  4.664786e+03  2.308276e+04 -1.006577e+04
   endloop
 endfacet
 facet normal  5.660161e-02  8.660254e-01 -4.967859e-01
   outer loop
     vertex  4.684722e+03  2.307383e+04 -1.007906e+04
     vertex  4.676722e+03  2.306986e+04 -1.008689e+04
     vertex  4.673931e+03  2.307492e+04 -1.007838e+04
   endloop
 endfacet
 facet normal  5.660160e-02  8.660254e-01 -4.967859e-01
   outer loop
     vertex  4.689708e+03  2.306285e+04 -1.009764e+04
     vertex  4.678990e+03  2.305999e+04 -1.010385e+04
     vertex  4.680067e+03  2.306520e+04 -1.009464e+04
   endloop
 endfacet
 facet normal  5.660161e-02  8.660254e-01 -4.967859e-01
   outer loop
     vertex  4.691122e+03  2.304898e+04 -1.012164e+04
     vertex  4.678604e+03  2.304704e+04 -1.012647e+04
     vertex  4.678822e+03  2.305352e+04 -1.011514e+04
   endloop
 endfacet
 facet normal  5.660161e-02  8.660254e-01 -4.967859e-01
   outer loop
     vertex  4.689114e+03  2.303632e+04 -1.014395e+04
     vertex  4.676032e+03  2.303465e+04 -1.014835e+04
     vertex  4.677758e+03  2.304079e+04 -1.013745e+04
   endloop
 endfacet
 facet normal  5.660161e-02  8.660254e-01 -4.967859e-01
   outer loop
     vertex  4.684710e+03  2.302340e+04 -1.016698e+04
     vertex  4.669850e+03  2.302184e+04 -1.017139e+04
     vertex  4.673527e+03  2.302830e+04 -1.015970e+04
   endloop
 endfacet
 facet normal  5.660161e-02  8.660254e-01 -4.967859e-01
   outer loop
     vertex  4.677850e+03  2.300951e+04 -1.019197e+04
     vertex  4.659856e+03  2.300747e+04 -1.019758e+04
     vertex  4.665915e+03  2.301497e+04 -1.018381e+04
   endloop
 endfacet
 facet normal  5.660161e-02  8.660254e-01 -4.967859e-01
   outer loop
     vertex  4.665976e+03  2.299098e+04 -1.022563e+04
     vertex  4.640445e+03  2.299047e+04 -1.022941e+04
     vertex  4.651792e+03  2.299928e+04 -1.021277e+04
   endloop
 endfacet
 facet normal  5.660161e-02  8.660254e-01 -4.967859e-01
   outer loop
     vertex  4.647235e+03  2.296710e+04 -1.026939e+04
     vertex  4.609951e+03  2.296834e+04 -1.027148e+04
     vertex  4.626219e+03  2.298009e+04 -1.024914e+04
   endloop
 endfacet
 facet normal  5.660161e-02  8.660254e-01 -4.967859e-01
   outer loop
     vertex  4.617224e+03  2.293452e+04 -1.032961e+04
     vertex  4.568794e+03  2.293598e+04 -1.033258e+04
     vertex  4.591143e+03  2.295326e+04 -1.029991e+04
   endloop
 endfacet
 facet normal  5.660161e-02  8.660254e-01 -4.967859e-01
   outer loop
     vertex  4.573451e+03  2.289176e+04 -1.040913e+04
     vertex  4.498230e+03  2.289460e+04 -1.041276e+04
     vertex  4.537503e+03  2.291670e+04 -1.036975e+04
   endloop
 endfacet
 facet normal  5.660161e-02  8.660254e-01 -4.967859e-01
   outer loop
     vertex  4.282695e+03  2.270849e+04 -1.076174e+04
     vertex  4.285711e+03  2.273723e+04 -1.071131e+04
     vertex  4.347374e+03  2.269759e+04 -1.077338e+04
   endloop
 endfacet
 facet normal  5.660161e-02  8.660254e-01 -4.967859e-01
   outer loop
     vertex  4.290476e+03  2.276834e+04 -1.065652e+04
     vertex  4.298988e+03  2.280543e+04 -1.059090e+04
     vertex  4.350913e+03  2.278162e+04 -1.062650e+04
   endloop
 endfacet
 facet normal  5.660161e-02  8.660254e-01 -4.967859e-01
   outer loop
     vertex  4.382546e+03  2.286476e+04 -1.047795e+04
     vertex  4.329999e+03  2.289174e+04 -1.043690e+04
     vertex  4.412791e+03  2.290199e+04 -1.040960e+04
   endloop
 endfacet
 facet normal  5.660161e-02  8.660254e-01 -4.967859e-01
   outer loop
     vertex  4.406702e+03  2.293553e+04 -1.035184e+04
     vertex  4.368545e+03  2.295900e+04 -1.031526e+04
     vertex  4.430980e+03  2.296111e+04 -1.030447e+04
   endloop
 endfacet
 facet normal  5.660161e-02  8.660254e-01 -4.967859e-01
   outer loop
     vertex  4.446148e+03  2.298673e+04 -1.025808e+04
     vertex  4.413552e+03  2.301050e+04 -1.022036e+04
     vertex  4.461281e+03  2.300876e+04 -1.021796e+04
   endloop
 endfacet
 facet normal  5.660161e-02  8.660254e-01 -4.967859e-01
   outer loop
     vertex  4.477697e+03  2.302698e+04 -1.018432e+04
     vertex  4.457972e+03  2.304578e+04 -1.015379e+04
     vertex  4.492009e+03  2.304242e+04 -1.015578e+04
   endloop
 endfacet
 facet normal  5.660161e-02  8.660254e-01 -4.967859e-01
   outer loop
     vertex  4.505115e+03  2.305485e+04 -1.013260e+04
     vertex  4.493905e+03  2.306697e+04 -1.011275e+04
     vertex  4.516092e+03  2.306417e+04 -1.011511e+04
   endloop
 endfacet
 facet normal  5.660161e-02  8.660254e-01 -4.967859e-01
   outer loop
     vertex  4.523455e+03  2.307182e+04 -1.010093e+04
     vertex  4.520544e+03  2.307921e+04 -1.008839e+04
     vertex  4.534558e+03  2.307546e+04 -1.009334e+04
   endloop
 endfacet
 facet normal  5.660161e-02  8.660254e-01 -4.967859e-01
   outer loop
     vertex  4.544680e+03  2.307998e+04 -1.008429e+04
     vertex  4.542600e+03  2.308729e+04 -1.007180e+04
     vertex  4.555925e+03  2.308363e+04 -1.007665e+04
   endloop
 endfacet
 facet normal  5.660161e-02  8.660254e-01 -4.967859e-01
   outer loop
     vertex  4.568533e+03  2.308656e+04 -1.007011e+04
     vertex  4.568031e+03  2.309430e+04 -1.005667e+04
     vertex  4.582158e+03  2.308952e+04 -1.006339e+04
   endloop
 endfacet
 facet normal  5.660161e-02  8.660254e-01 -4.967859e-01
   outer loop
     vertex  4.594095e+03  2.309216e+04 -1.005742e+04
     vertex  4.595677e+03  2.309891e+04 -1.004548e+04
     vertex  4.603587e+03  2.309479e+04 -1.005177e+04
   endloop
 endfacet
 facet normal  5.660161e-02  8.660254e-01 -4.967859e-01
   outer loop
     vertex  4.613814e+03  2.309433e+04 -1.005141e+04
     vertex  4.619247e+03  2.309994e+04 -1.004100e+04
     vertex  4.625187e+03  2.309405e+04 -1.005060e+04
   endloop
 endfacet
 facet normal  5.660161e-02  8.660254e-01 -4.967859e-01
   outer loop
     vertex  4.636654e+03  2.309380e+04 -1.004973e+04
     vertex  4.645852e+03  2.309672e+04 -1.004359e+04
     vertex  4.646034e+03  2.309023e+04 -1.005487e+04
   endloop
 endfacet
 facet normal  5.660160e-02  8.660254e-01 -4.967859e-01
   outer loop
     vertex  4.655573e+03  2.308652e+04 -1.006025e+04
     vertex  4.668404e+03  2.308829e+04 -1.005571e+04
     vertex  4.664786e+03  2.308276e+04 -1.006577e+04
   endloop
 endfacet
 facet normal  5.660160e-02  8.660254e-01 -4.967859e-01
   outer loop
     vertex  4.671695e+03  2.307945e+04 -1.007075e+04
     vertex  4.680921e+03  2.307862e+04 -1.007114e+04
     vertex  4.673931e+03  2.307492e+04 -1.007838e+04
   endloop
 endfacet
 facet normal  5.660160e-02  8.660254e-01 -4.967859e-01
   outer loop
     vertex  4.676722e+03  2.306986e+04 -1.008689e+04
     vertex  4.687897e+03  2.306802e+04 -1.008882e+04
     vertex  4.680067e+03  2.306520e+04 -1.009464e+04
   endloop
 endfacet
 facet normal  5.660160e-02  8.660254e-01 -4.967859e-01
   outer loop
     vertex  4.678990e+03  2.305999e+04 -1.010385e+04
     vertex  4.690941e+03  2.305617e+04 -1.010915e+04
     vertex  4.678822e+03  2.305352e+04 -1.011514e+04
   endloop
 endfacet
 facet normal  5.660161e-02  8.660254e-01 -4.967859e-01
   outer loop
     vertex  4.678604e+03  2.304704e+04 -1.012647e+04
     vertex  4.690400e+03  2.304236e+04 -1.013327e+04
     vertex  4.677758e+03  2.304079e+04 -1.013745e+04
   endloop
 endfacet
 facet normal  5.660161e-02  8.660254e-01 -4.967859e-01
   outer loop
     vertex  4.676032e+03  2.303465e+04 -1.014835e+04
     vertex  4.687196e+03  2.302993e+04 -1.015532e+04
     vertex  4.673527e+03  2.302830e+04 -1.015970e+04
   endloop
 endfacet
 facet normal  5.660161e-02  8.660254e-01 -4.967859e-01
   outer loop
     vertex  4.669850e+03  2.302184e+04 -1.017139e+04
     vertex  4.681595e+03  2.301658e+04 -1.017921e+04
     vertex  4.665915e+03  2.301497e+04 -1.018381e+04
   endloop
 endfacet
 facet normal  5.660161e-02  8.660254e-01 -4.967859e-01
   outer loop
     vertex  4.659856e+03  2.300747e+04 -1.019758e+04
     vertex  4.672940e+03  2.300132e+04 -1.020681e+04
     vertex  4.651792e+03  2.299928e+04 -1.021277e+04
   endloop
 endfacet
 facet normal  5.660161e-02  8.660254e-01 -4.967859e-01
   outer loop
     vertex  4.640445e+03  2.299047e+04 -1.022941e+04
     vertex  4.658115e+03  2.298043e+04 -1.024491e+04
     vertex  4.626219e+03  2.298009e+04 -1.024914e+04
   endloop
 endfacet
 facet normal  5.660161e-02  8.660254e-01 -4.967859e-01
   outer loop
     vertex  4.609951e+03  2.296834e+04 -1.027148e+04
     vertex  4.634831e+03  2.295308e+04 -1.029524e+04
     vertex  4.591143e+03  2.295326e+04 -1.029991e+04
   endloop
 endfacet
 facet normal  5.660161e-02  8.660254e-01 -4.967859e-01
   outer loop
     vertex  4.568794e+03  2.293598e+04 -1.033258e+04
     vertex  4.597018e+03  2.291435e+04 -1.036706e+04
     vertex  4.537503e+03  2.291670e+04 -1.036975e+04
   endloop
 endfacet
 facet normal  5.660161e-02  8.660254e-01 -4.967859e-01
   outer loop
     vertex  4.498230e+03  2.289460e+04 -1.041276e+04
     vertex  4.543801e+03  2.286440e+04 -1.046021e+04
     vertex  4.459578e+03  2.286210e+04 -1.047380e+04
   endloop
 endfacet
 facet normal  5.660161e-02  8.660254e-01 -4.967859e-01
   outer loop
     vertex  4.290476e+03  2.276834e+04 -1.065652e+04
     vertex  4.350913e+03  2.278162e+04 -1.062650e+04
     vertex  4.344610e+03  2.275229e+04 -1.067834e+04
   endloop
 endfacet
 facet normal  5.660161e-02  8.660254e-01 -4.967859e-01
   outer loop
     vertex  4.406702e+03  2.293553e+04 -1.035184e+04
     vertex  4.430980e+03  2.296111e+04 -1.030447e+04
     vertex  4.471594e+03  2.293018e+04 -1.035376e+04
   endloop
 endfacet
 facet normal  5.660161e-02  8.660254e-01 -4.967859e-01
   outer loop
     vertex  4.446148e+03  2.298673e+04 -1.025808e+04
     vertex  4.461281e+03  2.300876e+04 -1.021796e+04
     vertex  4.491254e+03  2.299080e+04 -1.024584e+04
   endloop
 endfacet
 facet normal  5.660161e-02  8.660254e-01 -4.967859e-01
   outer loop
     vertex  4.477697e+03  2.302698e+04 -1.018432e+04
     vertex  4.492009e+03  2.304242e+04 -1.015578e+04
     vertex  4.514909e+03  2.302741e+04 -1.017933e+04
   endloop
 endfacet
 facet normal  5.660161e-02  8.660254e-01 -4.967859e-01
   outer loop
     vertex  4.505115e+03  2.305485e+04 -1.013260e+04
     vertex  4.516092e+03  2.306417e+04 -1.011511e+04
     vertex  4.528911e+03  2.305441e+04 -1.013067e+04
   endloop
 endfacet
 facet normal  5.660161e-02  8.660254e-01 -4.967859e-01
   outer loop
     vertex  4.523455e+03  2.307182e+04 -1.010093e+04
     vertex  4.534558e+03  2.307546e+04 -1.009334e+04
     vertex  4.537538e+03  2.306527e+04 -1.011076e+04
   endloop
 endfacet
 facet normal  5.660161e-02  8.660254e-01 -4.967859e-01
   outer loop
     vertex  4.544680e+03  2.307998e+04 -1.008429e+04
     vertex  4.555925e+03  2.308363e+04 -1.007665e+04
     vertex  4.556972e+03  2.307706e+04 -1.008798e+04
   endloop
 endfacet
 facet normal  5.660161e-02  8.660254e-01 -4.967859e-01
   outer loop
     vertex  4.568533e+03  2.308656e+04 -1.007011e+04
     vertex  4.582158e+03  2.308952e+04 -1.006339e+04
     vertex  4.583139e+03  2.308161e+04 -1.007707e+04
   endloop
 endfacet
 facet normal  5.660161e-02  8.660254e-01 -4.967859e-01
   outer loop
     vertex  4.594095e+03  2.309216e+04 -1.005742e+04
     vertex  4.603587e+03  2.309479e+04 -1.005177e+04
     vertex  4.606543e+03  2.308899e+04 -1.006154e+04
   endloop
 endfacet
 facet normal  5.660161e-02  8.660254e-01 -4.967859e-01
   outer loop
     vertex  4.613814e+03  2.309433e+04 -1.005141e+04
     vertex  4.625187e+03  2.309405e+04 -1.005060e+04
     vertex  4.620122e+03  2.308781e+04 -1.006204e+04
   endloop
 endfacet
 facet normal  5.660161e-02  8.660254e-01 -4.967859e-01
   outer loop
     vertex  4.655573e+03  2.308652e+04 -1.006025e+04
     vertex  4.664786e+03  2.308276e+04 -1.006577e+04
     vertex  4.653269e+03  2.308051e+04 -1.007100e+04
   endloop
 endfacet
 facet normal  5.660161e-02  8.660254e-01 -4.967859e-01
   outer loop
     vertex  4.671695e+03  2.307945e+04 -1.007075e+04
     vertex  4.673931e+03  2.307492e+04 -1.007838e+04
     vertex  4.663562e+03  2.307719e+04 -1.007561e+04
   endloop
 endfacet
 facet normal  5.660161e-02  8.660254e-01 -4.967859e-01
   outer loop
     vertex  4.676722e+03  2.306986e+04 -1.008689e+04
     vertex  4.680067e+03  2.306520e+04 -1.009464e+04
     vertex  4.668208e+03  2.306528e+04 -1.009584e+04
   endloop
 endfacet
 facet normal  5.660161e-02  8.660254e-01 -4.967859e-01
   outer loop
     vertex  4.678990e+03  2.305999e+04 -1.010385e+04
     vertex  4.678822e+03  2.305352e+04 -1.011514e+04
     vertex  4.665693e+03  2.305859e+04 -1.010779e+04
   endloop
 endfacet
 facet normal  5.660161e-02  8.660254e-01 -4.967859e-01
   outer loop
     vertex  4.678604e+03  2.304704e+04 -1.012647e+04
     vertex  4.677758e+03  2.304079e+04 -1.013745e+04
     vertex  4.666414e+03  2.304529e+04 -1.013090e+04
   endloop
 endfacet
 facet normal  5.660161e-02  8.660254e-01 -4.967859e-01
   outer loop
     vertex  4.676032e+03  2.303465e+04 -1.014835e+04
     vertex  4.673527e+03  2.302830e+04 -1.015970e+04
     vertex  4.661863e+03  2.303357e+04 -1.015185e+04
   endloop
 endfacet
 facet normal  5.660161e-02  8.660254e-01 -4.967859e-01
   outer loop
     vertex  4.669850e+03  2.302184e+04 -1.017139e+04
     vertex  4.665915e+03  2.301497e+04 -1.018381e+04
     vertex  4.653638e+03  2.302091e+04 -1.017486e+04
   endloop
 endfacet
 facet normal  5.660161e-02  8.660254e-01 -4.967859e-01
   outer loop
     vertex  4.659856e+03  2.300747e+04 -1.019758e+04
     vertex  4.651792e+03  2.299928e+04 -1.021277e+04
     vertex  4.640081e+03  2.300710e+04 -1.020048e+04
   endloop
 endfacet
 facet normal  5.660161e-02  8.660254e-01 -4.967859e-01
   outer loop
     vertex  4.640445e+03  2.299047e+04 -1.022941e+04
     vertex  4.626219e+03  2.298009e+04 -1.024914e+04
     vertex  4.612183e+03  2.299255e+04 -1.022902e+04
   endloop
 endfacet
 facet normal  5.660161e-02  8.660254e-01 -4.967859e-01
   outer loop
     vertex  4.609951e+03  2.296834e+04 -1.027148e+04
     vertex  4.591143e+03  2.295326e+04 -1.029991e+04
     vertex  4.570573e+03  2.297207e+04 -1.026947e+04
   endloop
 endfacet
 facet normal  5.660161e-02  8.660254e-01 -4.967859e-01
   outer loop
     vertex  4.568794e+03  2.293598e+04 -1.033258e+04
     vertex  4.537503e+03  2.291670e+04 -1.036975e+04
     vertex  4.520630e+03  2.294133e+04 -1.032874e+04
   endloop
 endfacet
 facet normal  5.660161e-02  8.660254e-01 -4.967859e-01
   outer loop
     vertex  4.350913e+03  2.278162e+04 -1.062650e+04
     vertex  4.298988e+03  2.280543e+04 -1.059090e+04
     vertex  4.393337e+03  2.281869e+04 -1.055704e+04
   endloop
 endfacet
 facet normal  5.660161e-02  8.660254e-01 -4.967859e-01
   outer loop
     vertex  4.430980e+03  2.296111e+04 -1.030447e+04
     vertex  4.446148e+03  2.298673e+04 -1.025808e+04
     vertex  4.490493e+03  2.296417e+04 -1.029236e+04
   endloop
 endfacet
 facet normal  5.660161e-02  8.660254e-01 -4.967859e-01
   outer loop
     vertex  4.471594e+03  2.293018e+04 -1.035376e+04
     vertex  4.430980e+03  2.296111e+04 -1.030447e+04
     vertex  4.490493e+03  2.296417e+04 -1.029236e+04
   endloop
 endfacet
 facet normal  5.660161e-02  8.660254e-01 -4.967859e-01
   outer loop
     vertex  4.446148e+03  2.298673e+04 -1.025808e+04
     vertex  4.491254e+03  2.299080e+04 -1.024584e+04
     vertex  4.490493e+03  2.296417e+04 -1.029236e+04
   endloop
 endfacet
 facet normal  5.660161e-02  8.660254e-01 -4.967859e-01
   outer loop
     vertex  4.461281e+03  2.300876e+04 -1.021796e+04
     vertex  4.477697e+03  2.302698e+04 -1.018432e+04
     vertex  4.501231e+03  2.301042e+04 -1.021051e+04
   endloop
 endfacet
 facet normal  5.660161e-02  8.660254e-01 -4.967859e-01
   outer loop
     vertex  4.491254e+03  2.299080e+04 -1.024584e+04
     vertex  4.461281e+03  2.300876e+04 -1.021796e+04
     vertex  4.501231e+03  2.301042e+04 -1.021051e+04
   endloop
 endfacet
 facet normal  5.660161e-02  8.660254e-01 -4.967859e-01
   outer loop
     vertex  4.477697e+03  2.302698e+04 -1.018432e+04
     vertex  4.514909e+03  2.302741e+04 -1.017933e+04
     vertex  4.501231e+03  2.301042e+04 -1.021051e+04
   endloop
 endfacet
 facet normal  5.660161e-02  8.660254e-01 -4.967859e-01
   outer loop
     vertex  4.492009e+03  2.304242e+04 -1.015578e+04
     vertex  4.505115e+03  2.305485e+04 -1.013260e+04
     vertex  4.522632e+03  2.304236e+04 -1.015238e+04
   endloop
 endfacet
 facet normal  5.660161e-02  8.660254e-01 -4.967859e-01
   outer loop
     vertex  4.514909e+03  2.302741e+04 -1.017933e+04
     vertex  4.492009e+03  2.304242e+04 -1.015578e+04
     vertex  4.522632e+03  2.304236e+04 -1.015238e+04
   endloop
 endfacet
 facet normal  5.660161e-02  8.660254e-01 -4.967859e-01
   outer loop
     vertex  4.505115e+03  2.305485e+04 -1.013260e+04
     vertex  4.528911e+03  2.305441e+04 -1.013067e+04
     vertex  4.522632e+03  2.304236e+04 -1.015238e+04
   endloop
 endfacet
 facet normal  5.660161e-02  8.660254e-01 -4.967859e-01
   outer loop
     vertex  4.516092e+03  2.306417e+04 -1.011511e+04
     vertex  4.523455e+03  2.307182e+04 -1.010093e+04
     vertex  4.537538e+03  2.306527e+04 -1.011076e+04
   endloop
 endfacet
 facet normal  5.660161e-02  8.660254e-01 -4.967859e-01
   outer loop
     vertex  4.534558e+03  2.307546e+04 -1.009334e+04
     vertex  4.544680e+03  2.307998e+04 -1.008429e+04
     vertex  4.548946e+03  2.307154e+04 -1.009851e+04
   endloop
 endfacet
 facet normal  5.660161e-02  8.660254e-01 -4.967859e-01
   outer loop
     vertex  4.537538e+03  2.306527e+04 -1.011076e+04
     vertex  4.534558e+03  2.307546e+04 -1.009334e+04
     vertex  4.548946e+03  2.307154e+04 -1.009851e+04
   endloop
 endfacet
 facet normal  5.660161e-02  8.660254e-01 -4.967859e-01
   outer loop
     vertex  4.544680e+03  2.307998e+04 -1.008429e+04
     vertex  4.556972e+03  2.307706e+04 -1.008798e+04
     vertex  4.548946e+03  2.307154e+04 -1.009851e+04
   endloop
 endfacet
 facet normal  5.660161e-02  8.660254e-01 -4.967859e-01
   outer loop
     vertex  4.555925e+03  2.308363e+04 -1.007665e+04
     vertex  4.568533e+03  2.308656e+04 -1.007011e+04
     vertex  4.569079e+03  2.307893e+04 -1.008334e+04
   endloop
 endfacet
 facet normal  5.660161e-02  8.660254e-01 -4.967859e-01
   outer loop
     vertex  4.556972e+03  2.307706e+04 -1.008798e+04
     vertex  4.555925e+03  2.308363e+04 -1.007665e+04
     vertex  4.569079e+03  2.307893e+04 -1.008334e+04
   endloop
 endfacet
 facet normal  5.660161e-02  8.660254e-01 -4.967859e-01
   outer loop
     vertex  4.568533e+03  2.308656e+04 -1.007011e+04
     vertex  4.583139e+03  2.308161e+04 -1.007707e+04
     vertex  4.569079e+03  2.307893e+04 -1.008334e+04
   endloop
 endfacet
 facet normal  5.660161e-02  8.660254e-01 -4.967859e-01
   outer loop
     vertex  4.582158e+03  2.308952e+04 -1.006339e+04
     vertex  4.594095e+03  2.309216e+04 -1.005742e+04
     vertex  4.596436e+03  2.308483e+04 -1.006994e+04
   endloop
 endfacet
 facet normal  5.660161e-02  8.660254e-01 -4.967859e-01
   outer loop
     vertex  4.583139e+03  2.308161e+04 -1.007707e+04
     vertex  4.582158e+03  2.308952e+04 -1.006339e+04
     vertex  4.596436e+03  2.308483e+04 -1.006994e+04
   endloop
 endfacet
 facet normal  5.660161e-02  8.660254e-01 -4.967859e-01
   outer loop
     vertex  4.594095e+03  2.309216e+04 -1.005742e+04
     vertex  4.606543e+03  2.308899e+04 -1.006154e+04
     vertex  4.596436e+03  2.308483e+04 -1.006994e+04
   endloop
 endfacet
 facet normal  5.660161e-02  8.660254e-01 -4.967859e-01
   outer loop
     vertex  4.603587e+03  2.309479e+04 -1.005177e+04
     vertex  4.613814e+03  2.309433e+04 -1.005141e+04
     vertex  4.606543e+03  2.308899e+04 -1.006154e+04
   endloop
 endfacet
 facet normal  5.660161e-02  8.660254e-01 -4.967859e-01
   outer loop
     vertex  4.625187e+03  2.309405e+04 -1.005060e+04
     vertex  4.636654e+03  2.309380e+04 -1.004973e+04
     vertex  4.633376e+03  2.308811e+04 -1.006001e+04
   endloop
 endfacet
 facet normal  5.660161e-02  8.660254e-01 -4.967859e-01
   outer loop
     vertex  4.620122e+03  2.308781e+04 -1.006204e+04
     vertex  4.625187e+03  2.309405e+04 -1.005060e+04
     vertex  4.633376e+03  2.308811e+04 -1.006001e+04
   endloop
 endfacet
 facet normal  5.660161e-02  8.660254e-01 -4.967859e-01
   outer loop
     vertex  4.636654e+03  2.309380e+04 -1.004973e+04
     vertex  4.646034e+03  2.309023e+04 -1.005487e+04
     vertex  4.633376e+03  2.308811e+04 -1.006001e+04
   endloop
 endfacet
 facet normal  5.660161e-02  8.660254e-01 -4.967859e-01
   outer loop
     vertex  4.646034e+03  2.309023e+04 -1.005487e+04
     vertex  4.655573e+03  2.308652e+04 -1.006025e+04
     vertex  4.643371e+03  2.308389e+04 -1.006624e+04
   endloop
 endfacet
 facet normal  5.660161e-02  8.660254e-01 -4.967859e-01
   outer loop
     vertex  4.655573e+03  2.308652e+04 -1.006025e+04
     vertex  4.653269e+03  2.308051e+04 -1.007100e+04
     vertex  4.643371e+03  2.308389e+04 -1.006624e+04
   endloop
 endfacet
 facet normal  5.660161e-02  8.660254e-01 -4.967859e-01
   outer loop
     vertex  4.664786e+03  2.308276e+04 -1.006577e+04
     vertex  4.671695e+03  2.307945e+04 -1.007075e+04
     vertex  4.663562e+03  2.307719e+04 -1.007561e+04
   endloop
 endfacet
 facet normal  5.660161e-02  8.660254e-01 -4.967859e-01
   outer loop
     vertex  4.673931e+03  2.307492e+04 -1.007838e+04
     vertex  4.676722e+03  2.306986e+04 -1.008689e+04
     vertex  4.665756e+03  2.307180e+04 -1.008476e+04
   endloop
 endfacet
 facet normal  5.660161e-02  8.660254e-01 -4.967859e-01
   outer loop
     vertex  4.663562e+03  2.307719e+04 -1.007561e+04
     vertex  4.673931e+03  2.307492e+04 -1.007838e+04
     vertex  4.665756e+03  2.307180e+04 -1.008476e+04
   endloop
 endfacet
 facet normal  5.660161e-02  8.660254e-01 -4.967859e-01
   outer loop
     vertex  4.676722e+03  2.306986e+04 -1.008689e+04
     vertex  4.668208e+03  2.306528e+04 -1.009584e+04
     vertex  4.665756e+03  2.307180e+04 -1.008476e+04
   endloop
 endfacet
 facet normal  5.660161e-02  8.660254e-01 -4.967859e-01
   outer loop
     vertex  4.680067e+03  2.306520e+04 -1.009464e+04
     vertex  4.678990e+03  2.305999e+04 -1.010385e+04
     vertex  4.668208e+03  2.306528e+04 -1.009584e+04
   endloop
 endfacet
 facet normal  5.660161e-02  8.660254e-01 -4.967859e-01
   outer loop
     vertex  4.678822e+03  2.305352e+04 -1.011514e+04
     vertex  4.678604e+03  2.304704e+04 -1.012647e+04
     vertex  4.665718e+03  2.305186e+04 -1.011953e+04
   endloop
 endfacet
 facet normal  5.660161e-02  8.660254e-01 -4.967859e-01
   outer loop
     vertex  4.665693e+03  2.305859e+04 -1.010779e+04
     vertex  4.678822e+03  2.305352e+04 -1.011514e+04
     vertex  4.665718e+03  2.305186e+04 -1.011953e+04
   endloop
 endfacet
 facet normal  5.660161e-02  8.660254e-01 -4.967859e-01
   outer loop
     vertex  4.678604e+03  2.304704e+04 -1.012647e+04
     vertex  4.666414e+03  2.304529e+04 -1.013090e+04
     vertex  4.665718e+03  2.305186e+04 -1.011953e+04
   endloop
 endfacet
 facet normal  5.660161e-02  8.660254e-01 -4.967859e-01
   outer loop
     vertex  4.677758e+03  2.304079e+04 -1.013745e+04
     vertex  4.676032e+03  2.303465e+04 -1.014835e+04
     vertex  4.664926e+03  2.303933e+04 -1.014146e+04
   endloop
 endfacet
 facet normal  5.660161e-02  8.660254e-01 -4.967859e-01
   outer loop
     vertex  4.666414e+03  2.304529e+04 -1.013090e+04
     vertex  4.677758e+03  2.304079e+04 -1.013745e+04
     vertex  4.664926e+03  2.303933e+04 -1.014146e+04
   endloop
 endfacet
 facet normal  5.660161e-02  8.660254e-01 -4.967859e-01
   outer loop
     vertex  4.676032e+03  2.303465e+04 -1.014835e+04
     vertex  4.661863e+03  2.303357e+04 -1.015185e+04
     vertex  4.664926e+03  2.303933e+04 -1.014146e+04
   endloop
 endfacet
 facet normal  5.660161e-02  8.660254e-01 -4.967859e-01
   outer loop
     vertex  4.673527e+03  2.302830e+04 -1.015970e+04
     vertex  4.669850e+03  2.302184e+04 -1.017139e+04
     vertex  4.658181e+03  2.302723e+04 -1.016333e+04
   endloop
 endfacet
 facet normal  5.660161e-02  8.660254e-01 -4.967859e-01
   outer loop
     vertex  4.661863e+03  2.303357e+04 -1.015185e+04
     vertex  4.673527e+03  2.302830e+04 -1.015970e+04
     vertex  4.658181e+03  2.302723e+04 -1.016333e+04
   endloop
 endfacet
 facet normal  5.660161e-02  8.660254e-01 -4.967859e-01
   outer loop
     vertex  4.669850e+03  2.302184e+04 -1.017139e+04
     vertex  4.653638e+03  2.302091e+04 -1.017486e+04
     vertex  4.658181e+03  2.302723e+04 -1.016333e+04
   endloop
 endfacet
 facet normal  5.660161e-02  8.660254e-01 -4.967859e-01
   outer loop
     vertex  4.665915e+03  2.301497e+04 -1.018381e+04
     vertex  4.659856e+03  2.300747e+04 -1.019758e+04
     vertex  4.648398e+03  2.301388e+04 -1.018771e+04
   endloop
 endfacet
 facet normal  5.660161e-02  8.660254e-01 -4.967859e-01
   outer loop
     vertex  4.653638e+03  2.302091e+04 -1.017486e+04
     vertex  4.665915e+03  2.301497e+04 -1.018381e+04
     vertex  4.648398e+03  2.301388e+04 -1.018771e+04
   endloop
 endfacet
 facet normal  5.660161e-02  8.660254e-01 -4.967859e-01
   outer loop
     vertex  4.659856e+03  2.300747e+04 -1.019758e+04
     vertex  4.640081e+03  2.300710e+04 -1.020048e+04
     vertex  4.648398e+03  2.301388e+04 -1.018771e+04
   endloop
 endfacet
 facet normal  5.660161e-02  8.660254e-01 -4.967859e-01
   outer loop
     vertex  4.651792e+03  2.299928e+04 -1.021277e+04
     vertex  4.640445e+03  2.299047e+04 -1.022941e+04
     vertex  4.628078e+03  2.300006e+04 -1.021411e+04
   endloop
 endfacet
 facet normal  5.660161e-02  8.660254e-01 -4.967859e-01
   outer loop
     vertex  4.640081e+03  2.300710e+04 -1.020048e+04
     vertex  4.651792e+03  2.299928e+04 -1.021277e+04
     vertex  4.628078e+03  2.300006e+04 -1.021411e+04
   endloop
 endfacet
 facet normal  5.660161e-02  8.660254e-01 -4.967859e-01
   outer loop
     vertex  4.640445e+03  2.299047e+04 -1.022941e+04
     vertex  4.612183e+03  2.299255e+04 -1.022902e+04
     vertex  4.628078e+03  2.300006e+04 -1.021411e+04
   endloop
 endfacet
 facet normal  5.660161e-02  8.660254e-01 -4.967859e-01
   outer loop
     vertex  4.626219e+03  2.298009e+04 -1.024914e+04
     vertex  4.609951e+03  2.296834e+04 -1.027148e+04
     vertex  4.592717e+03  2.298406e+04 -1.024604e+04
   endloop
 endfacet
 facet normal  5.660161e-02  8.660254e-01 -4.967859e-01
   outer loop
     vertex  4.612183e+03  2.299255e+04 -1.022902e+04
     vertex  4.626219e+03  2.298009e+04 -1.024914e+04
     vertex  4.592717e+03  2.298406e+04 -1.024604e+04
   endloop
 endfacet
 facet normal  5.660161e-02  8.660254e-01 -4.967859e-01
   outer loop
     vertex  4.609951e+03  2.296834e+04 -1.027148e+04
     vertex  4.570573e+03  2.297207e+04 -1.026947e+04
     vertex  4.592717e+03  2.298406e+04 -1.024604e+04
   endloop
 endfacet
 facet normal  5.660161e-02  8.660254e-01 -4.967859e-01
   outer loop
     vertex  4.591143e+03  2.295326e+04 -1.029991e+04
     vertex  4.568794e+03  2.293598e+04 -1.033258e+04
     vertex  4.544465e+03  2.295805e+04 -1.029687e+04
   endloop
 endfacet
 facet normal  5.660161e-02  8.660254e-01 -4.967859e-01
   outer loop
     vertex  4.570573e+03  2.297207e+04 -1.026947e+04
     vertex  4.591143e+03  2.295326e+04 -1.029991e+04
     vertex  4.544465e+03  2.295805e+04 -1.029687e+04
   endloop
 endfacet
 facet normal  5.660161e-02  8.660254e-01 -4.967859e-01
   outer loop
     vertex  4.568794e+03  2.293598e+04 -1.033258e+04
     vertex  4.520630e+03  2.294133e+04 -1.032874e+04
     vertex  4.544465e+03  2.295805e+04 -1.029687e+04
   endloop
 endfacet
 facet normal  5.660161e-02  8.660254e-01 -4.967859e-01
   outer loop
     vertex  4.412791e+03  2.290199e+04 -1.040960e+04
     vertex  4.406702e+03  2.293553e+04 -1.035184e+04
     vertex  4.471594e+03  2.293018e+04 -1.035376e+04
   endloop
 endfacet
 facet normal  5.660161e-02  8.660254e-01 -4.967859e-01
   outer loop
     vertex  4.415839e+03  2.275450e+04 -1.066637e+04
     vertex  4.344610e+03  2.275229e+04 -1.067834e+04
     vertex  4.350913e+03  2.278162e+04 -1.062650e+04
   endloop
 endfacet
 facet normal  5.660161e-02  8.660254e-01 -4.967859e-01
   outer loop
     vertex  4.415839e+03  2.275450e+04 -1.066637e+04
     vertex  4.350913e+03  2.278162e+04 -1.062650e+04
     vertex  4.393337e+03  2.281869e+04 -1.055704e+04
   endloop
 endfacet
 facet normal  5.660161e-02  8.660254e-01 -4.967859e-01
   outer loop
     vertex  4.516092e+03  2.306417e+04 -1.011511e+04
     vertex  4.537538e+03  2.306527e+04 -1.011076e+04
     vertex  4.528911e+03  2.305441e+04 -1.013067e+04
   endloop
 endfacet
 facet normal  5.660161e-02  8.660254e-01 -4.967859e-01
   outer loop
     vertex  4.606543e+03  2.308899e+04 -1.006154e+04
     vertex  4.613814e+03  2.309433e+04 -1.005141e+04
     vertex  4.620122e+03  2.308781e+04 -1.006204e+04
   endloop
 endfacet
 facet normal  5.660161e-02  8.660254e-01 -4.967859e-01
   outer loop
     vertex  4.664786e+03  2.308276e+04 -1.006577e+04
     vertex  4.663562e+03  2.307719e+04 -1.007561e+04
     vertex  4.653269e+03  2.308051e+04 -1.007100e+04
   endloop
 endfacet
 facet normal  5.660161e-02  8.660254e-01 -4.967859e-01
   outer loop
     vertex  4.646034e+03  2.309023e+04 -1.005487e+04
     vertex  4.643371e+03  2.308389e+04 -1.006624e+04
     vertex  4.633376e+03  2.308811e+04 -1.006001e+04
   endloop
 endfacet
 facet normal  5.660161e-02  8.660254e-01 -4.967859e-01
   outer loop
     vertex  4.668208e+03  2.306528e+04 -1.009584e+04
     vertex  4.678990e+03  2.305999e+04 -1.010385e+04
     vertex  4.665693e+03  2.305859e+04 -1.010779e+04
   endloop
 endfacet
 facet normal  5.660161e-02  8.660254e-01 -4.967859e-01
   outer loop
     vertex  4.498230e+03  2.289460e+04 -1.041276e+04
     vertex  4.459578e+03  2.286210e+04 -1.047380e+04
     vertex  4.412791e+03  2.290199e+04 -1.040960e+04
   endloop
 endfacet
 facet normal  5.660161e-02  8.660254e-01 -4.967859e-01
   outer loop
     vertex  4.312548e+03  2.284921e+04 -1.051303e+04
     vertex  4.382546e+03  2.286476e+04 -1.047795e+04
     vertex  4.393337e+03  2.281869e+04 -1.055704e+04
   endloop
 endfacet
 facet normal  5.660161e-02  8.660254e-01 -4.967859e-01
   outer loop
     vertex  4.382546e+03  2.286476e+04 -1.047795e+04
     vertex  4.412791e+03  2.290199e+04 -1.040960e+04
     vertex  4.459578e+03  2.286210e+04 -1.047380e+04
   endloop
 endfacet
 facet normal  5.660161e-02  8.660254e-01 -4.967859e-01
   outer loop
     vertex  4.498230e+03  2.289460e+04 -1.041276e+04
     vertex  4.412791e+03  2.290199e+04 -1.040960e+04
     vertex  4.471594e+03  2.293018e+04 -1.035376e+04
   endloop
 endfacet
 facet normal  5.660161e-02  8.660254e-01 -4.967859e-01
   outer loop
     vertex  4.537503e+03  2.291670e+04 -1.036975e+04
     vertex  4.498230e+03  2.289460e+04 -1.041276e+04
     vertex  4.471594e+03  2.293018e+04 -1.035376e+04
   endloop
 endfacet
 facet normal  5.660161e-02  8.660254e-01 -4.967859e-01
   outer loop
     vertex  4.653269e+03  2.308051e+04 -1.007100e+04
     vertex  4.663562e+03  2.307719e+04 -1.007561e+04
     vertex  4.653739e+03  2.307462e+04 -1.008120e+04
   endloop
 endfacet
 facet normal  5.660161e-02  8.660254e-01 -4.967859e-01
   outer loop
     vertex  4.537503e+03  2.291670e+04 -1.036975e+04
     vertex  4.471594e+03  2.293018e+04 -1.035376e+04
     vertex  4.520630e+03  2.294133e+04 -1.032874e+04
   endloop
 endfacet
 facet normal  5.660161e-02  8.660254e-01 -4.967859e-01
   outer loop
     vertex  4.528911e+03  2.305441e+04 -1.013067e+04
     vertex  4.537538e+03  2.306527e+04 -1.011076e+04
     vertex  4.548823e+03  2.305567e+04 -1.012621e+04
   endloop
 endfacet
 facet normal  5.660161e-02  8.660254e-01 -4.967859e-01
   outer loop
     vertex  4.668208e+03  2.306528e+04 -1.009584e+04
     vertex  4.665693e+03  2.305859e+04 -1.010779e+04
     vertex  4.652642e+03  2.306373e+04 -1.010032e+04
   endloop
 endfacet
 facet normal  5.660161e-02  8.660254e-01 -4.967859e-01
   outer loop
     vertex  4.643371e+03  2.308389e+04 -1.006624e+04
     vertex  4.653269e+03  2.308051e+04 -1.007100e+04
     vertex  4.642048e+03  2.307762e+04 -1.007732e+04
   endloop
 endfacet
 facet normal  5.660161e-02  8.660254e-01 -4.967859e-01
   outer loop
     vertex  4.653269e+03  2.308051e+04 -1.007100e+04
     vertex  4.653739e+03  2.307462e+04 -1.008120e+04
     vertex  4.642048e+03  2.307762e+04 -1.007732e+04
   endloop
 endfacet
 facet normal  5.660161e-02  8.660254e-01 -4.967859e-01
   outer loop
     vertex  4.620122e+03  2.308781e+04 -1.006204e+04
     vertex  4.633376e+03  2.308811e+04 -1.006001e+04
     vertex  4.630222e+03  2.308182e+04 -1.007133e+04
   endloop
 endfacet
 facet normal  5.660161e-02  8.660254e-01 -4.967859e-01
   outer loop
     vertex  4.633376e+03  2.308811e+04 -1.006001e+04
     vertex  4.643371e+03  2.308389e+04 -1.006624e+04
     vertex  4.630222e+03  2.308182e+04 -1.007133e+04
   endloop
 endfacet
 facet normal  5.660161e-02  8.660254e-01 -4.967859e-01
   outer loop
     vertex  4.606543e+03  2.308899e+04 -1.006154e+04
     vertex  4.620122e+03  2.308781e+04 -1.006204e+04
     vertex  4.613299e+03  2.308054e+04 -1.007550e+04
   endloop
 endfacet
 facet normal  5.660161e-02  8.660254e-01 -4.967859e-01
   outer loop
     vertex  4.520630e+03  2.294133e+04 -1.032874e+04
     vertex  4.471594e+03  2.293018e+04 -1.035376e+04
     vertex  4.490493e+03  2.296417e+04 -1.029236e+04
   endloop
 endfacet
 facet normal  5.660161e-02  8.660254e-01 -4.967859e-01
   outer loop
     vertex  4.491254e+03  2.299080e+04 -1.024584e+04
     vertex  4.501231e+03  2.301042e+04 -1.021051e+04
     vertex  4.525221e+03  2.299653e+04 -1.023199e+04
   endloop
 endfacet
 facet normal  5.660161e-02  8.660254e-01 -4.967859e-01
   outer loop
     vertex  4.514909e+03  2.302741e+04 -1.017933e+04
     vertex  4.522632e+03  2.304236e+04 -1.015238e+04
     vertex  4.545823e+03  2.303039e+04 -1.017061e+04
   endloop
 endfacet
 facet normal  5.660161e-02  8.660254e-01 -4.967859e-01
   outer loop
     vertex  4.556972e+03  2.307706e+04 -1.008798e+04
     vertex  4.569079e+03  2.307893e+04 -1.008334e+04
     vertex  4.565915e+03  2.307067e+04 -1.009811e+04
   endloop
 endfacet
 facet normal  5.660161e-02  8.660254e-01 -4.967859e-01
   outer loop
     vertex  4.663562e+03  2.307719e+04 -1.007561e+04
     vertex  4.665756e+03  2.307180e+04 -1.008476e+04
     vertex  4.653739e+03  2.307462e+04 -1.008120e+04
   endloop
 endfacet
 facet normal  5.660161e-02  8.660254e-01 -4.967859e-01
   outer loop
     vertex  4.620122e+03  2.308781e+04 -1.006204e+04
     vertex  4.630222e+03  2.308182e+04 -1.007133e+04
     vertex  4.613299e+03  2.308054e+04 -1.007550e+04
   endloop
 endfacet
 facet normal  5.660161e-02  8.660254e-01 -4.967859e-01
   outer loop
     vertex  4.666414e+03  2.304529e+04 -1.013090e+04
     vertex  4.664926e+03  2.303933e+04 -1.014146e+04
     vertex  4.654384e+03  2.304369e+04 -1.013507e+04
   endloop
 endfacet
 facet normal  5.660161e-02  8.660254e-01 -4.967859e-01
   outer loop
     vertex  4.661863e+03  2.303357e+04 -1.015185e+04
     vertex  4.658181e+03  2.302723e+04 -1.016333e+04
     vertex  4.646101e+03  2.303317e+04 -1.015435e+04
   endloop
 endfacet
 facet normal  5.660161e-02  8.660254e-01 -4.967859e-01
   outer loop
     vertex  4.640081e+03  2.300710e+04 -1.020048e+04
     vertex  4.628078e+03  2.300006e+04 -1.021411e+04
     vertex  4.619104e+03  2.300949e+04 -1.019871e+04
   endloop
 endfacet
 facet normal  5.660161e-02  8.660254e-01 -4.967859e-01
   outer loop
     vertex  4.612183e+03  2.299255e+04 -1.022902e+04
     vertex  4.592717e+03  2.298406e+04 -1.024604e+04
     vertex  4.581179e+03  2.300271e+04 -1.021484e+04
   endloop
 endfacet
 facet normal  5.660161e-02  8.660254e-01 -4.967859e-01
   outer loop
     vertex  4.570573e+03  2.297207e+04 -1.026947e+04
     vertex  4.544465e+03  2.295805e+04 -1.029687e+04
     vertex  4.530362e+03  2.297819e+04 -1.026338e+04
   endloop
 endfacet
 facet normal  5.660161e-02  8.660254e-01 -4.967859e-01
   outer loop
     vertex  4.548823e+03  2.305567e+04 -1.012621e+04
     vertex  4.537538e+03  2.306527e+04 -1.011076e+04
     vertex  4.558325e+03  2.306289e+04 -1.011253e+04
   endloop
 endfacet
 facet normal  5.660161e-02  8.660254e-01 -4.967859e-01
   outer loop
     vertex  4.393337e+03  2.281869e+04 -1.055704e+04
     vertex  4.382546e+03  2.286476e+04 -1.047795e+04
     vertex  4.459578e+03  2.286210e+04 -1.047380e+04
   endloop
 endfacet
 facet normal  5.660161e-02  8.660254e-01 -4.967859e-01
   outer loop
     vertex  4.501231e+03  2.301042e+04 -1.021051e+04
     vertex  4.514909e+03  2.302741e+04 -1.017933e+04
     vertex  4.544183e+03  2.301184e+04 -1.020313e+04
   endloop
 endfacet
 facet normal  5.660161e-02  8.660254e-01 -4.967859e-01
   outer loop
     vertex  4.525221e+03  2.299653e+04 -1.023199e+04
     vertex  4.501231e+03  2.301042e+04 -1.021051e+04
     vertex  4.544183e+03  2.301184e+04 -1.020313e+04
   endloop
 endfacet
 facet normal  5.660161e-02  8.660254e-01 -4.967859e-01
   outer loop
     vertex  4.514909e+03  2.302741e+04 -1.017933e+04
     vertex  4.545823e+03  2.303039e+04 -1.017061e+04
     vertex  4.544183e+03  2.301184e+04 -1.020313e+04
   endloop
 endfacet
 facet normal  5.660161e-02  8.660254e-01 -4.967859e-01
   outer loop
     vertex  4.652642e+03  2.306373e+04 -1.010032e+04
     vertex  4.665693e+03  2.305859e+04 -1.010779e+04
     vertex  4.650406e+03  2.305709e+04 -1.011216e+04
   endloop
 endfacet
 facet normal  5.660161e-02  8.660254e-01 -4.967859e-01
   outer loop
     vertex  4.491254e+03  2.299080e+04 -1.024584e+04
     vertex  4.525221e+03  2.299653e+04 -1.023199e+04
     vertex  4.530362e+03  2.297819e+04 -1.026338e+04
   endloop
 endfacet
 facet normal  5.660161e-02  8.660254e-01 -4.967859e-01
   outer loop
     vertex  4.548946e+03  2.307154e+04 -1.009851e+04
     vertex  4.556972e+03  2.307706e+04 -1.008798e+04
     vertex  4.565915e+03  2.307067e+04 -1.009811e+04
   endloop
 endfacet
 facet normal  5.660161e-02  8.660254e-01 -4.967859e-01
   outer loop
     vertex  4.643371e+03  2.308389e+04 -1.006624e+04
     vertex  4.642048e+03  2.307762e+04 -1.007732e+04
     vertex  4.630222e+03  2.308182e+04 -1.007133e+04
   endloop
 endfacet
 facet normal  5.660161e-02  8.660254e-01 -4.967859e-01
   outer loop
     vertex  4.665718e+03  2.305186e+04 -1.011953e+04
     vertex  4.666414e+03  2.304529e+04 -1.013090e+04
     vertex  4.651611e+03  2.304985e+04 -1.012464e+04
   endloop
 endfacet
 facet normal  5.660161e-02  8.660254e-01 -4.967859e-01
   outer loop
     vertex  4.666414e+03  2.304529e+04 -1.013090e+04
     vertex  4.654384e+03  2.304369e+04 -1.013507e+04
     vertex  4.651611e+03  2.304985e+04 -1.012464e+04
   endloop
 endfacet
 facet normal  5.660161e-02  8.660254e-01 -4.967859e-01
   outer loop
     vertex  4.544465e+03  2.295805e+04 -1.029687e+04
     vertex  4.520630e+03  2.294133e+04 -1.032874e+04
     vertex  4.490493e+03  2.296417e+04 -1.029236e+04
   endloop
 endfacet
 facet normal  5.660161e-02  8.660254e-01 -4.967859e-01
   outer loop
     vertex  4.628078e+03  2.300006e+04 -1.021411e+04
     vertex  4.612183e+03  2.299255e+04 -1.022902e+04
     vertex  4.606431e+03  2.300386e+04 -1.020995e+04
   endloop
 endfacet
 facet normal  5.660161e-02  8.660254e-01 -4.967859e-01
   outer loop
     vertex  4.612183e+03  2.299255e+04 -1.022902e+04
     vertex  4.581179e+03  2.300271e+04 -1.021484e+04
     vertex  4.606431e+03  2.300386e+04 -1.020995e+04
   endloop
 endfacet
 facet normal  5.660161e-02  8.660254e-01 -4.967859e-01
   outer loop
     vertex  4.648398e+03  2.301388e+04 -1.018771e+04
     vertex  4.640081e+03  2.300710e+04 -1.020048e+04
     vertex  4.631401e+03  2.301397e+04 -1.018948e+04
   endloop
 endfacet
 facet normal  5.660161e-02  8.660254e-01 -4.967859e-01
   outer loop
     vertex  4.640081e+03  2.300710e+04 -1.020048e+04
     vertex  4.619104e+03  2.300949e+04 -1.019871e+04
     vertex  4.631401e+03  2.301397e+04 -1.018948e+04
   endloop
 endfacet
 facet normal  5.660161e-02  8.660254e-01 -4.967859e-01
   outer loop
     vertex  4.664926e+03  2.303933e+04 -1.014146e+04
     vertex  4.661863e+03  2.303357e+04 -1.015185e+04
     vertex  4.649960e+03  2.303893e+04 -1.014385e+04
   endloop
 endfacet
 facet normal  5.660161e-02  8.660254e-01 -4.967859e-01
   outer loop
     vertex  4.654384e+03  2.304369e+04 -1.013507e+04
     vertex  4.664926e+03  2.303933e+04 -1.014146e+04
     vertex  4.649960e+03  2.303893e+04 -1.014385e+04
   endloop
 endfacet
 facet normal  5.660161e-02  8.660254e-01 -4.967859e-01
   outer loop
     vertex  4.661863e+03  2.303357e+04 -1.015185e+04
     vertex  4.646101e+03  2.303317e+04 -1.015435e+04
     vertex  4.649960e+03  2.303893e+04 -1.014385e+04
   endloop
 endfacet
 facet normal  5.660161e-02  8.660254e-01 -4.967859e-01
   outer loop
     vertex  4.665693e+03  2.305859e+04 -1.010779e+04
     vertex  4.665718e+03  2.305186e+04 -1.011953e+04
     vertex  4.650406e+03  2.305709e+04 -1.011216e+04
   endloop
 endfacet
 facet normal  5.660161e-02  8.660254e-01 -4.967859e-01
   outer loop
     vertex  4.606543e+03  2.308899e+04 -1.006154e+04
     vertex  4.613299e+03  2.308054e+04 -1.007550e+04
     vertex  4.596436e+03  2.308483e+04 -1.006994e+04
   endloop
 endfacet
 facet normal  5.660161e-02  8.660254e-01 -4.967859e-01
   outer loop
     vertex  4.522632e+03  2.304236e+04 -1.015238e+04
     vertex  4.528911e+03  2.305441e+04 -1.013067e+04
     vertex  4.548318e+03  2.304473e+04 -1.014534e+04
   endloop
 endfacet
 facet normal  5.660161e-02  8.660254e-01 -4.967859e-01
   outer loop
     vertex  4.545823e+03  2.303039e+04 -1.017061e+04
     vertex  4.522632e+03  2.304236e+04 -1.015238e+04
     vertex  4.548318e+03  2.304473e+04 -1.014534e+04
   endloop
 endfacet
 facet normal  5.660161e-02  8.660254e-01 -4.967859e-01
   outer loop
     vertex  4.528911e+03  2.305441e+04 -1.013067e+04
     vertex  4.548823e+03  2.305567e+04 -1.012621e+04
     vertex  4.548318e+03  2.304473e+04 -1.014534e+04
   endloop
 endfacet
 facet normal  5.660161e-02  8.660254e-01 -4.967859e-01
   outer loop
     vertex  4.558325e+03  2.306289e+04 -1.011253e+04
     vertex  4.537538e+03  2.306527e+04 -1.011076e+04
     vertex  4.548946e+03  2.307154e+04 -1.009851e+04
   endloop
 endfacet
 facet normal  5.660161e-02  8.660254e-01 -4.967859e-01
   outer loop
     vertex  4.570573e+03  2.297207e+04 -1.026947e+04
     vertex  4.530362e+03  2.297819e+04 -1.026338e+04
     vertex  4.557969e+03  2.299085e+04 -1.023816e+04
   endloop
 endfacet
 facet normal  5.660161e-02  8.660254e-01 -4.967859e-01
   outer loop
     vertex  4.592717e+03  2.298406e+04 -1.024604e+04
     vertex  4.570573e+03  2.297207e+04 -1.026947e+04
     vertex  4.557969e+03  2.299085e+04 -1.023816e+04
   endloop
 endfacet
 facet normal  5.660161e-02  8.660254e-01 -4.967859e-01
   outer loop
     vertex  4.530362e+03  2.297819e+04 -1.026338e+04
     vertex  4.525221e+03  2.299653e+04 -1.023199e+04
     vertex  4.557969e+03  2.299085e+04 -1.023816e+04
   endloop
 endfacet
 facet normal  5.660161e-02  8.660254e-01 -4.967859e-01
   outer loop
     vertex  4.491254e+03  2.299080e+04 -1.024584e+04
     vertex  4.530362e+03  2.297819e+04 -1.026338e+04
     vertex  4.490493e+03  2.296417e+04 -1.029236e+04
   endloop
 endfacet
 facet normal  5.660161e-02  8.660254e-01 -4.967859e-01
   outer loop
     vertex  4.652642e+03  2.306373e+04 -1.010032e+04
     vertex  4.650406e+03  2.305709e+04 -1.011216e+04
     vertex  4.633526e+03  2.306427e+04 -1.010157e+04
   endloop
 endfacet
 facet normal  5.660161e-02  8.660254e-01 -4.967859e-01
   outer loop
     vertex  4.630222e+03  2.308182e+04 -1.007133e+04
     vertex  4.642048e+03  2.307762e+04 -1.007732e+04
     vertex  4.629282e+03  2.307414e+04 -1.008483e+04
   endloop
 endfacet
 facet normal  5.660161e-02  8.660254e-01 -4.967859e-01
   outer loop
     vertex  4.583139e+03  2.308161e+04 -1.007707e+04
     vertex  4.596436e+03  2.308483e+04 -1.006994e+04
     vertex  4.599082e+03  2.307626e+04 -1.008459e+04
   endloop
 endfacet
 facet normal  5.660161e-02  8.660254e-01 -4.967859e-01
   outer loop
     vertex  4.596436e+03  2.308483e+04 -1.006994e+04
     vertex  4.613299e+03  2.308054e+04 -1.007550e+04
     vertex  4.599082e+03  2.307626e+04 -1.008459e+04
   endloop
 endfacet
 facet normal  5.660161e-02  8.660254e-01 -4.967859e-01
   outer loop
     vertex  4.530362e+03  2.297819e+04 -1.026338e+04
     vertex  4.544465e+03  2.295805e+04 -1.029687e+04
     vertex  4.490493e+03  2.296417e+04 -1.029236e+04
   endloop
 endfacet
 facet normal  5.660161e-02  8.660254e-01 -4.967859e-01
   outer loop
     vertex  4.646101e+03  2.303317e+04 -1.015435e+04
     vertex  4.658181e+03  2.302723e+04 -1.016333e+04
     vertex  4.640976e+03  2.302712e+04 -1.016547e+04
   endloop
 endfacet
 facet normal  5.660161e-02  8.660254e-01 -4.967859e-01
   outer loop
     vertex  4.658181e+03  2.302723e+04 -1.016333e+04
     vertex  4.653638e+03  2.302091e+04 -1.017486e+04
     vertex  4.640976e+03  2.302712e+04 -1.016547e+04
   endloop
 endfacet
 facet normal  5.660161e-02  8.660254e-01 -4.967859e-01
   outer loop
     vertex  4.565915e+03  2.307067e+04 -1.009811e+04
     vertex  4.569079e+03  2.307893e+04 -1.008334e+04
     vertex  4.582488e+03  2.307255e+04 -1.009294e+04
   endloop
 endfacet
 facet normal  5.660161e-02  8.660254e-01 -4.967859e-01
   outer loop
     vertex  4.569079e+03  2.307893e+04 -1.008334e+04
     vertex  4.583139e+03  2.308161e+04 -1.007707e+04
     vertex  4.582488e+03  2.307255e+04 -1.009294e+04
   endloop
 endfacet
 facet normal  5.660161e-02  8.660254e-01 -4.967859e-01
   outer loop
     vertex  4.650406e+03  2.305709e+04 -1.011216e+04
     vertex  4.665718e+03  2.305186e+04 -1.011953e+04
     vertex  4.651611e+03  2.304985e+04 -1.012464e+04
   endloop
 endfacet
 facet normal  5.660161e-02  8.660254e-01 -4.967859e-01
   outer loop
     vertex  4.653638e+03  2.302091e+04 -1.017486e+04
     vertex  4.648398e+03  2.301388e+04 -1.018771e+04
     vertex  4.635015e+03  2.302091e+04 -1.017698e+04
   endloop
 endfacet
 facet normal  5.660161e-02  8.660254e-01 -4.967859e-01
   outer loop
     vertex  4.640976e+03  2.302712e+04 -1.016547e+04
     vertex  4.653638e+03  2.302091e+04 -1.017486e+04
     vertex  4.635015e+03  2.302091e+04 -1.017698e+04
   endloop
 endfacet
 facet normal  5.660161e-02  8.660254e-01 -4.967859e-01
   outer loop
     vertex  4.648398e+03  2.301388e+04 -1.018771e+04
     vertex  4.631401e+03  2.301397e+04 -1.018948e+04
     vertex  4.635015e+03  2.302091e+04 -1.017698e+04
   endloop
 endfacet
 facet normal  5.660161e-02  8.660254e-01 -4.967859e-01
   outer loop
     vertex  4.548823e+03  2.305567e+04 -1.012621e+04
     vertex  4.558325e+03  2.306289e+04 -1.011253e+04
     vertex  4.571148e+03  2.305112e+04 -1.013160e+04
   endloop
 endfacet
 facet normal  5.660161e-02  8.660254e-01 -4.967859e-01
   outer loop
     vertex  4.646101e+03  2.303317e+04 -1.015435e+04
     vertex  4.640976e+03  2.302712e+04 -1.016547e+04
     vertex  4.630619e+03  2.303306e+04 -1.015630e+04
   endloop
 endfacet
 facet normal  5.660161e-02  8.660254e-01 -4.967859e-01
   outer loop
     vertex  4.581179e+03  2.300271e+04 -1.021484e+04
     vertex  4.592717e+03  2.298406e+04 -1.024604e+04
     vertex  4.557969e+03  2.299085e+04 -1.023816e+04
   endloop
 endfacet
 facet normal  5.660161e-02  8.660254e-01 -4.967859e-01
   outer loop
     vertex  4.619104e+03  2.300949e+04 -1.019871e+04
     vertex  4.628078e+03  2.300006e+04 -1.021411e+04
     vertex  4.606431e+03  2.300386e+04 -1.020995e+04
   endloop
 endfacet
 facet normal  5.660161e-02  8.660254e-01 -4.967859e-01
   outer loop
     vertex  4.548946e+03  2.307154e+04 -1.009851e+04
     vertex  4.565915e+03  2.307067e+04 -1.009811e+04
     vertex  4.558325e+03  2.306289e+04 -1.011253e+04
   endloop
 endfacet
 facet normal  5.660161e-02  8.660254e-01 -4.967859e-01
   outer loop
     vertex  4.665756e+03  2.307180e+04 -1.008476e+04
     vertex  4.668208e+03  2.306528e+04 -1.009584e+04
     vertex  4.656454e+03  2.306900e+04 -1.009070e+04
   endloop
 endfacet
 facet normal  5.660161e-02  8.660254e-01 -4.967859e-01
   outer loop
     vertex  4.653739e+03  2.307462e+04 -1.008120e+04
     vertex  4.665756e+03  2.307180e+04 -1.008476e+04
     vertex  4.656454e+03  2.306900e+04 -1.009070e+04
   endloop
 endfacet
 facet normal  5.660161e-02  8.660254e-01 -4.967859e-01
   outer loop
     vertex  4.668208e+03  2.306528e+04 -1.009584e+04
     vertex  4.652642e+03  2.306373e+04 -1.010032e+04
     vertex  4.656454e+03  2.306900e+04 -1.009070e+04
   endloop
 endfacet
 facet normal  5.660161e-02  8.660254e-01 -4.967859e-01
   outer loop
     vertex  4.613299e+03  2.308054e+04 -1.007550e+04
     vertex  4.630222e+03  2.308182e+04 -1.007133e+04
     vertex  4.629282e+03  2.307414e+04 -1.008483e+04
   endloop
 endfacet
 facet normal  5.660161e-02  8.660254e-01 -4.967859e-01
   outer loop
     vertex  4.558325e+03  2.306289e+04 -1.011253e+04
     vertex  4.565915e+03  2.307067e+04 -1.009811e+04
     vertex  4.578427e+03  2.306254e+04 -1.011085e+04
   endloop
 endfacet
 facet normal  5.660161e-02  8.660254e-01 -4.967859e-01
   outer loop
     vertex  4.571148e+03  2.305112e+04 -1.013160e+04
     vertex  4.558325e+03  2.306289e+04 -1.011253e+04
     vertex  4.578427e+03  2.306254e+04 -1.011085e+04
   endloop
 endfacet
 facet normal  5.660161e-02  8.660254e-01 -4.967859e-01
   outer loop
     vertex  4.565915e+03  2.307067e+04 -1.009811e+04
     vertex  4.582488e+03  2.307255e+04 -1.009294e+04
     vertex  4.578427e+03  2.306254e+04 -1.011085e+04
   endloop
 endfacet
 facet normal  5.660161e-02  8.660254e-01 -4.967859e-01
   outer loop
     vertex  4.583139e+03  2.308161e+04 -1.007707e+04
     vertex  4.599082e+03  2.307626e+04 -1.008459e+04
     vertex  4.582488e+03  2.307255e+04 -1.009294e+04
   endloop
 endfacet
 facet normal  5.660161e-02  8.660254e-01 -4.967859e-01
   outer loop
     vertex  4.599082e+03  2.307626e+04 -1.008459e+04
     vertex  4.613299e+03  2.308054e+04 -1.007550e+04
     vertex  4.615044e+03  2.307004e+04 -1.009360e+04
   endloop
 endfacet
 facet normal  5.660161e-02  8.660254e-01 -4.967859e-01
   outer loop
     vertex  4.613299e+03  2.308054e+04 -1.007550e+04
     vertex  4.629282e+03  2.307414e+04 -1.008483e+04
     vertex  4.615044e+03  2.307004e+04 -1.009360e+04
   endloop
 endfacet
 facet normal  5.660161e-02  8.660254e-01 -4.967859e-01
   outer loop
     vertex  4.582488e+03  2.307255e+04 -1.009294e+04
     vertex  4.599082e+03  2.307626e+04 -1.008459e+04
     vertex  4.598718e+03  2.306551e+04 -1.010337e+04
   endloop
 endfacet
 facet normal  5.660161e-02  8.660254e-01 -4.967859e-01
   outer loop
     vertex  4.599082e+03  2.307626e+04 -1.008459e+04
     vertex  4.615044e+03  2.307004e+04 -1.009360e+04
     vertex  4.598718e+03  2.306551e+04 -1.010337e+04
   endloop
 endfacet
 facet normal  5.660161e-02  8.660254e-01 -4.967859e-01
   outer loop
     vertex  4.619104e+03  2.300949e+04 -1.019871e+04
     vertex  4.606431e+03  2.300386e+04 -1.020995e+04
     vertex  4.596762e+03  2.301456e+04 -1.019240e+04
   endloop
 endfacet
 facet normal  5.660161e-02  8.660254e-01 -4.967859e-01
   outer loop
     vertex  4.557969e+03  2.299085e+04 -1.023816e+04
     vertex  4.525221e+03  2.299653e+04 -1.023199e+04
     vertex  4.544183e+03  2.301184e+04 -1.020313e+04
   endloop
 endfacet
 facet normal  5.660161e-02  8.660254e-01 -4.967859e-01
   outer loop
     vertex  4.654384e+03  2.304369e+04 -1.013507e+04
     vertex  4.649960e+03  2.303893e+04 -1.014385e+04
     vertex  4.639653e+03  2.304567e+04 -1.013329e+04
   endloop
 endfacet
 facet normal  5.660161e-02  8.660254e-01 -4.967859e-01
   outer loop
     vertex  4.630619e+03  2.303306e+04 -1.015630e+04
     vertex  4.640976e+03  2.302712e+04 -1.016547e+04
     vertex  4.621123e+03  2.302778e+04 -1.016659e+04
   endloop
 endfacet
 facet normal  5.660161e-02  8.660254e-01 -4.967859e-01
   outer loop
     vertex  4.640976e+03  2.302712e+04 -1.016547e+04
     vertex  4.635015e+03  2.302091e+04 -1.017698e+04
     vertex  4.621123e+03  2.302778e+04 -1.016659e+04
   endloop
 endfacet
 facet normal  5.660161e-02  8.660254e-01 -4.967859e-01
   outer loop
     vertex  4.548823e+03  2.305567e+04 -1.012621e+04
     vertex  4.571148e+03  2.305112e+04 -1.013160e+04
     vertex  4.548318e+03  2.304473e+04 -1.014534e+04
   endloop
 endfacet
 facet normal  5.660161e-02  8.660254e-01 -4.967859e-01
   outer loop
     vertex  4.654384e+03  2.304369e+04 -1.013507e+04
     vertex  4.639653e+03  2.304567e+04 -1.013329e+04
     vertex  4.651611e+03  2.304985e+04 -1.012464e+04
   endloop
 endfacet
 facet normal  5.660161e-02  8.660254e-01 -4.967859e-01
   outer loop
     vertex  4.581179e+03  2.300271e+04 -1.021484e+04
     vertex  4.557969e+03  2.299085e+04 -1.023816e+04
     vertex  4.544183e+03  2.301184e+04 -1.020313e+04
   endloop
 endfacet
 facet normal  5.660161e-02  8.660254e-01 -4.967859e-01
   outer loop
     vertex  4.642048e+03  2.307762e+04 -1.007732e+04
     vertex  4.653739e+03  2.307462e+04 -1.008120e+04
     vertex  4.643925e+03  2.307062e+04 -1.008931e+04
   endloop
 endfacet
 facet normal  5.660161e-02  8.660254e-01 -4.967859e-01
   outer loop
     vertex  4.578427e+03  2.306254e+04 -1.011085e+04
     vertex  4.582488e+03  2.307255e+04 -1.009294e+04
     vertex  4.598718e+03  2.306551e+04 -1.010337e+04
   endloop
 endfacet
 facet normal  5.660161e-02  8.660254e-01 -4.967859e-01
   outer loop
     vertex  4.653739e+03  2.307462e+04 -1.008120e+04
     vertex  4.656454e+03  2.306900e+04 -1.009070e+04
     vertex  4.643925e+03  2.307062e+04 -1.008931e+04
   endloop
 endfacet
 facet normal  5.660161e-02  8.660254e-01 -4.967859e-01
   outer loop
     vertex  4.629282e+03  2.307414e+04 -1.008483e+04
     vertex  4.642048e+03  2.307762e+04 -1.007732e+04
     vertex  4.643925e+03  2.307062e+04 -1.008931e+04
   endloop
 endfacet
 facet normal  5.660161e-02  8.660254e-01 -4.967859e-01
   outer loop
     vertex  4.649960e+03  2.303893e+04 -1.014385e+04
     vertex  4.646101e+03  2.303317e+04 -1.015435e+04
     vertex  4.632404e+03  2.303992e+04 -1.014414e+04
   endloop
 endfacet
 facet normal  5.660161e-02  8.660254e-01 -4.967859e-01
   outer loop
     vertex  4.639653e+03  2.304567e+04 -1.013329e+04
     vertex  4.649960e+03  2.303893e+04 -1.014385e+04
     vertex  4.632404e+03  2.303992e+04 -1.014414e+04
   endloop
 endfacet
 facet normal  5.660161e-02  8.660254e-01 -4.967859e-01
   outer loop
     vertex  4.646101e+03  2.303317e+04 -1.015435e+04
     vertex  4.630619e+03  2.303306e+04 -1.015630e+04
     vertex  4.632404e+03  2.303992e+04 -1.014414e+04
   endloop
 endfacet
 facet normal  5.660161e-02  8.660254e-01 -4.967859e-01
   outer loop
     vertex  4.545823e+03  2.303039e+04 -1.017061e+04
     vertex  4.548318e+03  2.304473e+04 -1.014534e+04
     vertex  4.571941e+03  2.303664e+04 -1.015674e+04
   endloop
 endfacet
 facet normal  5.660161e-02  8.660254e-01 -4.967859e-01
   outer loop
     vertex  4.650406e+03  2.305709e+04 -1.011216e+04
     vertex  4.651611e+03  2.304985e+04 -1.012464e+04
     vertex  4.633598e+03  2.305400e+04 -1.011945e+04
   endloop
 endfacet
 facet normal  5.660161e-02  8.660254e-01 -4.967859e-01
   outer loop
     vertex  4.651611e+03  2.304985e+04 -1.012464e+04
     vertex  4.639653e+03  2.304567e+04 -1.013329e+04
     vertex  4.633598e+03  2.305400e+04 -1.011945e+04
   endloop
 endfacet
 facet normal  5.660161e-02  8.660254e-01 -4.967859e-01
   outer loop
     vertex  4.650406e+03  2.305709e+04 -1.011216e+04
     vertex  4.633598e+03  2.305400e+04 -1.011945e+04
     vertex  4.633526e+03  2.306427e+04 -1.010157e+04
   endloop
 endfacet
 facet normal  5.660161e-02  8.660254e-01 -4.967859e-01
   outer loop
     vertex  4.571148e+03  2.305112e+04 -1.013160e+04
     vertex  4.578427e+03  2.306254e+04 -1.011085e+04
     vertex  4.596900e+03  2.305427e+04 -1.012317e+04
   endloop
 endfacet
 facet normal  5.660161e-02  8.660254e-01 -4.967859e-01
   outer loop
     vertex  4.578427e+03  2.306254e+04 -1.011085e+04
     vertex  4.598718e+03  2.306551e+04 -1.010337e+04
     vertex  4.596900e+03  2.305427e+04 -1.012317e+04
   endloop
 endfacet
 facet normal  5.660161e-02  8.660254e-01 -4.967859e-01
   outer loop
     vertex  4.615044e+03  2.307004e+04 -1.009360e+04
     vertex  4.629282e+03  2.307414e+04 -1.008483e+04
     vertex  4.633526e+03  2.306427e+04 -1.010157e+04
   endloop
 endfacet
 facet normal  5.660161e-02  8.660254e-01 -4.967859e-01
   outer loop
     vertex  4.598718e+03  2.306551e+04 -1.010337e+04
     vertex  4.615044e+03  2.307004e+04 -1.009360e+04
     vertex  4.615657e+03  2.305939e+04 -1.011210e+04
   endloop
 endfacet
 facet normal  5.660161e-02  8.660254e-01 -4.967859e-01
   outer loop
     vertex  4.596900e+03  2.305427e+04 -1.012317e+04
     vertex  4.598718e+03  2.306551e+04 -1.010337e+04
     vertex  4.615657e+03  2.305939e+04 -1.011210e+04
   endloop
 endfacet
 facet normal  5.660161e-02  8.660254e-01 -4.967859e-01
   outer loop
     vertex  4.615044e+03  2.307004e+04 -1.009360e+04
     vertex  4.633526e+03  2.306427e+04 -1.010157e+04
     vertex  4.615657e+03  2.305939e+04 -1.011210e+04
   endloop
 endfacet
 facet normal  5.660161e-02  8.660254e-01 -4.967859e-01
   outer loop
     vertex  4.571941e+03  2.303664e+04 -1.015674e+04
     vertex  4.548318e+03  2.304473e+04 -1.014534e+04
     vertex  4.571148e+03  2.305112e+04 -1.013160e+04
   endloop
 endfacet
 facet normal  5.660161e-02  8.660254e-01 -4.967859e-01
   outer loop
     vertex  4.619104e+03  2.300949e+04 -1.019871e+04
     vertex  4.596762e+03  2.301456e+04 -1.019240e+04
     vertex  4.615111e+03  2.301959e+04 -1.018155e+04
   endloop
 endfacet
 facet normal  5.660161e-02  8.660254e-01 -4.967859e-01
   outer loop
     vertex  4.545823e+03  2.303039e+04 -1.017061e+04
     vertex  4.571941e+03  2.303664e+04 -1.015674e+04
     vertex  4.572126e+03  2.302049e+04 -1.018487e+04
   endloop
 endfacet
 facet normal  5.660161e-02  8.660254e-01 -4.967859e-01
   outer loop
     vertex  4.571941e+03  2.303664e+04 -1.015674e+04
     vertex  4.571148e+03  2.305112e+04 -1.013160e+04
     vertex  4.594851e+03  2.304259e+04 -1.014376e+04
   endloop
 endfacet
 facet normal  5.660161e-02  8.660254e-01 -4.967859e-01
   outer loop
     vertex  4.571148e+03  2.305112e+04 -1.013160e+04
     vertex  4.596900e+03  2.305427e+04 -1.012317e+04
     vertex  4.594851e+03  2.304259e+04 -1.014376e+04
   endloop
 endfacet
 facet normal  5.660161e-02  8.660254e-01 -4.967859e-01
   outer loop
     vertex  4.652642e+03  2.306373e+04 -1.010032e+04
     vertex  4.633526e+03  2.306427e+04 -1.010157e+04
     vertex  4.643925e+03  2.307062e+04 -1.008931e+04
   endloop
 endfacet
 facet normal  5.660161e-02  8.660254e-01 -4.967859e-01
   outer loop
     vertex  4.656454e+03  2.306900e+04 -1.009070e+04
     vertex  4.652642e+03  2.306373e+04 -1.010032e+04
     vertex  4.643925e+03  2.307062e+04 -1.008931e+04
   endloop
 endfacet
 facet normal  5.660161e-02  8.660254e-01 -4.967859e-01
   outer loop
     vertex  4.544183e+03  2.301184e+04 -1.020313e+04
     vertex  4.545823e+03  2.303039e+04 -1.017061e+04
     vertex  4.572126e+03  2.302049e+04 -1.018487e+04
   endloop
 endfacet
 facet normal  5.660161e-02  8.660254e-01 -4.967859e-01
   outer loop
     vertex  4.581179e+03  2.300271e+04 -1.021484e+04
     vertex  4.544183e+03  2.301184e+04 -1.020313e+04
     vertex  4.572126e+03  2.302049e+04 -1.018487e+04
   endloop
 endfacet
 facet normal  5.660161e-02  8.660254e-01 -4.967859e-01
   outer loop
     vertex  4.633598e+03  2.305400e+04 -1.011945e+04
     vertex  4.639653e+03  2.304567e+04 -1.013329e+04
     vertex  4.618124e+03  2.304751e+04 -1.013252e+04
   endloop
 endfacet
 facet normal  5.660161e-02  8.660254e-01 -4.967859e-01
   outer loop
     vertex  4.633526e+03  2.306427e+04 -1.010157e+04
     vertex  4.633598e+03  2.305400e+04 -1.011945e+04
     vertex  4.615657e+03  2.305939e+04 -1.011210e+04
   endloop
 endfacet
 facet normal  5.660161e-02  8.660254e-01 -4.967859e-01
   outer loop
     vertex  4.633526e+03  2.306427e+04 -1.010157e+04
     vertex  4.629282e+03  2.307414e+04 -1.008483e+04
     vertex  4.643925e+03  2.307062e+04 -1.008931e+04
   endloop
 endfacet
 facet normal  5.660161e-02  8.660254e-01 -4.967859e-01
   outer loop
     vertex  4.615111e+03  2.301959e+04 -1.018155e+04
     vertex  4.596762e+03  2.301456e+04 -1.019240e+04
     vertex  4.597491e+03  2.302863e+04 -1.016779e+04
   endloop
 endfacet
 facet normal  5.660161e-02  8.660254e-01 -4.967859e-01
   outer loop
     vertex  4.572126e+03  2.302049e+04 -1.018487e+04
     vertex  4.571941e+03  2.303664e+04 -1.015674e+04
     vertex  4.597491e+03  2.302863e+04 -1.016779e+04
   endloop
 endfacet
 facet normal  5.660161e-02  8.660254e-01 -4.967859e-01
   outer loop
     vertex  4.597491e+03  2.302863e+04 -1.016779e+04
     vertex  4.571941e+03  2.303664e+04 -1.015674e+04
     vertex  4.594851e+03  2.304259e+04 -1.014376e+04
   endloop
 endfacet
 facet normal  5.660161e-02  8.660254e-01 -4.967859e-01
   outer loop
     vertex  4.639653e+03  2.304567e+04 -1.013329e+04
     vertex  4.632404e+03  2.303992e+04 -1.014414e+04
     vertex  4.618124e+03  2.304751e+04 -1.013252e+04
   endloop
 endfacet
 facet normal  5.660161e-02  8.660254e-01 -4.967859e-01
   outer loop
     vertex  4.572126e+03  2.302049e+04 -1.018487e+04
     vertex  4.597491e+03  2.302863e+04 -1.016779e+04
     vertex  4.596762e+03  2.301456e+04 -1.019240e+04
   endloop
 endfacet
 facet normal  5.660161e-02  8.660254e-01 -4.967859e-01
   outer loop
     vertex  4.581179e+03  2.300271e+04 -1.021484e+04
     vertex  4.572126e+03  2.302049e+04 -1.018487e+04
     vertex  4.596762e+03  2.301456e+04 -1.019240e+04
   endloop
 endfacet
 facet normal  5.660161e-02  8.660254e-01 -4.967859e-01
   outer loop
     vertex  4.635015e+03  2.302091e+04 -1.017698e+04
     vertex  4.631401e+03  2.301397e+04 -1.018948e+04
     vertex  4.615111e+03  2.301959e+04 -1.018155e+04
   endloop
 endfacet
 facet normal  5.660161e-02  8.660254e-01 -4.967859e-01
   outer loop
     vertex  4.635015e+03  2.302091e+04 -1.017698e+04
     vertex  4.615111e+03  2.301959e+04 -1.018155e+04
     vertex  4.621123e+03  2.302778e+04 -1.016659e+04
   endloop
 endfacet
 facet normal  5.660161e-02  8.660254e-01 -4.967859e-01
   outer loop
     vertex  4.633598e+03  2.305400e+04 -1.011945e+04
     vertex  4.618124e+03  2.304751e+04 -1.013252e+04
     vertex  4.615657e+03  2.305939e+04 -1.011210e+04
   endloop
 endfacet
 facet normal  5.660161e-02  8.660254e-01 -4.967859e-01
   outer loop
     vertex  4.632404e+03  2.303992e+04 -1.014414e+04
     vertex  4.630619e+03  2.303306e+04 -1.015630e+04
     vertex  4.614507e+03  2.303707e+04 -1.015113e+04
   endloop
 endfacet
 facet normal  5.660161e-02  8.660254e-01 -4.967859e-01
   outer loop
     vertex  4.618124e+03  2.304751e+04 -1.013252e+04
     vertex  4.632404e+03  2.303992e+04 -1.014414e+04
     vertex  4.614507e+03  2.303707e+04 -1.015113e+04
   endloop
 endfacet
 facet normal  5.660161e-02  8.660254e-01 -4.967859e-01
   outer loop
     vertex  4.630619e+03  2.303306e+04 -1.015630e+04
     vertex  4.621123e+03  2.302778e+04 -1.016659e+04
     vertex  4.614507e+03  2.303707e+04 -1.015113e+04
   endloop
 endfacet
 facet normal  5.660161e-02  8.660254e-01 -4.967859e-01
   outer loop
     vertex  4.631401e+03  2.301397e+04 -1.018948e+04
     vertex  4.619104e+03  2.300949e+04 -1.019871e+04
     vertex  4.615111e+03  2.301959e+04 -1.018155e+04
   endloop
 endfacet
 facet normal  5.660161e-02  8.660254e-01 -4.967859e-01
   outer loop
     vertex  4.596900e+03  2.305427e+04 -1.012317e+04
     vertex  4.615657e+03  2.305939e+04 -1.011210e+04
     vertex  4.618124e+03  2.304751e+04 -1.013252e+04
   endloop
 endfacet
 facet normal  5.660161e-02  8.660254e-01 -4.967859e-01
   outer loop
     vertex  4.594851e+03  2.304259e+04 -1.014376e+04
     vertex  4.596900e+03  2.305427e+04 -1.012317e+04
     vertex  4.618124e+03  2.304751e+04 -1.013252e+04
   endloop
 endfacet
 facet normal  5.660161e-02  8.660254e-01 -4.967859e-01
   outer loop
     vertex  4.594851e+03  2.304259e+04 -1.014376e+04
     vertex  4.618124e+03  2.304751e+04 -1.013252e+04
     vertex  4.614507e+03  2.303707e+04 -1.015113e+04
   endloop
 endfacet
 facet normal  5.660161e-02  8.660254e-01 -4.967859e-01
   outer loop
     vertex  4.597491e+03  2.302863e+04 -1.016779e+04
     vertex  4.594851e+03  2.304259e+04 -1.014376e+04
     vertex  4.614507e+03  2.303707e+04 -1.015113e+04
   endloop
 endfacet
 facet normal  5.660161e-02  8.660254e-01 -4.967859e-01
   outer loop
     vertex  4.621123e+03  2.302778e+04 -1.016659e+04
     vertex  4.615111e+03  2.301959e+04 -1.018155e+04
     vertex  4.597491e+03  2.302863e+04 -1.016779e+04
   endloop
 endfacet
 facet normal  5.660161e-02  8.660254e-01 -4.967859e-01
   outer loop
     vertex  4.581179e+03  2.300271e+04 -1.021484e+04
     vertex  4.596762e+03  2.301456e+04 -1.019240e+04
     vertex  4.606431e+03  2.300386e+04 -1.020995e+04
   endloop
 endfacet
 facet normal  5.660161e-02  8.660254e-01 -4.967859e-01
   outer loop
     vertex  4.614507e+03  2.303707e+04 -1.015113e+04
     vertex  4.621123e+03  2.302778e+04 -1.016659e+04
     vertex  4.597491e+03  2.302863e+04 -1.016779e+04
   endloop
 endfacet
endsolid
