solid
 facet normal -1.132032e-01 -8.073856e-09  9.935719e-01
   outer loop
     vertex  3.054768e+02 -8.728424e+02  2.770302e+04
     vertex  2.847728e+02 -8.366440e+02  2.770066e+04
     vertex  2.597446e+02 -8.719982e+02  2.769781e+04
   endloop
 endfacet
 facet normal -1.132032e-01 -8.792482e-09  9.935719e-01
   outer loop
     vertex  2.562465e+02 -7.891324e+02  2.769741e+04
     vertex  2.213224e+02 -7.331963e+02  2.769343e+04
     vertex  1.985580e+02 -7.874301e+02  2.769084e+04
   endloop
 endfacet
 facet normal -1.132032e-01 -8.490701e-09  9.935719e-01
   outer loop
     vertex  1.883409e+02 -6.821395e+02  2.768967e+04
     vertex  1.469879e+02 -6.202817e+02  2.768496e+04
     vertex  1.128087e+02 -7.020694e+02  2.768107e+04
   endloop
 endfacet
 facet normal -1.132032e-01 -8.079470e-09  9.935719e-01
   outer loop
     vertex  9.370120e+01 -5.425931e+02  2.767889e+04
     vertex  5.100427e+01 -4.806737e+02  2.767402e+04
     vertex  6.894227e+00 -5.598775e+02  2.766900e+04
   endloop
 endfacet
 facet normal -1.132032e-01 -8.492238e-09  9.935719e-01
   outer loop
     vertex  5.100427e+01 -4.806737e+02  2.767402e+04
     vertex  9.924077e+00 -4.218727e+02  2.766934e+04
     vertex -7.425833e+01 -5.077205e+02  2.765975e+04
   endloop
 endfacet
 facet normal -1.132032e-01 -8.360826e-09  9.935719e-01
   outer loop
     vertex -6.633487e+01 -3.124502e+02  2.766066e+04
     vertex -1.053281e+02 -2.616161e+02  2.765621e+04
     vertex -1.017371e+02 -3.280575e+02  2.765662e+04
   endloop
 endfacet
 facet normal -1.132032e-01 -7.923622e-09  9.935719e-01
   outer loop
     vertex -7.425833e+01 -5.077205e+02  2.765975e+04
     vertex -5.931659e+01 -5.775424e+02  2.766145e+04
     vertex  6.894227e+00 -5.598775e+02  2.766900e+04
   endloop
 endfacet
 facet normal -1.132032e-01 -9.036165e-09  9.935719e-01
   outer loop
     vertex -5.931659e+01 -5.775424e+02  2.766145e+04
     vertex -4.054638e+01 -6.527368e+02  2.766359e+04
     vertex  6.894227e+00 -5.598775e+02  2.766900e+04
   endloop
 endfacet
 facet normal -1.132032e-01 -8.382604e-09  9.935719e-01
   outer loop
     vertex -4.054638e+01 -6.527368e+02  2.766359e+04
     vertex -1.440318e+01 -7.409366e+02  2.766657e+04
     vertex  3.759506e+01 -6.944144e+02  2.767250e+04
   endloop
 endfacet
 facet normal -1.132032e-01 -8.289755e-09  9.935719e-01
   outer loop
     vertex  1.318808e+01 -8.193752e+02  2.766972e+04
     vertex  4.118519e+01 -8.865088e+02  2.767291e+04
     vertex  7.833079e+01 -8.321107e+02  2.767714e+04
   endloop
 endfacet
 facet normal -1.132032e-01 -8.655609e-09  9.935719e-01
   outer loop
     vertex  6.724274e+01 -9.391850e+02  2.767587e+04
     vertex  9.174586e+01 -9.817450e+02  2.767867e+04
     vertex  1.173029e+02 -9.375186e+02  2.768158e+04
   endloop
 endfacet
 facet normal -1.132032e-01 -8.551060e-09  9.935719e-01
   outer loop
     vertex  1.167449e+02 -1.019412e+03  2.768151e+04
     vertex  1.378332e+02 -1.047332e+03  2.768392e+04
     vertex  1.516124e+02 -1.014330e+03  2.768549e+04
   endloop
 endfacet
 facet normal -1.132032e-01 -8.339404e-09  9.935719e-01
   outer loop
     vertex  1.574737e+02 -1.070538e+03  2.768615e+04
     vertex  1.754903e+02 -1.089617e+03  2.768821e+04
     vertex  1.802685e+02 -1.065674e+03  2.768875e+04
   endloop
 endfacet
 facet normal -1.132032e-01 -7.879382e-09  9.935719e-01
   outer loop
     vertex  1.909353e+02 -1.104353e+03  2.768997e+04
     vertex  2.056311e+02 -1.117015e+03  2.769164e+04
     vertex  2.069015e+02 -1.097920e+03  2.769179e+04
   endloop
 endfacet
 facet normal -1.132032e-01 -9.743330e-09  9.935719e-01
   outer loop
     vertex  2.176227e+02 -1.126376e+03  2.769301e+04
     vertex  2.286584e+02 -1.134224e+03  2.769427e+04
     vertex  2.282411e+02 -1.120764e+03  2.769422e+04
   endloop
 endfacet
 facet normal -1.132032e-01 -7.727336e-09  9.935719e-01
   outer loop
     vertex  2.392118e+02 -1.141039e+03  2.769547e+04
     vertex  2.505061e+02 -1.147563e+03  2.769675e+04
     vertex  2.504784e+02 -1.134110e+03  2.769675e+04
   endloop
 endfacet
 facet normal -1.132032e-01 -8.069602e-09  9.935719e-01
   outer loop
     vertex  2.642335e+02 -1.154349e+03  2.769832e+04
     vertex  2.790988e+02 -1.160178e+03  2.770001e+04
     vertex  2.757434e+02 -1.144092e+03  2.769963e+04
   endloop
 endfacet
 facet normal -1.132032e-01 -1.022522e-08  9.935719e-01
   outer loop
     vertex  2.929812e+02 -1.164090e+03  2.770159e+04
     vertex  3.059331e+02 -1.166219e+03  2.770307e+04
     vertex  3.012655e+02 -1.152974e+03  2.770254e+04
   endloop
 endfacet
 facet normal -1.132032e-01 -7.483708e-09  9.935719e-01
   outer loop
     vertex  3.196387e+02 -1.166507e+03  2.770463e+04
     vertex  3.338041e+02 -1.164173e+03  2.770625e+04
     vertex  3.237612e+02 -1.154041e+03  2.770510e+04
   endloop
 endfacet
 facet normal -1.132032e-01 -7.424205e-09  9.935719e-01
   outer loop
     vertex  3.455903e+02 -1.159653e+03  2.770759e+04
     vertex  3.560863e+02 -1.152884e+03  2.770878e+04
     vertex  3.460721e+02 -1.146417e+03  2.770764e+04
   endloop
 endfacet
 facet normal -1.132032e-01 -8.711399e-09  9.935719e-01
   outer loop
     vertex  3.648585e+02 -1.144143e+03  2.770978e+04
     vertex  3.719506e+02 -1.133437e+03  2.771059e+04
     vertex  3.602979e+02 -1.133261e+03  2.770926e+04
   endloop
 endfacet
 facet normal -1.132032e-01 -7.864130e-09  9.935719e-01
   outer loop
     vertex  3.761209e+02 -1.124084e+03  2.771107e+04
     vertex  3.791487e+02 -1.113883e+03  2.771141e+04
     vertex  3.672142e+02 -1.115986e+03  2.771005e+04
   endloop
 endfacet
 facet normal -1.132032e-01 -9.158473e-09  9.935719e-01
   outer loop
     vertex  3.811059e+02 -1.102496e+03  2.771163e+04
     vertex  3.819018e+02 -1.091635e+03  2.771173e+04
     vertex  3.725509e+02 -1.095901e+03  2.771066e+04
   endloop
 endfacet
 facet normal -1.132032e-01 -9.514411e-09  9.935719e-01
   outer loop
     vertex  3.816475e+02 -1.076232e+03  2.771170e+04
     vertex  3.801043e+02 -1.061074e+03  2.771152e+04
     vertex  3.683683e+02 -1.071342e+03  2.771018e+04
   endloop
 endfacet
 facet normal -1.132032e-01 -9.494085e-09  9.935719e-01
   outer loop
     vertex  3.778154e+02 -1.047509e+03  2.771126e+04
     vertex  3.751152e+02 -1.035190e+03  2.771095e+04
     vertex  3.650207e+02 -1.044276e+03  2.770980e+04
   endloop
 endfacet
 facet normal -1.132032e-01 -6.506662e-09  9.935719e-01
   outer loop
     vertex  3.716522e+02 -1.021975e+03  2.771056e+04
     vertex  3.677051e+02 -1.008900e+03  2.771011e+04
     vertex  3.562015e+02 -1.019133e+03  2.770880e+04
   endloop
 endfacet
 facet normal -1.132032e-01 -8.989156e-09  9.935719e-01
   outer loop
     vertex  3.630331e+02 -9.951210e+02  2.770958e+04
     vertex  3.565619e+02 -9.779766e+02  2.770884e+04
     vertex  3.432005e+02 -9.909291e+02  2.770732e+04
   endloop
 endfacet
 facet normal -1.132032e-01 -7.690208e-09  9.935719e-01
   outer loop
     vertex  3.471586e+02 -9.555761e+02  2.770777e+04
     vertex  3.354699e+02 -9.303165e+02  2.770644e+04
     vertex  3.185128e+02 -9.530938e+02  2.770450e+04
   endloop
 endfacet
 facet normal -1.132032e-01 -9.149184e-09  9.935719e-01
   outer loop
     vertex  3.216272e+02 -9.027890e+02  2.770486e+04
     vertex  3.054768e+02 -8.728424e+02  2.770302e+04
     vertex  2.831329e+02 -9.038614e+02  2.770047e+04
   endloop
 endfacet
 facet normal -1.132032e-01 -8.758883e-09  9.935719e-01
   outer loop
     vertex  3.054768e+02 -8.728424e+02  2.770302e+04
     vertex  2.597446e+02 -8.719982e+02  2.769781e+04
     vertex  2.831329e+02 -9.038614e+02  2.770047e+04
   endloop
 endfacet
 facet normal -1.132032e-01 -8.424990e-09  9.935719e-01
   outer loop
     vertex -6.633487e+01 -3.124502e+02  2.766066e+04
     vertex -1.017371e+02 -3.280575e+02  2.765662e+04
     vertex -6.809504e+01 -3.606592e+02  2.766045e+04
   endloop
 endfacet
 facet normal -1.132032e-01 -8.405399e-09  9.935719e-01
   outer loop
     vertex -3.054893e+01 -3.640661e+02  2.766473e+04
     vertex -6.633487e+01 -3.124502e+02  2.766066e+04
     vertex -6.809504e+01 -3.606592e+02  2.766045e+04
   endloop
 endfacet
 facet normal -1.132032e-01 -8.836126e-09  9.935719e-01
   outer loop
     vertex -1.017371e+02 -3.280575e+02  2.765662e+04
     vertex -9.431559e+01 -3.857695e+02  2.765747e+04
     vertex -6.809504e+01 -3.606592e+02  2.766045e+04
   endloop
 endfacet
 facet normal -1.132032e-01 -8.166100e-09  9.935719e-01
   outer loop
     vertex  2.562465e+02 -7.891324e+02  2.769741e+04
     vertex  1.985580e+02 -7.874301e+02  2.769084e+04
     vertex  2.300640e+02 -8.321130e+02  2.769443e+04
   endloop
 endfacet
 facet normal -1.132032e-01 -7.981316e-09  9.935719e-01
   outer loop
     vertex  2.847728e+02 -8.366440e+02  2.770066e+04
     vertex  2.562465e+02 -7.891324e+02  2.769741e+04
     vertex  2.300640e+02 -8.321130e+02  2.769443e+04
   endloop
 endfacet
 facet normal -1.132032e-01 -8.589861e-09  9.935719e-01
   outer loop
     vertex  2.213224e+02 -7.331963e+02  2.769343e+04
     vertex  1.883409e+02 -6.821395e+02  2.768967e+04
     vertex  1.695908e+02 -7.395301e+02  2.768754e+04
   endloop
 endfacet
 facet normal -1.132032e-01 -8.191014e-09  9.935719e-01
   outer loop
     vertex  1.469879e+02 -6.202817e+02  2.768496e+04
     vertex  9.370120e+01 -5.425931e+02  2.767889e+04
     vertex  6.021144e+01 -6.264730e+02  2.767507e+04
   endloop
 endfacet
 facet normal -1.132032e-01 -8.225523e-09  9.935719e-01
   outer loop
     vertex  5.100427e+01 -4.806737e+02  2.767402e+04
     vertex -7.425833e+01 -5.077205e+02  2.765975e+04
     vertex  6.894227e+00 -5.598775e+02  2.766900e+04
   endloop
 endfacet
 facet normal -1.132032e-01 -8.306337e-09  9.935719e-01
   outer loop
     vertex  6.021144e+01 -6.264730e+02  2.767507e+04
     vertex  9.370120e+01 -5.425931e+02  2.767889e+04
     vertex  6.894227e+00 -5.598775e+02  2.766900e+04
   endloop
 endfacet
 facet normal -1.132032e-01 -8.193252e-09  9.935719e-01
   outer loop
     vertex  9.924077e+00 -4.218727e+02  2.766934e+04
     vertex -3.054893e+01 -3.640661e+02  2.766473e+04
     vertex -4.627433e+01 -4.168568e+02  2.766294e+04
   endloop
 endfacet
 facet normal -1.132032e-01 -8.553191e-09  9.935719e-01
   outer loop
     vertex  2.213224e+02 -7.331963e+02  2.769343e+04
     vertex  1.695908e+02 -7.395301e+02  2.768754e+04
     vertex  1.985580e+02 -7.874301e+02  2.769084e+04
   endloop
 endfacet
 facet normal -1.132032e-01 -8.668282e-09  9.935719e-01
   outer loop
     vertex -9.431559e+01 -3.857695e+02  2.765747e+04
     vertex -8.474417e+01 -4.487421e+02  2.765856e+04
     vertex -4.627433e+01 -4.168568e+02  2.766294e+04
   endloop
 endfacet
 facet normal -1.132032e-01 -8.042956e-09  9.935719e-01
   outer loop
     vertex -1.440318e+01 -7.409366e+02  2.766657e+04
     vertex  1.318808e+01 -8.193752e+02  2.766972e+04
     vertex  6.317753e+01 -7.655674e+02  2.767541e+04
   endloop
 endfacet
 facet normal -1.132032e-01 -8.374810e-09  9.935719e-01
   outer loop
     vertex  4.118519e+01 -8.865088e+02  2.767291e+04
     vertex  6.724274e+01 -9.391850e+02  2.767587e+04
     vertex  9.805133e+01 -8.906319e+02  2.767938e+04
   endloop
 endfacet
 facet normal -1.132032e-01 -8.696175e-09  9.935719e-01
   outer loop
     vertex  9.174586e+01 -9.817450e+02  2.767867e+04
     vertex  1.167449e+02 -1.019412e+03  2.768151e+04
     vertex  1.347180e+02 -9.801093e+02  2.768356e+04
   endloop
 endfacet
 facet normal -1.132032e-01 -8.133140e-09  9.935719e-01
   outer loop
     vertex  1.378332e+02 -1.047332e+03  2.768392e+04
     vertex  1.574737e+02 -1.070538e+03  2.768615e+04
     vertex  1.663850e+02 -1.041756e+03  2.768717e+04
   endloop
 endfacet
 facet normal -1.132032e-01 -7.219689e-09  9.935719e-01
   outer loop
     vertex  1.754903e+02 -1.089617e+03  2.768821e+04
     vertex  1.909353e+02 -1.104353e+03  2.768997e+04
     vertex  1.941920e+02 -1.083658e+03  2.769034e+04
   endloop
 endfacet
 facet normal -1.132032e-01 -8.972491e-09  9.935719e-01
   outer loop
     vertex  2.056311e+02 -1.117015e+03  2.769164e+04
     vertex  2.176227e+02 -1.126376e+03  2.769301e+04
     vertex  2.182388e+02 -1.110431e+03  2.769308e+04
   endloop
 endfacet
 facet normal -1.132032e-01 -8.244979e-09  9.935719e-01
   outer loop
     vertex  2.286584e+02 -1.134224e+03  2.769427e+04
     vertex  2.392118e+02 -1.141039e+03  2.769547e+04
     vertex  2.391686e+02 -1.128595e+03  2.769546e+04
   endloop
 endfacet
 facet normal -1.132032e-01 -8.835612e-09  9.935719e-01
   outer loop
     vertex  2.505061e+02 -1.147563e+03  2.769675e+04
     vertex  2.642335e+02 -1.154349e+03  2.769832e+04
     vertex  2.624299e+02 -1.138913e+03  2.769811e+04
   endloop
 endfacet
 facet normal -1.132032e-01 -8.810543e-09  9.935719e-01
   outer loop
     vertex  2.790988e+02 -1.160178e+03  2.770001e+04
     vertex  2.929812e+02 -1.164090e+03  2.770159e+04
     vertex  2.887935e+02 -1.149018e+03  2.770112e+04
   endloop
 endfacet
 facet normal -1.132032e-01 -9.703866e-09  9.935719e-01
   outer loop
     vertex  3.059331e+02 -1.166219e+03  2.770307e+04
     vertex  3.196387e+02 -1.166507e+03  2.770463e+04
     vertex  3.121774e+02 -1.156843e+03  2.770378e+04
   endloop
 endfacet
 facet normal -1.132032e-01 -6.966844e-09  9.935719e-01
   outer loop
     vertex  3.338041e+02 -1.164173e+03  2.770625e+04
     vertex  3.455903e+02 -1.159653e+03  2.770759e+04
     vertex  3.355322e+02 -1.150887e+03  2.770644e+04
   endloop
 endfacet
 facet normal -1.132032e-01 -4.925525e-09  9.935719e-01
   outer loop
     vertex  3.560863e+02 -1.152884e+03  2.770878e+04
     vertex  3.648585e+02 -1.144143e+03  2.770978e+04
     vertex  3.551499e+02 -1.142138e+03  2.770868e+04
   endloop
 endfacet
 facet normal -1.132032e-01 -7.652378e-09  9.935719e-01
   outer loop
     vertex  3.719506e+02 -1.133437e+03  2.771059e+04
     vertex  3.761209e+02 -1.124084e+03  2.771107e+04
     vertex  3.659270e+02 -1.125399e+03  2.770991e+04
   endloop
 endfacet
 facet normal -1.132032e-01 -1.148972e-08  9.935719e-01
   outer loop
     vertex  3.791487e+02 -1.113883e+03  2.771141e+04
     vertex  3.811059e+02 -1.102496e+03  2.771163e+04
     vertex  3.696437e+02 -1.105557e+03  2.771033e+04
   endloop
 endfacet
 facet normal -1.132032e-01 -6.176210e-09  9.935719e-01
   outer loop
     vertex  3.819018e+02 -1.091635e+03  2.771173e+04
     vertex  3.816475e+02 -1.076232e+03  2.771170e+04
     vertex  3.700194e+02 -1.084690e+03  2.771037e+04
   endloop
 endfacet
 facet normal -1.132032e-01 -9.291485e-09  9.935719e-01
   outer loop
     vertex  3.801043e+02 -1.061074e+03  2.771152e+04
     vertex  3.778154e+02 -1.047509e+03  2.771126e+04
     vertex  3.676860e+02 -1.057151e+03  2.771011e+04
   endloop
 endfacet
 facet normal -1.132032e-01 -9.351178e-09  9.935719e-01
   outer loop
     vertex  3.751152e+02 -1.035190e+03  2.771095e+04
     vertex  3.716522e+02 -1.021975e+03  2.771056e+04
     vertex  3.604405e+02 -1.031968e+03  2.770928e+04
   endloop
 endfacet
 facet normal -1.132032e-01 -7.939786e-09  9.935719e-01
   outer loop
     vertex  3.677051e+02 -1.008900e+03  2.771011e+04
     vertex  3.630331e+02 -9.951210e+02  2.770958e+04
     vertex  3.510766e+02 -1.005654e+03  2.770821e+04
   endloop
 endfacet
 facet normal -1.132032e-01 -8.311982e-09  9.935719e-01
   outer loop
     vertex  3.565619e+02 -9.779766e+02  2.770884e+04
     vertex  3.471586e+02 -9.555761e+02  2.770777e+04
     vertex  3.323574e+02 -9.734658e+02  2.770608e+04
   endloop
 endfacet
 facet normal -1.132032e-01 -8.377436e-09  9.935719e-01
   outer loop
     vertex  3.216272e+02 -9.027890e+02  2.770486e+04
     vertex  2.831329e+02 -9.038614e+02  2.770047e+04
     vertex  3.012420e+02 -9.300702e+02  2.770254e+04
   endloop
 endfacet
 facet normal -1.132032e-01 -8.712686e-09  9.935719e-01
   outer loop
     vertex  3.354699e+02 -9.303165e+02  2.770644e+04
     vertex  3.216272e+02 -9.027890e+02  2.770486e+04
     vertex  3.012420e+02 -9.300702e+02  2.770254e+04
   endloop
 endfacet
 facet normal -1.132032e-01 -8.405702e-09  9.935719e-01
   outer loop
     vertex  2.597446e+02 -8.719982e+02  2.769781e+04
     vertex  2.847728e+02 -8.366440e+02  2.770066e+04
     vertex  2.300640e+02 -8.321130e+02  2.769443e+04
   endloop
 endfacet
 facet normal -1.132032e-01 -8.502232e-09  9.935719e-01
   outer loop
     vertex  1.128087e+02 -7.020694e+02  2.768107e+04
     vertex  1.469879e+02 -6.202817e+02  2.768496e+04
     vertex  6.021144e+01 -6.264730e+02  2.767507e+04
   endloop
 endfacet
 facet normal -1.132032e-01 -8.299346e-09  9.935719e-01
   outer loop
     vertex  7.833079e+01 -8.321107e+02  2.767714e+04
     vertex  4.118519e+01 -8.865088e+02  2.767291e+04
     vertex  9.805133e+01 -8.906319e+02  2.767938e+04
   endloop
 endfacet
 facet normal -1.132032e-01 -8.455895e-09  9.935719e-01
   outer loop
     vertex  1.173029e+02 -9.375186e+02  2.768158e+04
     vertex  9.174586e+01 -9.817450e+02  2.767867e+04
     vertex  1.347180e+02 -9.801093e+02  2.768356e+04
   endloop
 endfacet
 facet normal -1.132032e-01 -8.575161e-09  9.935719e-01
   outer loop
     vertex  1.516124e+02 -1.014330e+03  2.768549e+04
     vertex  1.378332e+02 -1.047332e+03  2.768392e+04
     vertex  1.663850e+02 -1.041756e+03  2.768717e+04
   endloop
 endfacet
 facet normal -1.132032e-01 -8.327003e-09  9.935719e-01
   outer loop
     vertex  1.802685e+02 -1.065674e+03  2.768875e+04
     vertex  1.754903e+02 -1.089617e+03  2.768821e+04
     vertex  1.941920e+02 -1.083658e+03  2.769034e+04
   endloop
 endfacet
 facet normal -1.132032e-01 -7.836484e-09  9.935719e-01
   outer loop
     vertex  2.069015e+02 -1.097920e+03  2.769179e+04
     vertex  2.056311e+02 -1.117015e+03  2.769164e+04
     vertex  2.182388e+02 -1.110431e+03  2.769308e+04
   endloop
 endfacet
 facet normal -1.132032e-01 -9.771206e-09  9.935719e-01
   outer loop
     vertex  2.282411e+02 -1.120764e+03  2.769422e+04
     vertex  2.286584e+02 -1.134224e+03  2.769427e+04
     vertex  2.391686e+02 -1.128595e+03  2.769546e+04
   endloop
 endfacet
 facet normal -1.132032e-01 -7.726292e-09  9.935719e-01
   outer loop
     vertex  2.504784e+02 -1.134110e+03  2.769675e+04
     vertex  2.505061e+02 -1.147563e+03  2.769675e+04
     vertex  2.624299e+02 -1.138913e+03  2.769811e+04
   endloop
 endfacet
 facet normal -1.132032e-01 -7.804276e-09  9.935719e-01
   outer loop
     vertex  2.757434e+02 -1.144092e+03  2.769963e+04
     vertex  2.790988e+02 -1.160178e+03  2.770001e+04
     vertex  2.887935e+02 -1.149018e+03  2.770112e+04
   endloop
 endfacet
 facet normal -1.132032e-01 -1.089026e-08  9.935719e-01
   outer loop
     vertex  3.012655e+02 -1.152974e+03  2.770254e+04
     vertex  3.059331e+02 -1.166219e+03  2.770307e+04
     vertex  3.121774e+02 -1.156843e+03  2.770378e+04
   endloop
 endfacet
 facet normal -1.132032e-01 -6.900209e-09  9.935719e-01
   outer loop
     vertex  3.237612e+02 -1.154041e+03  2.770510e+04
     vertex  3.338041e+02 -1.164173e+03  2.770625e+04
     vertex  3.355322e+02 -1.150887e+03  2.770644e+04
   endloop
 endfacet
 facet normal -1.132032e-01 -5.159758e-09  9.935719e-01
   outer loop
     vertex  3.460721e+02 -1.146417e+03  2.770764e+04
     vertex  3.560863e+02 -1.152884e+03  2.770878e+04
     vertex  3.551499e+02 -1.142138e+03  2.770868e+04
   endloop
 endfacet
 facet normal -1.132032e-01 -8.521588e-09  9.935719e-01
   outer loop
     vertex  3.602979e+02 -1.133261e+03  2.770926e+04
     vertex  3.719506e+02 -1.133437e+03  2.771059e+04
     vertex  3.659270e+02 -1.125399e+03  2.770991e+04
   endloop
 endfacet
 facet normal -1.132032e-01 -8.925035e-09  9.935719e-01
   outer loop
     vertex  3.672142e+02 -1.115986e+03  2.771005e+04
     vertex  3.791487e+02 -1.113883e+03  2.771141e+04
     vertex  3.696437e+02 -1.105557e+03  2.771033e+04
   endloop
 endfacet
 facet normal -1.132032e-01 -8.788348e-09  9.935719e-01
   outer loop
     vertex  3.725509e+02 -1.095901e+03  2.771066e+04
     vertex  3.819018e+02 -1.091635e+03  2.771173e+04
     vertex  3.700194e+02 -1.084690e+03  2.771037e+04
   endloop
 endfacet
 facet normal -1.132032e-01 -8.395901e-09  9.935719e-01
   outer loop
     vertex  3.683683e+02 -1.071342e+03  2.771018e+04
     vertex  3.801043e+02 -1.061074e+03  2.771152e+04
     vertex  3.676860e+02 -1.057151e+03  2.771011e+04
   endloop
 endfacet
 facet normal -1.132032e-01 -9.041389e-09  9.935719e-01
   outer loop
     vertex  3.650207e+02 -1.044276e+03  2.770980e+04
     vertex  3.751152e+02 -1.035190e+03  2.771095e+04
     vertex  3.604405e+02 -1.031968e+03  2.770928e+04
   endloop
 endfacet
 facet normal -1.132032e-01 -8.367273e-09  9.935719e-01
   outer loop
     vertex  3.562015e+02 -1.019133e+03  2.770880e+04
     vertex  3.677051e+02 -1.008900e+03  2.771011e+04
     vertex  3.510766e+02 -1.005654e+03  2.770821e+04
   endloop
 endfacet
 facet normal -1.132032e-01 -8.539239e-09  9.935719e-01
   outer loop
     vertex  3.432005e+02 -9.909291e+02  2.770732e+04
     vertex  3.565619e+02 -9.779766e+02  2.770884e+04
     vertex  3.323574e+02 -9.734658e+02  2.770608e+04
   endloop
 endfacet
 facet normal -1.132032e-01 -8.036381e-09  9.935719e-01
   outer loop
     vertex  3.185128e+02 -9.530938e+02  2.770450e+04
     vertex  3.354699e+02 -9.303165e+02  2.770644e+04
     vertex  3.012420e+02 -9.300702e+02  2.770254e+04
   endloop
 endfacet
 facet normal -1.132032e-01 -8.309455e-09  9.935719e-01
   outer loop
     vertex  1.663850e+02 -1.041756e+03  2.768717e+04
     vertex  1.574737e+02 -1.070538e+03  2.768615e+04
     vertex  1.802685e+02 -1.065674e+03  2.768875e+04
   endloop
 endfacet
 facet normal -1.132032e-01 -7.431760e-09  9.935719e-01
   outer loop
     vertex  1.941920e+02 -1.083658e+03  2.769034e+04
     vertex  1.909353e+02 -1.104353e+03  2.768997e+04
     vertex  2.069015e+02 -1.097920e+03  2.769179e+04
   endloop
 endfacet
 facet normal -1.132032e-01 -8.905410e-09  9.935719e-01
   outer loop
     vertex  2.182388e+02 -1.110431e+03  2.769308e+04
     vertex  2.176227e+02 -1.126376e+03  2.769301e+04
     vertex  2.282411e+02 -1.120764e+03  2.769422e+04
   endloop
 endfacet
 facet normal -1.132032e-01 -8.238444e-09  9.935719e-01
   outer loop
     vertex  2.391686e+02 -1.128595e+03  2.769546e+04
     vertex  2.392118e+02 -1.141039e+03  2.769547e+04
     vertex  2.504784e+02 -1.134110e+03  2.769675e+04
   endloop
 endfacet
 facet normal -1.132032e-01 -8.987960e-09  9.935719e-01
   outer loop
     vertex  2.624299e+02 -1.138913e+03  2.769811e+04
     vertex  2.642335e+02 -1.154349e+03  2.769832e+04
     vertex  2.757434e+02 -1.144092e+03  2.769963e+04
   endloop
 endfacet
 facet normal -1.132032e-01 -9.271412e-09  9.935719e-01
   outer loop
     vertex  2.887935e+02 -1.149018e+03  2.770112e+04
     vertex  2.929812e+02 -1.164090e+03  2.770159e+04
     vertex  3.012655e+02 -1.152974e+03  2.770254e+04
   endloop
 endfacet
 facet normal -1.132032e-01 -7.759889e-09  9.935719e-01
   outer loop
     vertex  3.121774e+02 -1.156843e+03  2.770378e+04
     vertex  3.196387e+02 -1.166507e+03  2.770463e+04
     vertex  3.237612e+02 -1.154041e+03  2.770510e+04
   endloop
 endfacet
 facet normal -1.132032e-01 -7.519420e-09  9.935719e-01
   outer loop
     vertex  3.355322e+02 -1.150887e+03  2.770644e+04
     vertex  3.455903e+02 -1.159653e+03  2.770759e+04
     vertex  3.460721e+02 -1.146417e+03  2.770764e+04
   endloop
 endfacet
 facet normal -1.132032e-01 -8.620465e-09  9.935719e-01
   outer loop
     vertex  3.551499e+02 -1.142138e+03  2.770868e+04
     vertex  3.648585e+02 -1.144143e+03  2.770978e+04
     vertex  3.602979e+02 -1.133261e+03  2.770926e+04
   endloop
 endfacet
 facet normal -1.132032e-01 -8.587225e-09  9.935719e-01
   outer loop
     vertex  3.659270e+02 -1.125399e+03  2.770991e+04
     vertex  3.761209e+02 -1.124084e+03  2.771107e+04
     vertex  3.672142e+02 -1.115986e+03  2.771005e+04
   endloop
 endfacet
 facet normal -1.132032e-01 -8.137083e-09  9.935719e-01
   outer loop
     vertex  3.696437e+02 -1.105557e+03  2.771033e+04
     vertex  3.811059e+02 -1.102496e+03  2.771163e+04
     vertex  3.725509e+02 -1.095901e+03  2.771066e+04
   endloop
 endfacet
 facet normal -1.132032e-01 -8.232589e-09  9.935719e-01
   outer loop
     vertex  3.700194e+02 -1.084690e+03  2.771037e+04
     vertex  3.816475e+02 -1.076232e+03  2.771170e+04
     vertex  3.683683e+02 -1.071342e+03  2.771018e+04
   endloop
 endfacet
 facet normal -1.132032e-01 -8.620500e-09  9.935719e-01
   outer loop
     vertex  3.676860e+02 -1.057151e+03  2.771011e+04
     vertex  3.778154e+02 -1.047509e+03  2.771126e+04
     vertex  3.650207e+02 -1.044276e+03  2.770980e+04
   endloop
 endfacet
 facet normal -1.132032e-01 -9.071974e-09  9.935719e-01
   outer loop
     vertex  3.604405e+02 -1.031968e+03  2.770928e+04
     vertex  3.716522e+02 -1.021975e+03  2.771056e+04
     vertex  3.562015e+02 -1.019133e+03  2.770880e+04
   endloop
 endfacet
 facet normal -1.132032e-01 -8.194905e-09  9.935719e-01
   outer loop
     vertex  3.510766e+02 -1.005654e+03  2.770821e+04
     vertex  3.630331e+02 -9.951210e+02  2.770958e+04
     vertex  3.432005e+02 -9.909291e+02  2.770732e+04
   endloop
 endfacet
 facet normal -1.132032e-01 -8.428942e-09  9.935719e-01
   outer loop
     vertex  3.323574e+02 -9.734658e+02  2.770608e+04
     vertex  3.471586e+02 -9.555761e+02  2.770777e+04
     vertex  3.185128e+02 -9.530938e+02  2.770450e+04
   endloop
 endfacet
 facet normal -1.132032e-01 -8.626895e-09  9.935719e-01
   outer loop
     vertex  1.695908e+02 -7.395301e+02  2.768754e+04
     vertex  1.883409e+02 -6.821395e+02  2.768967e+04
     vertex  1.128087e+02 -7.020694e+02  2.768107e+04
   endloop
 endfacet
 facet normal -1.132032e-01 -8.585497e-09  9.935719e-01
   outer loop
     vertex  1.347180e+02 -9.801093e+02  2.768356e+04
     vertex  1.167449e+02 -1.019412e+03  2.768151e+04
     vertex  1.516124e+02 -1.014330e+03  2.768549e+04
   endloop
 endfacet
 facet normal -1.132032e-01 -8.318907e-09  9.935719e-01
   outer loop
     vertex  9.805133e+01 -8.906319e+02  2.767938e+04
     vertex  6.724274e+01 -9.391850e+02  2.767587e+04
     vertex  1.173029e+02 -9.375186e+02  2.768158e+04
   endloop
 endfacet
 facet normal -1.132032e-01 -8.332572e-09  9.935719e-01
   outer loop
     vertex  6.317753e+01 -7.655674e+02  2.767541e+04
     vertex  1.318808e+01 -8.193752e+02  2.766972e+04
     vertex  7.833079e+01 -8.321107e+02  2.767714e+04
   endloop
 endfacet
 facet normal -1.132032e-01 -8.461457e-09  9.935719e-01
   outer loop
     vertex -1.440318e+01 -7.409366e+02  2.766657e+04
     vertex  6.317753e+01 -7.655674e+02  2.767541e+04
     vertex  3.759506e+01 -6.944144e+02  2.767250e+04
   endloop
 endfacet
 facet normal -1.132032e-01 -8.385917e-09  9.935719e-01
   outer loop
     vertex  1.347180e+02 -9.801093e+02  2.768356e+04
     vertex  1.516124e+02 -1.014330e+03  2.768549e+04
     vertex  1.711755e+02 -9.833713e+02  2.768772e+04
   endloop
 endfacet
 facet normal -1.132032e-01 -8.385824e-09  9.935719e-01
   outer loop
     vertex  7.833079e+01 -8.321107e+02  2.767714e+04
     vertex  9.805133e+01 -8.906319e+02  2.767938e+04
     vertex  1.283390e+02 -8.485302e+02  2.768284e+04
   endloop
 endfacet
 facet normal -1.132032e-01 -8.258850e-09  9.935719e-01
   outer loop
     vertex -4.627433e+01 -4.168568e+02  2.766294e+04
     vertex -3.054893e+01 -3.640661e+02  2.766473e+04
     vertex -6.809504e+01 -3.606592e+02  2.766045e+04
   endloop
 endfacet
 facet normal -1.132032e-01 -8.385820e-09  9.935719e-01
   outer loop
     vertex  1.985580e+02 -7.874301e+02  2.769084e+04
     vertex  1.695908e+02 -7.395301e+02  2.768754e+04
     vertex  1.317719e+02 -7.894407e+02  2.768323e+04
   endloop
 endfacet
 facet normal -1.132032e-01 -8.385895e-09  9.935719e-01
   outer loop
     vertex  2.300640e+02 -8.321130e+02  2.769443e+04
     vertex  1.985580e+02 -7.874301e+02  2.769084e+04
     vertex  1.765451e+02 -8.367251e+02  2.768833e+04
   endloop
 endfacet
 facet normal -1.132032e-01 -8.385835e-09  9.935719e-01
   outer loop
     vertex  1.173029e+02 -9.375186e+02  2.768158e+04
     vertex  1.347180e+02 -9.801093e+02  2.768356e+04
     vertex  1.587530e+02 -9.443161e+02  2.768630e+04
   endloop
 endfacet
 facet normal -1.132032e-01 -8.385902e-09  9.935719e-01
   outer loop
     vertex  6.317753e+01 -7.655674e+02  2.767541e+04
     vertex  7.833079e+01 -8.321107e+02  2.767714e+04
     vertex  1.317719e+02 -7.894407e+02  2.768323e+04
   endloop
 endfacet
 facet normal -1.132032e-01 -8.385869e-09  9.935719e-01
   outer loop
     vertex  9.805133e+01 -8.906319e+02  2.767938e+04
     vertex  1.173029e+02 -9.375186e+02  2.768158e+04
     vertex  1.545739e+02 -8.938740e+02  2.768582e+04
   endloop
 endfacet
 facet normal -1.132032e-01 -8.385804e-09  9.935719e-01
   outer loop
     vertex  1.283390e+02 -8.485302e+02  2.768284e+04
     vertex  9.805133e+01 -8.906319e+02  2.767938e+04
     vertex  1.545739e+02 -8.938740e+02  2.768582e+04
   endloop
 endfacet
 facet normal -1.132032e-01 -8.385886e-09  9.935719e-01
   outer loop
     vertex  1.173029e+02 -9.375186e+02  2.768158e+04
     vertex  1.587530e+02 -9.443161e+02  2.768630e+04
     vertex  1.545739e+02 -8.938740e+02  2.768582e+04
   endloop
 endfacet
 facet normal -1.132032e-01 -8.385840e-09  9.935719e-01
   outer loop
     vertex  1.802685e+02 -1.065674e+03  2.768875e+04
     vertex  1.941920e+02 -1.083658e+03  2.769034e+04
     vertex  1.998074e+02 -1.063830e+03  2.769098e+04
   endloop
 endfacet
 facet normal -1.132032e-01 -8.385898e-09  9.935719e-01
   outer loop
     vertex  2.069015e+02 -1.097920e+03  2.769179e+04
     vertex  2.182388e+02 -1.110431e+03  2.769308e+04
     vertex  2.218386e+02 -1.092755e+03  2.769349e+04
   endloop
 endfacet
 facet normal -1.132032e-01 -8.385709e-09  9.935719e-01
   outer loop
     vertex  2.282411e+02 -1.120764e+03  2.769422e+04
     vertex  2.391686e+02 -1.128595e+03  2.769546e+04
     vertex  2.388328e+02 -1.116512e+03  2.769542e+04
   endloop
 endfacet
 facet normal -1.132032e-01 -8.385666e-09  9.935719e-01
   outer loop
     vertex  2.504784e+02 -1.134110e+03  2.769675e+04
     vertex  2.624299e+02 -1.138913e+03  2.769811e+04
     vertex  2.612397e+02 -1.124353e+03  2.769798e+04
   endloop
 endfacet
 facet normal -1.132032e-01 -8.385786e-09  9.935719e-01
   outer loop
     vertex  2.757434e+02 -1.144092e+03  2.769963e+04
     vertex  2.887935e+02 -1.149018e+03  2.770112e+04
     vertex  2.862453e+02 -1.133141e+03  2.770083e+04
   endloop
 endfacet
 facet normal -1.132032e-01 -8.386038e-09  9.935719e-01
   outer loop
     vertex  3.012655e+02 -1.152974e+03  2.770254e+04
     vertex  3.121774e+02 -1.156843e+03  2.770378e+04
     vertex  3.124048e+02 -1.142387e+03  2.770381e+04
   endloop
 endfacet
 facet normal -1.132032e-01 -8.386037e-09  9.935719e-01
   outer loop
     vertex  3.121774e+02 -1.156843e+03  2.770378e+04
     vertex  3.237612e+02 -1.154041e+03  2.770510e+04
     vertex  3.124048e+02 -1.142387e+03  2.770381e+04
   endloop
 endfacet
 facet normal -1.132032e-01 -8.385772e-09  9.935719e-01
   outer loop
     vertex  3.355322e+02 -1.150887e+03  2.770644e+04
     vertex  3.460721e+02 -1.146417e+03  2.770764e+04
     vertex  3.381384e+02 -1.137355e+03  2.770674e+04
   endloop
 endfacet
 facet normal -1.132032e-01 -8.386019e-09  9.935719e-01
   outer loop
     vertex  3.460721e+02 -1.146417e+03  2.770764e+04
     vertex  3.551499e+02 -1.142138e+03  2.770868e+04
     vertex  3.490376e+02 -1.133408e+03  2.770798e+04
   endloop
 endfacet
 facet normal -1.132032e-01 -8.385999e-09  9.935719e-01
   outer loop
     vertex  3.381384e+02 -1.137355e+03  2.770674e+04
     vertex  3.460721e+02 -1.146417e+03  2.770764e+04
     vertex  3.490376e+02 -1.133408e+03  2.770798e+04
   endloop
 endfacet
 facet normal -1.132032e-01 -8.386026e-09  9.935719e-01
   outer loop
     vertex  3.551499e+02 -1.142138e+03  2.770868e+04
     vertex  3.602979e+02 -1.133261e+03  2.770926e+04
     vertex  3.490376e+02 -1.133408e+03  2.770798e+04
   endloop
 endfacet
 facet normal -1.132032e-01 -8.385637e-09  9.935719e-01
   outer loop
     vertex  3.602979e+02 -1.133261e+03  2.770926e+04
     vertex  3.659270e+02 -1.125399e+03  2.770991e+04
     vertex  3.547510e+02 -1.120937e+03  2.770863e+04
   endloop
 endfacet
 facet normal -1.132032e-01 -8.386132e-09  9.935719e-01
   outer loop
     vertex  3.659270e+02 -1.125399e+03  2.770991e+04
     vertex  3.672142e+02 -1.115986e+03  2.771005e+04
     vertex  3.547510e+02 -1.120937e+03  2.770863e+04
   endloop
 endfacet
 facet normal -1.132032e-01 -8.386003e-09  9.935719e-01
   outer loop
     vertex  3.696437e+02 -1.105557e+03  2.771033e+04
     vertex  3.725509e+02 -1.095901e+03  2.771066e+04
     vertex  3.611889e+02 -1.095331e+03  2.770937e+04
   endloop
 endfacet
 facet normal -1.132032e-01 -8.385768e-09  9.935719e-01
   outer loop
     vertex  3.725509e+02 -1.095901e+03  2.771066e+04
     vertex  3.700194e+02 -1.084690e+03  2.771037e+04
     vertex  3.611889e+02 -1.095331e+03  2.770937e+04
   endloop
 endfacet
 facet normal -1.132032e-01 -8.385894e-09  9.935719e-01
   outer loop
     vertex  3.700194e+02 -1.084690e+03  2.771037e+04
     vertex  3.683683e+02 -1.071342e+03  2.771018e+04
     vertex  3.549726e+02 -1.081671e+03  2.770866e+04
   endloop
 endfacet
 facet normal -1.132032e-01 -8.385918e-09  9.935719e-01
   outer loop
     vertex  3.676860e+02 -1.057151e+03  2.771011e+04
     vertex  3.650207e+02 -1.044276e+03  2.770980e+04
     vertex  3.565378e+02 -1.053130e+03  2.770884e+04
   endloop
 endfacet
 facet normal -1.132032e-01 -8.385699e-09  9.935719e-01
   outer loop
     vertex  3.604405e+02 -1.031968e+03  2.770928e+04
     vertex  3.562015e+02 -1.019133e+03  2.770880e+04
     vertex  3.451210e+02 -1.031185e+03  2.770753e+04
   endloop
 endfacet
 facet normal -1.132032e-01 -8.385798e-09  9.935719e-01
   outer loop
     vertex  3.510766e+02 -1.005654e+03  2.770821e+04
     vertex  3.432005e+02 -9.909291e+02  2.770732e+04
     vertex  3.328202e+02 -1.003879e+03  2.770613e+04
   endloop
 endfacet
 facet normal -1.132032e-01 -8.385911e-09  9.935719e-01
   outer loop
     vertex  3.323574e+02 -9.734658e+02  2.770608e+04
     vertex  3.185128e+02 -9.530938e+02  2.770450e+04
     vertex  3.060109e+02 -9.753159e+02  2.770308e+04
   endloop
 endfacet
 facet normal -1.132032e-01 -8.385883e-09  9.935719e-01
   outer loop
     vertex  1.695908e+02 -7.395301e+02  2.768754e+04
     vertex  1.128087e+02 -7.020694e+02  2.768107e+04
     vertex  1.317719e+02 -7.894407e+02  2.768323e+04
   endloop
 endfacet
 facet normal -1.132032e-01 -8.385812e-09  9.935719e-01
   outer loop
     vertex  2.597446e+02 -8.719982e+02  2.769781e+04
     vertex  2.300640e+02 -8.321130e+02  2.769443e+04
     vertex  2.109312e+02 -8.753130e+02  2.769225e+04
   endloop
 endfacet
 facet normal -1.132032e-01 -8.385905e-09  9.935719e-01
   outer loop
     vertex  1.663850e+02 -1.041756e+03  2.768717e+04
     vertex  1.802685e+02 -1.065674e+03  2.768875e+04
     vertex  1.937863e+02 -1.042947e+03  2.769029e+04
   endloop
 endfacet
 facet normal -1.132032e-01 -8.385883e-09  9.935719e-01
   outer loop
     vertex  1.802685e+02 -1.065674e+03  2.768875e+04
     vertex  1.998074e+02 -1.063830e+03  2.769098e+04
     vertex  1.937863e+02 -1.042947e+03  2.769029e+04
   endloop
 endfacet
 facet normal -1.132032e-01 -8.379986e-09  9.935719e-01
   outer loop
     vertex -6.809504e+01 -3.606592e+02  2.766045e+04
     vertex -9.431559e+01 -3.857695e+02  2.765747e+04
     vertex -4.627433e+01 -4.168568e+02  2.766294e+04
   endloop
 endfacet
 facet normal -1.132032e-01 -8.227280e-09  9.935719e-01
   outer loop
     vertex -7.425833e+01 -5.077205e+02  2.765975e+04
     vertex  9.924077e+00 -4.218727e+02  2.766934e+04
     vertex -4.627433e+01 -4.168568e+02  2.766294e+04
   endloop
 endfacet
 facet normal -1.132032e-01 -8.385860e-09  9.935719e-01
   outer loop
     vertex  2.831329e+02 -9.038614e+02  2.770047e+04
     vertex  2.597446e+02 -8.719982e+02  2.769781e+04
     vertex  2.415531e+02 -9.084040e+02  2.769573e+04
   endloop
 endfacet
 facet normal -1.132032e-01 -8.385832e-09  9.935719e-01
   outer loop
     vertex  2.597446e+02 -8.719982e+02  2.769781e+04
     vertex  2.109312e+02 -8.753130e+02  2.769225e+04
     vertex  2.415531e+02 -9.084040e+02  2.769573e+04
   endloop
 endfacet
 facet normal -1.132032e-01 -8.385872e-09  9.935719e-01
   outer loop
     vertex  3.012420e+02 -9.300702e+02  2.770254e+04
     vertex  2.831329e+02 -9.038614e+02  2.770047e+04
     vertex  2.669857e+02 -9.353806e+02  2.769863e+04
   endloop
 endfacet
 facet normal -1.132032e-01 -8.385907e-09  9.935719e-01
   outer loop
     vertex  2.831329e+02 -9.038614e+02  2.770047e+04
     vertex  2.415531e+02 -9.084040e+02  2.769573e+04
     vertex  2.669857e+02 -9.353806e+02  2.769863e+04
   endloop
 endfacet
 facet normal -1.132032e-01 -8.385857e-09  9.935719e-01
   outer loop
     vertex  1.128087e+02 -7.020694e+02  2.768107e+04
     vertex  6.021144e+01 -6.264730e+02  2.767507e+04
     vertex  3.759506e+01 -6.944144e+02  2.767250e+04
   endloop
 endfacet
 facet normal -1.132032e-01 -8.385864e-09  9.935719e-01
   outer loop
     vertex  1.317719e+02 -7.894407e+02  2.768323e+04
     vertex  7.833079e+01 -8.321107e+02  2.767714e+04
     vertex  1.283390e+02 -8.485302e+02  2.768284e+04
   endloop
 endfacet
 facet normal -1.132032e-01 -8.385827e-09  9.935719e-01
   outer loop
     vertex  1.128087e+02 -7.020694e+02  2.768107e+04
     vertex  3.759506e+01 -6.944144e+02  2.767250e+04
     vertex  6.317753e+01 -7.655674e+02  2.767541e+04
   endloop
 endfacet
 facet normal -1.132032e-01 -8.385885e-09  9.935719e-01
   outer loop
     vertex  1.128087e+02 -7.020694e+02  2.768107e+04
     vertex  6.317753e+01 -7.655674e+02  2.767541e+04
     vertex  1.317719e+02 -7.894407e+02  2.768323e+04
   endloop
 endfacet
 facet normal -1.132032e-01 -8.385864e-09  9.935719e-01
   outer loop
     vertex  1.587530e+02 -9.443161e+02  2.768630e+04
     vertex  1.347180e+02 -9.801093e+02  2.768356e+04
     vertex  1.711755e+02 -9.833713e+02  2.768772e+04
   endloop
 endfacet
 facet normal -1.132032e-01 -8.385799e-09  9.935719e-01
   outer loop
     vertex  3.012420e+02 -9.300702e+02  2.770254e+04
     vertex  2.669857e+02 -9.353806e+02  2.769863e+04
     vertex  2.873289e+02 -9.572385e+02  2.770095e+04
   endloop
 endfacet
 facet normal -1.132032e-01 -8.385827e-09  9.935719e-01
   outer loop
     vertex  2.300640e+02 -8.321130e+02  2.769443e+04
     vertex  1.765451e+02 -8.367251e+02  2.768833e+04
     vertex  2.109312e+02 -8.753130e+02  2.769225e+04
   endloop
 endfacet
 facet normal -1.132032e-01 -8.305961e-09  9.935719e-01
   outer loop
     vertex -4.054638e+01 -6.527368e+02  2.766359e+04
     vertex  3.759506e+01 -6.944144e+02  2.767250e+04
     vertex  6.021144e+01 -6.264730e+02  2.767507e+04
   endloop
 endfacet
 facet normal -1.132032e-01 -8.385875e-09  9.935719e-01
   outer loop
     vertex  1.998074e+02 -1.063830e+03  2.769098e+04
     vertex  1.941920e+02 -1.083658e+03  2.769034e+04
     vertex  2.115993e+02 -1.077773e+03  2.769232e+04
   endloop
 endfacet
 facet normal -1.132032e-01 -8.385879e-09  9.935719e-01
   outer loop
     vertex  1.941920e+02 -1.083658e+03  2.769034e+04
     vertex  2.069015e+02 -1.097920e+03  2.769179e+04
     vertex  2.115993e+02 -1.077773e+03  2.769232e+04
   endloop
 endfacet
 facet normal -1.132032e-01 -8.385825e-09  9.935719e-01
   outer loop
     vertex  1.711755e+02 -9.833713e+02  2.768772e+04
     vertex  1.516124e+02 -1.014330e+03  2.768549e+04
     vertex  1.829297e+02 -1.014200e+03  2.768906e+04
   endloop
 endfacet
 facet normal -1.132032e-01 -8.385886e-09  9.935719e-01
   outer loop
     vertex  1.516124e+02 -1.014330e+03  2.768549e+04
     vertex  1.663850e+02 -1.041756e+03  2.768717e+04
     vertex  1.829297e+02 -1.014200e+03  2.768906e+04
   endloop
 endfacet
 facet normal -1.132032e-01 -7.962283e-09  9.935719e-01
   outer loop
     vertex -8.474417e+01 -4.487421e+02  2.765856e+04
     vertex -7.425833e+01 -5.077205e+02  2.765975e+04
     vertex -4.627433e+01 -4.168568e+02  2.766294e+04
   endloop
 endfacet
 facet normal -1.132032e-01 -8.531077e-09  9.935719e-01
   outer loop
     vertex  6.894227e+00 -5.598775e+02  2.766900e+04
     vertex -4.054638e+01 -6.527368e+02  2.766359e+04
     vertex  6.021144e+01 -6.264730e+02  2.767507e+04
   endloop
 endfacet
 facet normal -1.132032e-01 -8.385782e-09  9.935719e-01
   outer loop
     vertex  3.012420e+02 -9.300702e+02  2.770254e+04
     vertex  2.873289e+02 -9.572385e+02  2.770095e+04
     vertex  3.185128e+02 -9.530938e+02  2.770450e+04
   endloop
 endfacet
 facet normal -1.132032e-01 -8.385863e-09  9.935719e-01
   outer loop
     vertex  2.069015e+02 -1.097920e+03  2.769179e+04
     vertex  2.218386e+02 -1.092755e+03  2.769349e+04
     vertex  2.115993e+02 -1.077773e+03  2.769232e+04
   endloop
 endfacet
 facet normal -1.132032e-01 -8.385763e-09  9.935719e-01
   outer loop
     vertex  2.182388e+02 -1.110431e+03  2.769308e+04
     vertex  2.282411e+02 -1.120764e+03  2.769422e+04
     vertex  2.309874e+02 -1.106052e+03  2.769453e+04
   endloop
 endfacet
 facet normal -1.132032e-01 -8.385825e-09  9.935719e-01
   outer loop
     vertex  2.391686e+02 -1.128595e+03  2.769546e+04
     vertex  2.504784e+02 -1.134110e+03  2.769675e+04
     vertex  2.495471e+02 -1.120134e+03  2.769665e+04
   endloop
 endfacet
 facet normal -1.132032e-01 -8.385982e-09  9.935719e-01
   outer loop
     vertex  2.624299e+02 -1.138913e+03  2.769811e+04
     vertex  2.757434e+02 -1.144092e+03  2.769963e+04
     vertex  2.734898e+02 -1.128547e+03  2.769937e+04
   endloop
 endfacet
 facet normal -1.132032e-01 -8.386003e-09  9.935719e-01
   outer loop
     vertex  2.887935e+02 -1.149018e+03  2.770112e+04
     vertex  3.012655e+02 -1.152974e+03  2.770254e+04
     vertex  2.985127e+02 -1.138275e+03  2.770222e+04
   endloop
 endfacet
 facet normal -1.132032e-01 -8.385866e-09  9.935719e-01
   outer loop
     vertex  3.237612e+02 -1.154041e+03  2.770510e+04
     vertex  3.355322e+02 -1.150887e+03  2.770644e+04
     vertex  3.261133e+02 -1.140125e+03  2.770537e+04
   endloop
 endfacet
 facet normal -1.132032e-01 -8.385772e-09  9.935719e-01
   outer loop
     vertex  3.355322e+02 -1.150887e+03  2.770644e+04
     vertex  3.381384e+02 -1.137355e+03  2.770674e+04
     vertex  3.261133e+02 -1.140125e+03  2.770537e+04
   endloop
 endfacet
 facet normal -1.132032e-01 -8.385771e-09  9.935719e-01
   outer loop
     vertex  3.602979e+02 -1.133261e+03  2.770926e+04
     vertex  3.547510e+02 -1.120937e+03  2.770863e+04
     vertex  3.490376e+02 -1.133408e+03  2.770798e+04
   endloop
 endfacet
 facet normal -1.132032e-01 -8.385791e-09  9.935719e-01
   outer loop
     vertex  3.547510e+02 -1.120937e+03  2.770863e+04
     vertex  3.672142e+02 -1.115986e+03  2.771005e+04
     vertex  3.569088e+02 -1.107894e+03  2.770888e+04
   endloop
 endfacet
 facet normal -1.132032e-01 -8.385741e-09  9.935719e-01
   outer loop
     vertex  3.672142e+02 -1.115986e+03  2.771005e+04
     vertex  3.696437e+02 -1.105557e+03  2.771033e+04
     vertex  3.569088e+02 -1.107894e+03  2.770888e+04
   endloop
 endfacet
 facet normal -1.132032e-01 -8.385823e-09  9.935719e-01
   outer loop
     vertex  3.700194e+02 -1.084690e+03  2.771037e+04
     vertex  3.549726e+02 -1.081671e+03  2.770866e+04
     vertex  3.611889e+02 -1.095331e+03  2.770937e+04
   endloop
 endfacet
 facet normal -1.132032e-01 -8.385744e-09  9.935719e-01
   outer loop
     vertex  3.683683e+02 -1.071342e+03  2.771018e+04
     vertex  3.676860e+02 -1.057151e+03  2.771011e+04
     vertex  3.555429e+02 -1.065772e+03  2.770872e+04
   endloop
 endfacet
 facet normal -1.132032e-01 -8.385814e-09  9.935719e-01
   outer loop
     vertex  3.549726e+02 -1.081671e+03  2.770866e+04
     vertex  3.683683e+02 -1.071342e+03  2.771018e+04
     vertex  3.555429e+02 -1.065772e+03  2.770872e+04
   endloop
 endfacet
 facet normal -1.132032e-01 -8.386035e-09  9.935719e-01
   outer loop
     vertex  3.676860e+02 -1.057151e+03  2.771011e+04
     vertex  3.565378e+02 -1.053130e+03  2.770884e+04
     vertex  3.555429e+02 -1.065772e+03  2.770872e+04
   endloop
 endfacet
 facet normal -1.132032e-01 -8.385939e-09  9.935719e-01
   outer loop
     vertex  3.650207e+02 -1.044276e+03  2.770980e+04
     vertex  3.604405e+02 -1.031968e+03  2.770928e+04
     vertex  3.508582e+02 -1.042943e+03  2.770819e+04
   endloop
 endfacet
 facet normal -1.132032e-01 -8.385803e-09  9.935719e-01
   outer loop
     vertex  3.562015e+02 -1.019133e+03  2.770880e+04
     vertex  3.510766e+02 -1.005654e+03  2.770821e+04
     vertex  3.394766e+02 -1.018123e+03  2.770689e+04
   endloop
 endfacet
 facet normal -1.132032e-01 -8.385833e-09  9.935719e-01
   outer loop
     vertex  3.432005e+02 -9.909291e+02  2.770732e+04
     vertex  3.323574e+02 -9.734658e+02  2.770608e+04
     vertex  3.219334e+02 -9.895358e+02  2.770489e+04
   endloop
 endfacet
 facet normal -1.132032e-01 -8.385965e-09  9.935719e-01
   outer loop
     vertex  2.734898e+02 -1.128547e+03  2.769937e+04
     vertex  2.757434e+02 -1.144092e+03  2.769963e+04
     vertex  2.862453e+02 -1.133141e+03  2.770083e+04
   endloop
 endfacet
 facet normal -1.132032e-01 -8.385903e-09  9.935719e-01
   outer loop
     vertex  1.663850e+02 -1.041756e+03  2.768717e+04
     vertex  1.937863e+02 -1.042947e+03  2.769029e+04
     vertex  1.829297e+02 -1.014200e+03  2.768906e+04
   endloop
 endfacet
 facet normal -1.132032e-01 -8.385863e-09  9.935719e-01
   outer loop
     vertex  3.185128e+02 -9.530938e+02  2.770450e+04
     vertex  2.873289e+02 -9.572385e+02  2.770095e+04
     vertex  3.060109e+02 -9.753159e+02  2.770308e+04
   endloop
 endfacet
 facet normal -1.132032e-01 -8.385747e-09  9.935719e-01
   outer loop
     vertex  3.328202e+02 -1.003879e+03  2.770613e+04
     vertex  3.432005e+02 -9.909291e+02  2.770732e+04
     vertex  3.219334e+02 -9.895358e+02  2.770489e+04
   endloop
 endfacet
 facet normal -1.132032e-01 -8.385963e-09  9.935719e-01
   outer loop
     vertex  3.451210e+02 -1.031185e+03  2.770753e+04
     vertex  3.562015e+02 -1.019133e+03  2.770880e+04
     vertex  3.394766e+02 -1.018123e+03  2.770689e+04
   endloop
 endfacet
 facet normal -1.132032e-01 -8.385812e-09  9.935719e-01
   outer loop
     vertex  2.862453e+02 -1.133141e+03  2.770083e+04
     vertex  2.887935e+02 -1.149018e+03  2.770112e+04
     vertex  2.985127e+02 -1.138275e+03  2.770222e+04
   endloop
 endfacet
 facet normal -1.132032e-01 -8.385690e-09  9.935719e-01
   outer loop
     vertex  2.612397e+02 -1.124353e+03  2.769798e+04
     vertex  2.624299e+02 -1.138913e+03  2.769811e+04
     vertex  2.734898e+02 -1.128547e+03  2.769937e+04
   endloop
 endfacet
 facet normal -1.132032e-01 -8.385709e-09  9.935719e-01
   outer loop
     vertex  2.388328e+02 -1.116512e+03  2.769542e+04
     vertex  2.391686e+02 -1.128595e+03  2.769546e+04
     vertex  2.495471e+02 -1.120134e+03  2.769665e+04
   endloop
 endfacet
 facet normal -1.132032e-01 -8.385953e-09  9.935719e-01
   outer loop
     vertex  2.182388e+02 -1.110431e+03  2.769308e+04
     vertex  2.309874e+02 -1.106052e+03  2.769453e+04
     vertex  2.218386e+02 -1.092755e+03  2.769349e+04
   endloop
 endfacet
 facet normal -1.132032e-01 -8.386026e-09  9.935719e-01
   outer loop
     vertex  2.985127e+02 -1.138275e+03  2.770222e+04
     vertex  3.012655e+02 -1.152974e+03  2.770254e+04
     vertex  3.124048e+02 -1.142387e+03  2.770381e+04
   endloop
 endfacet
 facet normal -1.132032e-01 -8.385812e-09  9.935719e-01
   outer loop
     vertex  2.495471e+02 -1.120134e+03  2.769665e+04
     vertex  2.504784e+02 -1.134110e+03  2.769675e+04
     vertex  2.612397e+02 -1.124353e+03  2.769798e+04
   endloop
 endfacet
 facet normal -1.132032e-01 -8.385729e-09  9.935719e-01
   outer loop
     vertex  2.309874e+02 -1.106052e+03  2.769453e+04
     vertex  2.282411e+02 -1.120764e+03  2.769422e+04
     vertex  2.388328e+02 -1.116512e+03  2.769542e+04
   endloop
 endfacet
 facet normal -1.132032e-01 -8.385866e-09  9.935719e-01
   outer loop
     vertex  3.237612e+02 -1.154041e+03  2.770510e+04
     vertex  3.261133e+02 -1.140125e+03  2.770537e+04
     vertex  3.124048e+02 -1.142387e+03  2.770381e+04
   endloop
 endfacet
 facet normal -1.132032e-01 -8.385902e-09  9.935719e-01
   outer loop
     vertex  3.569088e+02 -1.107894e+03  2.770888e+04
     vertex  3.696437e+02 -1.105557e+03  2.771033e+04
     vertex  3.611889e+02 -1.095331e+03  2.770937e+04
   endloop
 endfacet
 facet normal -1.132032e-01 -8.385808e-09  9.935719e-01
   outer loop
     vertex  3.219334e+02 -9.895358e+02  2.770489e+04
     vertex  3.323574e+02 -9.734658e+02  2.770608e+04
     vertex  3.060109e+02 -9.753159e+02  2.770308e+04
   endloop
 endfacet
 facet normal -1.132032e-01 -8.385704e-09  9.935719e-01
   outer loop
     vertex  3.508582e+02 -1.042943e+03  2.770819e+04
     vertex  3.604405e+02 -1.031968e+03  2.770928e+04
     vertex  3.451210e+02 -1.031185e+03  2.770753e+04
   endloop
 endfacet
 facet normal -1.132032e-01 -8.385893e-09  9.935719e-01
   outer loop
     vertex  3.650207e+02 -1.044276e+03  2.770980e+04
     vertex  3.508582e+02 -1.042943e+03  2.770819e+04
     vertex  3.565378e+02 -1.053130e+03  2.770884e+04
   endloop
 endfacet
 facet normal -1.132032e-01 -8.385822e-09  9.935719e-01
   outer loop
     vertex  3.394766e+02 -1.018123e+03  2.770689e+04
     vertex  3.510766e+02 -1.005654e+03  2.770821e+04
     vertex  3.328202e+02 -1.003879e+03  2.770613e+04
   endloop
 endfacet
 facet normal -1.132032e-01 -8.385861e-09  9.935719e-01
   outer loop
     vertex  1.317719e+02 -7.894407e+02  2.768323e+04
     vertex  1.283390e+02 -8.485302e+02  2.768284e+04
     vertex  1.765451e+02 -8.367251e+02  2.768833e+04
   endloop
 endfacet
 facet normal -1.132032e-01 -8.385798e-09  9.935719e-01
   outer loop
     vertex  2.873289e+02 -9.572385e+02  2.770095e+04
     vertex  2.669857e+02 -9.353806e+02  2.769863e+04
     vertex  2.518958e+02 -9.712953e+02  2.769691e+04
   endloop
 endfacet
 facet normal -1.132032e-01 -8.385857e-09  9.935719e-01
   outer loop
     vertex  1.765451e+02 -8.367251e+02  2.768833e+04
     vertex  1.985580e+02 -7.874301e+02  2.769084e+04
     vertex  1.317719e+02 -7.894407e+02  2.768323e+04
   endloop
 endfacet
 facet normal -1.132032e-01 -8.385858e-09  9.935719e-01
   outer loop
     vertex  3.060109e+02 -9.753159e+02  2.770308e+04
     vertex  2.873289e+02 -9.572385e+02  2.770095e+04
     vertex  2.802652e+02 -9.828334e+02  2.770015e+04
   endloop
 endfacet
 facet normal -1.132032e-01 -8.385871e-09  9.935719e-01
   outer loop
     vertex  2.873289e+02 -9.572385e+02  2.770095e+04
     vertex  2.518958e+02 -9.712953e+02  2.769691e+04
     vertex  2.802652e+02 -9.828334e+02  2.770015e+04
   endloop
 endfacet
 facet normal -1.132032e-01 -8.385755e-09  9.935719e-01
   outer loop
     vertex  3.261133e+02 -1.140125e+03  2.770537e+04
     vertex  3.381384e+02 -1.137355e+03  2.770674e+04
     vertex  3.308002e+02 -1.128485e+03  2.770590e+04
   endloop
 endfacet
 facet normal -1.132032e-01 -8.385737e-09  9.935719e-01
   outer loop
     vertex  2.985127e+02 -1.138275e+03  2.770222e+04
     vertex  3.124048e+02 -1.142387e+03  2.770381e+04
     vertex  3.079654e+02 -1.127943e+03  2.770330e+04
   endloop
 endfacet
 facet normal -1.132032e-01 -8.385776e-09  9.935719e-01
   outer loop
     vertex  1.711755e+02 -9.833713e+02  2.768772e+04
     vertex  1.829297e+02 -1.014200e+03  2.768906e+04
     vertex  2.106005e+02 -9.853347e+02  2.769221e+04
   endloop
 endfacet
 facet normal -1.132032e-01 -8.385856e-09  9.935719e-01
   outer loop
     vertex  3.124048e+02 -1.142387e+03  2.770381e+04
     vertex  3.261133e+02 -1.140125e+03  2.770537e+04
     vertex  3.197705e+02 -1.127175e+03  2.770465e+04
   endloop
 endfacet
 facet normal -1.132032e-01 -8.385784e-09  9.935719e-01
   outer loop
     vertex  3.079654e+02 -1.127943e+03  2.770330e+04
     vertex  3.124048e+02 -1.142387e+03  2.770381e+04
     vertex  3.197705e+02 -1.127175e+03  2.770465e+04
   endloop
 endfacet
 facet normal -1.132032e-01 -8.385778e-09  9.935719e-01
   outer loop
     vertex  3.261133e+02 -1.140125e+03  2.770537e+04
     vertex  3.308002e+02 -1.128485e+03  2.770590e+04
     vertex  3.197705e+02 -1.127175e+03  2.770465e+04
   endloop
 endfacet
 facet normal -1.132032e-01 -8.386010e-09  9.935719e-01
   outer loop
     vertex  2.218386e+02 -1.092755e+03  2.769349e+04
     vertex  2.309874e+02 -1.106052e+03  2.769453e+04
     vertex  2.388361e+02 -1.089742e+03  2.769542e+04
   endloop
 endfacet
 facet normal -1.132032e-01 -8.385853e-09  9.935719e-01
   outer loop
     vertex  2.309874e+02 -1.106052e+03  2.769453e+04
     vertex  2.388328e+02 -1.116512e+03  2.769542e+04
     vertex  2.454549e+02 -1.105533e+03  2.769618e+04
   endloop
 endfacet
 facet normal -1.132032e-01 -8.385851e-09  9.935719e-01
   outer loop
     vertex  2.388361e+02 -1.089742e+03  2.769542e+04
     vertex  2.309874e+02 -1.106052e+03  2.769453e+04
     vertex  2.454549e+02 -1.105533e+03  2.769618e+04
   endloop
 endfacet
 facet normal -1.132032e-01 -8.385895e-09  9.935719e-01
   outer loop
     vertex  2.388328e+02 -1.116512e+03  2.769542e+04
     vertex  2.495471e+02 -1.120134e+03  2.769665e+04
     vertex  2.454549e+02 -1.105533e+03  2.769618e+04
   endloop
 endfacet
 facet normal -1.132032e-01 -8.385864e-09  9.935719e-01
   outer loop
     vertex  1.829297e+02 -1.014200e+03  2.768906e+04
     vertex  1.937863e+02 -1.042947e+03  2.769029e+04
     vertex  2.109743e+02 -1.021997e+03  2.769225e+04
   endloop
 endfacet
 facet normal -1.132032e-01 -8.385708e-09  9.935719e-01
   outer loop
     vertex  2.612397e+02 -1.124353e+03  2.769798e+04
     vertex  2.734898e+02 -1.128547e+03  2.769937e+04
     vertex  2.713362e+02 -1.112665e+03  2.769913e+04
   endloop
 endfacet
 facet normal -1.132032e-01 -8.385801e-09  9.935719e-01
   outer loop
     vertex  2.495471e+02 -1.120134e+03  2.769665e+04
     vertex  2.612397e+02 -1.124353e+03  2.769798e+04
     vertex  2.580483e+02 -1.109432e+03  2.769761e+04
   endloop
 endfacet
 facet normal -1.132032e-01 -8.385797e-09  9.935719e-01
   outer loop
     vertex  2.454549e+02 -1.105533e+03  2.769618e+04
     vertex  2.495471e+02 -1.120134e+03  2.769665e+04
     vertex  2.580483e+02 -1.109432e+03  2.769761e+04
   endloop
 endfacet
 facet normal -1.132032e-01 -8.385858e-09  9.935719e-01
   outer loop
     vertex  2.612397e+02 -1.124353e+03  2.769798e+04
     vertex  2.713362e+02 -1.112665e+03  2.769913e+04
     vertex  2.580483e+02 -1.109432e+03  2.769761e+04
   endloop
 endfacet
 facet normal -1.132032e-01 -8.385904e-09  9.935719e-01
   outer loop
     vertex  3.569088e+02 -1.107894e+03  2.770888e+04
     vertex  3.611889e+02 -1.095331e+03  2.770937e+04
     vertex  3.475967e+02 -1.096957e+03  2.770782e+04
   endloop
 endfacet
 facet normal -1.132032e-01 -8.385826e-09  9.935719e-01
   outer loop
     vertex  3.219334e+02 -9.895358e+02  2.770489e+04
     vertex  3.060109e+02 -9.753159e+02  2.770308e+04
     vertex  2.976874e+02 -9.981504e+02  2.770213e+04
   endloop
 endfacet
 facet normal -1.132032e-01 -8.385799e-09  9.935719e-01
   outer loop
     vertex  3.060109e+02 -9.753159e+02  2.770308e+04
     vertex  2.802652e+02 -9.828334e+02  2.770015e+04
     vertex  2.976874e+02 -9.981504e+02  2.770213e+04
   endloop
 endfacet
 facet normal -1.132032e-01 -8.385873e-09  9.935719e-01
   outer loop
     vertex  3.381384e+02 -1.137355e+03  2.770674e+04
     vertex  3.490376e+02 -1.133408e+03  2.770798e+04
     vertex  3.414856e+02 -1.123635e+03  2.770712e+04
   endloop
 endfacet
 facet normal -1.132032e-01 -8.385903e-09  9.935719e-01
   outer loop
     vertex  3.308002e+02 -1.128485e+03  2.770590e+04
     vertex  3.381384e+02 -1.137355e+03  2.770674e+04
     vertex  3.414856e+02 -1.123635e+03  2.770712e+04
   endloop
 endfacet
 facet normal -1.132032e-01 -8.385774e-09  9.935719e-01
   outer loop
     vertex  3.490376e+02 -1.133408e+03  2.770798e+04
     vertex  3.547510e+02 -1.120937e+03  2.770863e+04
     vertex  3.414856e+02 -1.123635e+03  2.770712e+04
   endloop
 endfacet
 facet normal -1.132032e-01 -8.385927e-09  9.935719e-01
   outer loop
     vertex  3.394766e+02 -1.018123e+03  2.770689e+04
     vertex  3.328202e+02 -1.003879e+03  2.770613e+04
     vertex  3.217624e+02 -1.018729e+03  2.770487e+04
   endloop
 endfacet
 facet normal -1.132032e-01 -8.385806e-09  9.935719e-01
   outer loop
     vertex  3.611889e+02 -1.095331e+03  2.770937e+04
     vertex  3.549726e+02 -1.081671e+03  2.770866e+04
     vertex  3.475967e+02 -1.096957e+03  2.770782e+04
   endloop
 endfacet
 facet normal -1.132032e-01 -8.385825e-09  9.935719e-01
   outer loop
     vertex  1.765451e+02 -8.367251e+02  2.768833e+04
     vertex  1.283390e+02 -8.485302e+02  2.768284e+04
     vertex  1.545739e+02 -8.938740e+02  2.768582e+04
   endloop
 endfacet
 facet normal -1.132032e-01 -8.385986e-09  9.935719e-01
   outer loop
     vertex  3.565378e+02 -1.053130e+03  2.770884e+04
     vertex  3.508582e+02 -1.042943e+03  2.770819e+04
     vertex  3.443422e+02 -1.056143e+03  2.770745e+04
   endloop
 endfacet
 facet normal -1.132032e-01 -8.385849e-09  9.935719e-01
   outer loop
     vertex  2.862453e+02 -1.133141e+03  2.770083e+04
     vertex  2.985127e+02 -1.138275e+03  2.770222e+04
     vertex  2.974573e+02 -1.121068e+03  2.770210e+04
   endloop
 endfacet
 facet normal -1.132032e-01 -8.385831e-09  9.935719e-01
   outer loop
     vertex  2.985127e+02 -1.138275e+03  2.770222e+04
     vertex  3.079654e+02 -1.127943e+03  2.770330e+04
     vertex  2.974573e+02 -1.121068e+03  2.770210e+04
   endloop
 endfacet
 facet normal -1.132032e-01 -8.385991e-09  9.935719e-01
   outer loop
     vertex  3.451210e+02 -1.031185e+03  2.770753e+04
     vertex  3.394766e+02 -1.018123e+03  2.770689e+04
     vertex  3.275876e+02 -1.032512e+03  2.770554e+04
   endloop
 endfacet
 facet normal -1.132032e-01 -8.385882e-09  9.935719e-01
   outer loop
     vertex  3.394766e+02 -1.018123e+03  2.770689e+04
     vertex  3.217624e+02 -1.018729e+03  2.770487e+04
     vertex  3.275876e+02 -1.032512e+03  2.770554e+04
   endloop
 endfacet
 facet normal -1.132032e-01 -8.385704e-09  9.935719e-01
   outer loop
     vertex  3.508582e+02 -1.042943e+03  2.770819e+04
     vertex  3.451210e+02 -1.031185e+03  2.770753e+04
     vertex  3.355414e+02 -1.044826e+03  2.770644e+04
   endloop
 endfacet
 facet normal -1.132032e-01 -8.385949e-09  9.935719e-01
   outer loop
     vertex  3.443422e+02 -1.056143e+03  2.770745e+04
     vertex  3.508582e+02 -1.042943e+03  2.770819e+04
     vertex  3.355414e+02 -1.044826e+03  2.770644e+04
   endloop
 endfacet
 facet normal -1.132032e-01 -8.385853e-09  9.935719e-01
   outer loop
     vertex  3.451210e+02 -1.031185e+03  2.770753e+04
     vertex  3.275876e+02 -1.032512e+03  2.770554e+04
     vertex  3.355414e+02 -1.044826e+03  2.770644e+04
   endloop
 endfacet
 facet normal -1.132032e-01 -8.385925e-09  9.935719e-01
   outer loop
     vertex  2.734898e+02 -1.128547e+03  2.769937e+04
     vertex  2.862453e+02 -1.133141e+03  2.770083e+04
     vertex  2.848799e+02 -1.115553e+03  2.770067e+04
   endloop
 endfacet
 facet normal -1.132032e-01 -8.385688e-09  9.935719e-01
   outer loop
     vertex  2.713362e+02 -1.112665e+03  2.769913e+04
     vertex  2.734898e+02 -1.128547e+03  2.769937e+04
     vertex  2.848799e+02 -1.115553e+03  2.770067e+04
   endloop
 endfacet
 facet normal -1.132032e-01 -8.385946e-09  9.935719e-01
   outer loop
     vertex  2.862453e+02 -1.133141e+03  2.770083e+04
     vertex  2.974573e+02 -1.121068e+03  2.770210e+04
     vertex  2.848799e+02 -1.115553e+03  2.770067e+04
   endloop
 endfacet
 facet normal -1.132032e-01 -8.385815e-09  9.935719e-01
   outer loop
     vertex  2.115993e+02 -1.077773e+03  2.769232e+04
     vertex  2.218386e+02 -1.092755e+03  2.769349e+04
     vertex  2.303141e+02 -1.072086e+03  2.769445e+04
   endloop
 endfacet
 facet normal -1.132032e-01 -8.385856e-09  9.935719e-01
   outer loop
     vertex  2.218386e+02 -1.092755e+03  2.769349e+04
     vertex  2.388361e+02 -1.089742e+03  2.769542e+04
     vertex  2.303141e+02 -1.072086e+03  2.769445e+04
   endloop
 endfacet
 facet normal -1.132032e-01 -8.385876e-09  9.935719e-01
   outer loop
     vertex  2.415531e+02 -9.084040e+02  2.769573e+04
     vertex  2.109312e+02 -8.753130e+02  2.769225e+04
     vertex  1.977338e+02 -9.188181e+02  2.769074e+04
   endloop
 endfacet
 facet normal -1.132032e-01 -8.385937e-09  9.935719e-01
   outer loop
     vertex  2.669857e+02 -9.353806e+02  2.769863e+04
     vertex  2.415531e+02 -9.084040e+02  2.769573e+04
     vertex  2.279385e+02 -9.460481e+02  2.769418e+04
   endloop
 endfacet
 facet normal -1.132032e-01 -8.385802e-09  9.935719e-01
   outer loop
     vertex  2.518958e+02 -9.712953e+02  2.769691e+04
     vertex  2.669857e+02 -9.353806e+02  2.769863e+04
     vertex  2.279385e+02 -9.460481e+02  2.769418e+04
   endloop
 endfacet
 facet normal -1.132032e-01 -8.385911e-09  9.935719e-01
   outer loop
     vertex  2.415531e+02 -9.084040e+02  2.769573e+04
     vertex  1.977338e+02 -9.188181e+02  2.769074e+04
     vertex  2.279385e+02 -9.460481e+02  2.769418e+04
   endloop
 endfacet
 facet normal -1.132032e-01 -8.385833e-09  9.935719e-01
   outer loop
     vertex  1.937863e+02 -1.042947e+03  2.769029e+04
     vertex  1.998074e+02 -1.063830e+03  2.769098e+04
     vertex  2.176304e+02 -1.051741e+03  2.769301e+04
   endloop
 endfacet
 facet normal -1.132032e-01 -8.385876e-09  9.935719e-01
   outer loop
     vertex  2.109743e+02 -1.021997e+03  2.769225e+04
     vertex  1.937863e+02 -1.042947e+03  2.769029e+04
     vertex  2.176304e+02 -1.051741e+03  2.769301e+04
   endloop
 endfacet
 facet normal -1.132032e-01 -8.385833e-09  9.935719e-01
   outer loop
     vertex  1.998074e+02 -1.063830e+03  2.769098e+04
     vertex  2.115993e+02 -1.077773e+03  2.769232e+04
     vertex  2.176304e+02 -1.051741e+03  2.769301e+04
   endloop
 endfacet
 facet normal -1.132032e-01 -8.385820e-09  9.935719e-01
   outer loop
     vertex  3.547510e+02 -1.120937e+03  2.770863e+04
     vertex  3.569088e+02 -1.107894e+03  2.770888e+04
     vertex  3.436486e+02 -1.110784e+03  2.770737e+04
   endloop
 endfacet
 facet normal -1.132032e-01 -8.385929e-09  9.935719e-01
   outer loop
     vertex  3.414856e+02 -1.123635e+03  2.770712e+04
     vertex  3.547510e+02 -1.120937e+03  2.770863e+04
     vertex  3.436486e+02 -1.110784e+03  2.770737e+04
   endloop
 endfacet
 facet normal -1.132032e-01 -8.385820e-09  9.935719e-01
   outer loop
     vertex  3.569088e+02 -1.107894e+03  2.770888e+04
     vertex  3.475967e+02 -1.096957e+03  2.770782e+04
     vertex  3.436486e+02 -1.110784e+03  2.770737e+04
   endloop
 endfacet
 facet normal -1.132032e-01 -8.385796e-09  9.935719e-01
   outer loop
     vertex  2.106005e+02 -9.853347e+02  2.769221e+04
     vertex  1.829297e+02 -1.014200e+03  2.768906e+04
     vertex  2.109743e+02 -1.021997e+03  2.769225e+04
   endloop
 endfacet
 facet normal -1.132032e-01 -8.385850e-09  9.935719e-01
   outer loop
     vertex  2.109312e+02 -8.753130e+02  2.769225e+04
     vertex  1.765451e+02 -8.367251e+02  2.768833e+04
     vertex  1.545739e+02 -8.938740e+02  2.768582e+04
   endloop
 endfacet
 facet normal -1.132032e-01 -8.386024e-09  9.935719e-01
   outer loop
     vertex  3.565378e+02 -1.053130e+03  2.770884e+04
     vertex  3.443422e+02 -1.056143e+03  2.770745e+04
     vertex  3.555429e+02 -1.065772e+03  2.770872e+04
   endloop
 endfacet
 facet normal -1.132032e-01 -8.385852e-09  9.935719e-01
   outer loop
     vertex  3.475967e+02 -1.096957e+03  2.770782e+04
     vertex  3.549726e+02 -1.081671e+03  2.770866e+04
     vertex  3.400443e+02 -1.086062e+03  2.770696e+04
   endloop
 endfacet
 facet normal -1.132032e-01 -8.385818e-09  9.935719e-01
   outer loop
     vertex  3.549726e+02 -1.081671e+03  2.770866e+04
     vertex  3.555429e+02 -1.065772e+03  2.770872e+04
     vertex  3.418130e+02 -1.071606e+03  2.770716e+04
   endloop
 endfacet
 facet normal -1.132032e-01 -8.385741e-09  9.935719e-01
   outer loop
     vertex  3.400443e+02 -1.086062e+03  2.770696e+04
     vertex  3.549726e+02 -1.081671e+03  2.770866e+04
     vertex  3.418130e+02 -1.071606e+03  2.770716e+04
   endloop
 endfacet
 facet normal -1.132032e-01 -8.385938e-09  9.935719e-01
   outer loop
     vertex  3.555429e+02 -1.065772e+03  2.770872e+04
     vertex  3.443422e+02 -1.056143e+03  2.770745e+04
     vertex  3.418130e+02 -1.071606e+03  2.770716e+04
   endloop
 endfacet
 facet normal -1.132032e-01 -8.385823e-09  9.935719e-01
   outer loop
     vertex  2.176304e+02 -1.051741e+03  2.769301e+04
     vertex  2.115993e+02 -1.077773e+03  2.769232e+04
     vertex  2.303141e+02 -1.072086e+03  2.769445e+04
   endloop
 endfacet
 facet normal -1.132032e-01 -8.385862e-09  9.935719e-01
   outer loop
     vertex  1.587530e+02 -9.443161e+02  2.768630e+04
     vertex  1.711755e+02 -9.833713e+02  2.768772e+04
     vertex  1.939455e+02 -9.561308e+02  2.769031e+04
   endloop
 endfacet
 facet normal -1.132032e-01 -8.385799e-09  9.935719e-01
   outer loop
     vertex  3.328202e+02 -1.003879e+03  2.770613e+04
     vertex  3.219334e+02 -9.895358e+02  2.770489e+04
     vertex  3.160184e+02 -1.004632e+03  2.770422e+04
   endloop
 endfacet
 facet normal -1.132032e-01 -8.385839e-09  9.935719e-01
   outer loop
     vertex  1.939455e+02 -9.561308e+02  2.769031e+04
     vertex  1.711755e+02 -9.833713e+02  2.768772e+04
     vertex  2.106005e+02 -9.853347e+02  2.769221e+04
   endloop
 endfacet
 facet normal -1.132032e-01 -8.386004e-09  9.935719e-01
   outer loop
     vertex  3.328202e+02 -1.003879e+03  2.770613e+04
     vertex  3.160184e+02 -1.004632e+03  2.770422e+04
     vertex  3.217624e+02 -1.018729e+03  2.770487e+04
   endloop
 endfacet
 facet normal -1.132032e-01 -8.385875e-09  9.935719e-01
   outer loop
     vertex  2.109743e+02 -1.021997e+03  2.769225e+04
     vertex  2.176304e+02 -1.051741e+03  2.769301e+04
     vertex  2.332140e+02 -1.031129e+03  2.769478e+04
   endloop
 endfacet
 facet normal -1.132032e-01 -8.385799e-09  9.935719e-01
   outer loop
     vertex  3.160184e+02 -1.004632e+03  2.770422e+04
     vertex  3.219334e+02 -9.895358e+02  2.770489e+04
     vertex  2.976874e+02 -9.981504e+02  2.770213e+04
   endloop
 endfacet
 facet normal -1.132032e-01 -8.386019e-09  9.935719e-01
   outer loop
     vertex  3.217624e+02 -1.018729e+03  2.770487e+04
     vertex  3.160184e+02 -1.004632e+03  2.770422e+04
     vertex  3.049435e+02 -1.016872e+03  2.770296e+04
   endloop
 endfacet
 facet normal -1.132032e-01 -8.385986e-09  9.935719e-01
   outer loop
     vertex  3.160184e+02 -1.004632e+03  2.770422e+04
     vertex  2.976874e+02 -9.981504e+02  2.770213e+04
     vertex  3.049435e+02 -1.016872e+03  2.770296e+04
   endloop
 endfacet
 facet normal -1.132032e-01 -8.385820e-09  9.935719e-01
   outer loop
     vertex  2.388361e+02 -1.089742e+03  2.769542e+04
     vertex  2.454549e+02 -1.105533e+03  2.769618e+04
     vertex  2.535051e+02 -1.092470e+03  2.769710e+04
   endloop
 endfacet
 facet normal -1.132032e-01 -8.385993e-09  9.935719e-01
   outer loop
     vertex  2.454549e+02 -1.105533e+03  2.769618e+04
     vertex  2.580483e+02 -1.109432e+03  2.769761e+04
     vertex  2.535051e+02 -1.092470e+03  2.769710e+04
   endloop
 endfacet
 facet normal -1.132032e-01 -8.385875e-09  9.935719e-01
   outer loop
     vertex  2.303141e+02 -1.072086e+03  2.769445e+04
     vertex  2.388361e+02 -1.089742e+03  2.769542e+04
     vertex  2.494243e+02 -1.073173e+03  2.769663e+04
   endloop
 endfacet
 facet normal -1.132032e-01 -8.385761e-09  9.935719e-01
   outer loop
     vertex  2.388361e+02 -1.089742e+03  2.769542e+04
     vertex  2.535051e+02 -1.092470e+03  2.769710e+04
     vertex  2.494243e+02 -1.073173e+03  2.769663e+04
   endloop
 endfacet
 facet normal -1.132032e-01 -8.385896e-09  9.935719e-01
   outer loop
     vertex  2.109312e+02 -8.753130e+02  2.769225e+04
     vertex  1.545739e+02 -8.938740e+02  2.768582e+04
     vertex  1.977338e+02 -9.188181e+02  2.769074e+04
   endloop
 endfacet
 facet normal -1.132032e-01 -8.385798e-09  9.935719e-01
   outer loop
     vertex  2.106005e+02 -9.853347e+02  2.769221e+04
     vertex  2.109743e+02 -1.021997e+03  2.769225e+04
     vertex  2.351810e+02 -1.004381e+03  2.769501e+04
   endloop
 endfacet
 facet normal -1.132032e-01 -8.385876e-09  9.935719e-01
   outer loop
     vertex  2.976874e+02 -9.981504e+02  2.770213e+04
     vertex  2.802652e+02 -9.828334e+02  2.770015e+04
     vertex  2.769040e+02 -1.006888e+03  2.769976e+04
   endloop
 endfacet
 facet normal -1.132032e-01 -8.385819e-09  9.935719e-01
   outer loop
     vertex  3.475967e+02 -1.096957e+03  2.770782e+04
     vertex  3.400443e+02 -1.086062e+03  2.770696e+04
     vertex  3.303976e+02 -1.099256e+03  2.770586e+04
   endloop
 endfacet
 facet normal -1.132032e-01 -8.385919e-09  9.935719e-01
   outer loop
     vertex  2.974573e+02 -1.121068e+03  2.770210e+04
     vertex  3.079654e+02 -1.127943e+03  2.770330e+04
     vertex  3.138976e+02 -1.111616e+03  2.770398e+04
   endloop
 endfacet
 facet normal -1.132032e-01 -8.385896e-09  9.935719e-01
   outer loop
     vertex  1.587530e+02 -9.443161e+02  2.768630e+04
     vertex  1.939455e+02 -9.561308e+02  2.769031e+04
     vertex  1.977338e+02 -9.188181e+02  2.769074e+04
   endloop
 endfacet
 facet normal -1.132032e-01 -8.385813e-09  9.935719e-01
   outer loop
     vertex  3.275876e+02 -1.032512e+03  2.770554e+04
     vertex  3.217624e+02 -1.018729e+03  2.770487e+04
     vertex  3.086500e+02 -1.033968e+03  2.770338e+04
   endloop
 endfacet
 facet normal -1.132032e-01 -8.385755e-09  9.935719e-01
   outer loop
     vertex  3.217624e+02 -1.018729e+03  2.770487e+04
     vertex  3.049435e+02 -1.016872e+03  2.770296e+04
     vertex  3.086500e+02 -1.033968e+03  2.770338e+04
   endloop
 endfacet
 facet normal -1.132032e-01 -8.385935e-09  9.935719e-01
   outer loop
     vertex  3.308002e+02 -1.128485e+03  2.770590e+04
     vertex  3.414856e+02 -1.123635e+03  2.770712e+04
     vertex  3.296322e+02 -1.115776e+03  2.770577e+04
   endloop
 endfacet
 facet normal -1.132032e-01 -8.385926e-09  9.935719e-01
   outer loop
     vertex  3.414856e+02 -1.123635e+03  2.770712e+04
     vertex  3.436486e+02 -1.110784e+03  2.770737e+04
     vertex  3.296322e+02 -1.115776e+03  2.770577e+04
   endloop
 endfacet
 facet normal -1.132032e-01 -8.385883e-09  9.935719e-01
   outer loop
     vertex  1.545739e+02 -8.938740e+02  2.768582e+04
     vertex  1.587530e+02 -9.443161e+02  2.768630e+04
     vertex  1.977338e+02 -9.188181e+02  2.769074e+04
   endloop
 endfacet
 facet normal -1.132032e-01 -8.385891e-09  9.935719e-01
   outer loop
     vertex  1.977338e+02 -9.188181e+02  2.769074e+04
     vertex  1.939455e+02 -9.561308e+02  2.769031e+04
     vertex  2.279385e+02 -9.460481e+02  2.769418e+04
   endloop
 endfacet
 facet normal -1.132032e-01 -8.385866e-09  9.935719e-01
   outer loop
     vertex  2.279385e+02 -9.460481e+02  2.769418e+04
     vertex  1.939455e+02 -9.561308e+02  2.769031e+04
     vertex  2.106005e+02 -9.853347e+02  2.769221e+04
   endloop
 endfacet
 facet normal -1.132032e-01 -8.385830e-09  9.935719e-01
   outer loop
     vertex  3.436486e+02 -1.110784e+03  2.770737e+04
     vertex  3.475967e+02 -1.096957e+03  2.770782e+04
     vertex  3.303976e+02 -1.099256e+03  2.770586e+04
   endloop
 endfacet
 facet normal -1.132032e-01 -8.385956e-09  9.935719e-01
   outer loop
     vertex  3.418130e+02 -1.071606e+03  2.770716e+04
     vertex  3.443422e+02 -1.056143e+03  2.770745e+04
     vertex  3.290345e+02 -1.060929e+03  2.770570e+04
   endloop
 endfacet
 facet normal -1.132032e-01 -8.385946e-09  9.935719e-01
   outer loop
     vertex  2.109743e+02 -1.021997e+03  2.769225e+04
     vertex  2.332140e+02 -1.031129e+03  2.769478e+04
     vertex  2.351810e+02 -1.004381e+03  2.769501e+04
   endloop
 endfacet
 facet normal -1.132032e-01 -8.385877e-09  9.935719e-01
   outer loop
     vertex  2.713362e+02 -1.112665e+03  2.769913e+04
     vertex  2.848799e+02 -1.115553e+03  2.770067e+04
     vertex  2.818835e+02 -1.094989e+03  2.770033e+04
   endloop
 endfacet
 facet normal -1.132032e-01 -8.385943e-09  9.935719e-01
   outer loop
     vertex  3.049435e+02 -1.016872e+03  2.770296e+04
     vertex  2.976874e+02 -9.981504e+02  2.770213e+04
     vertex  2.857645e+02 -1.028024e+03  2.770077e+04
   endloop
 endfacet
 facet normal -1.132032e-01 -8.385872e-09  9.935719e-01
   outer loop
     vertex  2.976874e+02 -9.981504e+02  2.770213e+04
     vertex  2.769040e+02 -1.006888e+03  2.769976e+04
     vertex  2.857645e+02 -1.028024e+03  2.770077e+04
   endloop
 endfacet
 facet normal -1.132032e-01 -8.385849e-09  9.935719e-01
   outer loop
     vertex  3.079654e+02 -1.127943e+03  2.770330e+04
     vertex  3.197705e+02 -1.127175e+03  2.770465e+04
     vertex  3.138976e+02 -1.111616e+03  2.770398e+04
   endloop
 endfacet
 facet normal -1.132032e-01 -8.385833e-09  9.935719e-01
   outer loop
     vertex  2.176304e+02 -1.051741e+03  2.769301e+04
     vertex  2.303141e+02 -1.072086e+03  2.769445e+04
     vertex  2.427222e+02 -1.051737e+03  2.769587e+04
   endloop
 endfacet
 facet normal -1.132032e-01 -8.385916e-09  9.935719e-01
   outer loop
     vertex  3.308002e+02 -1.128485e+03  2.770590e+04
     vertex  3.296322e+02 -1.115776e+03  2.770577e+04
     vertex  3.197705e+02 -1.127175e+03  2.770465e+04
   endloop
 endfacet
 facet normal -1.132032e-01 -8.385733e-09  9.935719e-01
   outer loop
     vertex  3.400443e+02 -1.086062e+03  2.770696e+04
     vertex  3.418130e+02 -1.071606e+03  2.770716e+04
     vertex  3.266112e+02 -1.079902e+03  2.770543e+04
   endloop
 endfacet
 facet normal -1.132032e-01 -8.385984e-09  9.935719e-01
   outer loop
     vertex  3.418130e+02 -1.071606e+03  2.770716e+04
     vertex  3.290345e+02 -1.060929e+03  2.770570e+04
     vertex  3.266112e+02 -1.079902e+03  2.770543e+04
   endloop
 endfacet
 facet normal -1.132032e-01 -8.386044e-09  9.935719e-01
   outer loop
     vertex  2.580483e+02 -1.109432e+03  2.769761e+04
     vertex  2.713362e+02 -1.112665e+03  2.769913e+04
     vertex  2.668549e+02 -1.098111e+03  2.769862e+04
   endloop
 endfacet
 facet normal -1.132032e-01 -8.386055e-09  9.935719e-01
   outer loop
     vertex  2.535051e+02 -1.092470e+03  2.769710e+04
     vertex  2.580483e+02 -1.109432e+03  2.769761e+04
     vertex  2.668549e+02 -1.098111e+03  2.769862e+04
   endloop
 endfacet
 facet normal -1.132032e-01 -8.385993e-09  9.935719e-01
   outer loop
     vertex  2.713362e+02 -1.112665e+03  2.769913e+04
     vertex  2.818835e+02 -1.094989e+03  2.770033e+04
     vertex  2.668549e+02 -1.098111e+03  2.769862e+04
   endloop
 endfacet
 facet normal -1.132032e-01 -8.385841e-09  9.935719e-01
   outer loop
     vertex  2.176304e+02 -1.051741e+03  2.769301e+04
     vertex  2.427222e+02 -1.051737e+03  2.769587e+04
     vertex  2.332140e+02 -1.031129e+03  2.769478e+04
   endloop
 endfacet
 facet normal -1.132032e-01 -8.385722e-09  9.935719e-01
   outer loop
     vertex  3.400443e+02 -1.086062e+03  2.770696e+04
     vertex  3.266112e+02 -1.079902e+03  2.770543e+04
     vertex  3.303976e+02 -1.099256e+03  2.770586e+04
   endloop
 endfacet
 facet normal -1.132032e-01 -8.385805e-09  9.935719e-01
   outer loop
     vertex  2.848799e+02 -1.115553e+03  2.770067e+04
     vertex  2.974573e+02 -1.121068e+03  2.770210e+04
     vertex  2.980500e+02 -1.102942e+03  2.770217e+04
   endloop
 endfacet
 facet normal -1.132032e-01 -8.385805e-09  9.935719e-01
   outer loop
     vertex  2.974573e+02 -1.121068e+03  2.770210e+04
     vertex  3.138976e+02 -1.111616e+03  2.770398e+04
     vertex  2.980500e+02 -1.102942e+03  2.770217e+04
   endloop
 endfacet
 facet normal -1.132032e-01 -8.385852e-09  9.935719e-01
   outer loop
     vertex  2.279385e+02 -9.460481e+02  2.769418e+04
     vertex  2.106005e+02 -9.853347e+02  2.769221e+04
     vertex  2.518958e+02 -9.712953e+02  2.769691e+04
   endloop
 endfacet
 facet normal -1.132032e-01 -8.385784e-09  9.935719e-01
   outer loop
     vertex  2.106005e+02 -9.853347e+02  2.769221e+04
     vertex  2.351810e+02 -1.004381e+03  2.769501e+04
     vertex  2.518958e+02 -9.712953e+02  2.769691e+04
   endloop
 endfacet
 facet normal -1.132032e-01 -8.385807e-09  9.935719e-01
   outer loop
     vertex  2.802652e+02 -9.828334e+02  2.770015e+04
     vertex  2.518958e+02 -9.712953e+02  2.769691e+04
     vertex  2.593001e+02 -9.968108e+02  2.769776e+04
   endloop
 endfacet
 facet normal -1.132032e-01 -8.385821e-09  9.935719e-01
   outer loop
     vertex  2.518958e+02 -9.712953e+02  2.769691e+04
     vertex  2.351810e+02 -1.004381e+03  2.769501e+04
     vertex  2.593001e+02 -9.968108e+02  2.769776e+04
   endloop
 endfacet
 facet normal -1.132032e-01 -8.385783e-09  9.935719e-01
   outer loop
     vertex  3.443422e+02 -1.056143e+03  2.770745e+04
     vertex  3.355414e+02 -1.044826e+03  2.770644e+04
     vertex  3.290345e+02 -1.060929e+03  2.770570e+04
   endloop
 endfacet
 facet normal -1.132032e-01 -8.385907e-09  9.935719e-01
   outer loop
     vertex  2.802652e+02 -9.828334e+02  2.770015e+04
     vertex  2.593001e+02 -9.968108e+02  2.769776e+04
     vertex  2.769040e+02 -1.006888e+03  2.769976e+04
   endloop
 endfacet
 facet normal -1.132032e-01 -8.385856e-09  9.935719e-01
   outer loop
     vertex  2.818835e+02 -1.094989e+03  2.770033e+04
     vertex  2.848799e+02 -1.115553e+03  2.770067e+04
     vertex  2.980500e+02 -1.102942e+03  2.770217e+04
   endloop
 endfacet
 facet normal -1.132032e-01 -8.385878e-09  9.935719e-01
   outer loop
     vertex  2.303141e+02 -1.072086e+03  2.769445e+04
     vertex  2.494243e+02 -1.073173e+03  2.769663e+04
     vertex  2.427222e+02 -1.051737e+03  2.769587e+04
   endloop
 endfacet
 facet normal -1.132032e-01 -8.385794e-09  9.935719e-01
   outer loop
     vertex  3.197705e+02 -1.127175e+03  2.770465e+04
     vertex  3.296322e+02 -1.115776e+03  2.770577e+04
     vertex  3.138976e+02 -1.111616e+03  2.770398e+04
   endloop
 endfacet
 facet normal -1.132032e-01 -8.385882e-09  9.935719e-01
   outer loop
     vertex  2.332140e+02 -1.031129e+03  2.769478e+04
     vertex  2.427222e+02 -1.051737e+03  2.769587e+04
     vertex  2.580764e+02 -1.025606e+03  2.769762e+04
   endloop
 endfacet
 facet normal -1.132032e-01 -8.385963e-09  9.935719e-01
   outer loop
     vertex  3.266112e+02 -1.079902e+03  2.770543e+04
     vertex  3.290345e+02 -1.060929e+03  2.770570e+04
     vertex  3.122685e+02 -1.068729e+03  2.770379e+04
   endloop
 endfacet
 facet normal -1.132032e-01 -8.385952e-09  9.935719e-01
   outer loop
     vertex  2.427222e+02 -1.051737e+03  2.769587e+04
     vertex  2.681644e+02 -1.054002e+03  2.769877e+04
     vertex  2.580764e+02 -1.025606e+03  2.769762e+04
   endloop
 endfacet
 facet normal -1.132032e-01 -8.385981e-09  9.935719e-01
   outer loop
     vertex  3.296322e+02 -1.115776e+03  2.770577e+04
     vertex  3.436486e+02 -1.110784e+03  2.770737e+04
     vertex  3.303976e+02 -1.099256e+03  2.770586e+04
   endloop
 endfacet
 facet normal -1.132032e-01 -8.385833e-09  9.935719e-01
   outer loop
     vertex  3.355414e+02 -1.044826e+03  2.770644e+04
     vertex  3.275876e+02 -1.032512e+03  2.770554e+04
     vertex  3.176328e+02 -1.048550e+03  2.770440e+04
   endloop
 endfacet
 facet normal -1.132032e-01 -8.385778e-09  9.935719e-01
   outer loop
     vertex  3.290345e+02 -1.060929e+03  2.770570e+04
     vertex  3.355414e+02 -1.044826e+03  2.770644e+04
     vertex  3.176328e+02 -1.048550e+03  2.770440e+04
   endloop
 endfacet
 facet normal -1.132032e-01 -8.385841e-09  9.935719e-01
   outer loop
     vertex  3.176328e+02 -1.048550e+03  2.770440e+04
     vertex  3.275876e+02 -1.032512e+03  2.770554e+04
     vertex  3.086500e+02 -1.033968e+03  2.770338e+04
   endloop
 endfacet
 facet normal -1.132032e-01 -8.385980e-09  9.935719e-01
   outer loop
     vertex  3.138976e+02 -1.111616e+03  2.770398e+04
     vertex  3.296322e+02 -1.115776e+03  2.770577e+04
     vertex  3.303976e+02 -1.099256e+03  2.770586e+04
   endloop
 endfacet
 facet normal -1.132032e-01 -8.385848e-09  9.935719e-01
   outer loop
     vertex  3.138976e+02 -1.111616e+03  2.770398e+04
     vertex  3.303976e+02 -1.099256e+03  2.770586e+04
     vertex  3.130888e+02 -1.091252e+03  2.770389e+04
   endloop
 endfacet
 facet normal -1.132032e-01 -8.385844e-09  9.935719e-01
   outer loop
     vertex  2.980500e+02 -1.102942e+03  2.770217e+04
     vertex  3.138976e+02 -1.111616e+03  2.770398e+04
     vertex  3.130888e+02 -1.091252e+03  2.770389e+04
   endloop
 endfacet
 facet normal -1.132032e-01 -8.385732e-09  9.935719e-01
   outer loop
     vertex  3.303976e+02 -1.099256e+03  2.770586e+04
     vertex  3.266112e+02 -1.079902e+03  2.770543e+04
     vertex  3.130888e+02 -1.091252e+03  2.770389e+04
   endloop
 endfacet
 facet normal -1.132032e-01 -8.385914e-09  9.935719e-01
   outer loop
     vertex  3.290345e+02 -1.060929e+03  2.770570e+04
     vertex  3.176328e+02 -1.048550e+03  2.770440e+04
     vertex  3.122685e+02 -1.068729e+03  2.770379e+04
   endloop
 endfacet
 facet normal -1.132032e-01 -8.385860e-09  9.935719e-01
   outer loop
     vertex  2.769040e+02 -1.006888e+03  2.769976e+04
     vertex  2.593001e+02 -9.968108e+02  2.769776e+04
     vertex  2.580764e+02 -1.025606e+03  2.769762e+04
   endloop
 endfacet
 facet normal -1.132032e-01 -8.385939e-09  9.935719e-01
   outer loop
     vertex  2.351810e+02 -1.004381e+03  2.769501e+04
     vertex  2.332140e+02 -1.031129e+03  2.769478e+04
     vertex  2.580764e+02 -1.025606e+03  2.769762e+04
   endloop
 endfacet
 facet normal -1.132032e-01 -8.385890e-09  9.935719e-01
   outer loop
     vertex  2.681644e+02 -1.054002e+03  2.769877e+04
     vertex  2.427222e+02 -1.051737e+03  2.769587e+04
     vertex  2.494243e+02 -1.073173e+03  2.769663e+04
   endloop
 endfacet
 facet normal -1.132032e-01 -8.385853e-09  9.935719e-01
   outer loop
     vertex  3.130888e+02 -1.091252e+03  2.770389e+04
     vertex  3.266112e+02 -1.079902e+03  2.770543e+04
     vertex  3.122685e+02 -1.068729e+03  2.770379e+04
   endloop
 endfacet
 facet normal -1.132032e-01 -8.385738e-09  9.935719e-01
   outer loop
     vertex  2.494243e+02 -1.073173e+03  2.769663e+04
     vertex  2.535051e+02 -1.092470e+03  2.769710e+04
     vertex  2.666255e+02 -1.080078e+03  2.769859e+04
   endloop
 endfacet
 facet normal -1.132032e-01 -8.385823e-09  9.935719e-01
   outer loop
     vertex  2.494243e+02 -1.073173e+03  2.769663e+04
     vertex  2.666255e+02 -1.080078e+03  2.769859e+04
     vertex  2.681644e+02 -1.054002e+03  2.769877e+04
   endloop
 endfacet
 facet normal -1.132032e-01 -8.385786e-09  9.935719e-01
   outer loop
     vertex  2.535051e+02 -1.092470e+03  2.769710e+04
     vertex  2.668549e+02 -1.098111e+03  2.769862e+04
     vertex  2.666255e+02 -1.080078e+03  2.769859e+04
   endloop
 endfacet
 facet normal -1.132032e-01 -8.385860e-09  9.935719e-01
   outer loop
     vertex  2.957533e+02 -1.054004e+03  2.770191e+04
     vertex  2.857645e+02 -1.028024e+03  2.770077e+04
     vertex  2.681644e+02 -1.054002e+03  2.769877e+04
   endloop
 endfacet
 facet normal -1.132032e-01 -8.385786e-09  9.935719e-01
   outer loop
     vertex  2.668549e+02 -1.098111e+03  2.769862e+04
     vertex  2.818835e+02 -1.094989e+03  2.770033e+04
     vertex  2.666255e+02 -1.080078e+03  2.769859e+04
   endloop
 endfacet
 facet normal -1.132032e-01 -8.385937e-09  9.935719e-01
   outer loop
     vertex  3.122685e+02 -1.068729e+03  2.770379e+04
     vertex  3.176328e+02 -1.048550e+03  2.770440e+04
     vertex  2.957533e+02 -1.054004e+03  2.770191e+04
   endloop
 endfacet
 facet normal -1.132032e-01 -8.385898e-09  9.935719e-01
   outer loop
     vertex  3.176328e+02 -1.048550e+03  2.770440e+04
     vertex  3.086500e+02 -1.033968e+03  2.770338e+04
     vertex  2.957533e+02 -1.054004e+03  2.770191e+04
   endloop
 endfacet
 facet normal -1.132032e-01 -8.385826e-09  9.935719e-01
   outer loop
     vertex  2.681644e+02 -1.054002e+03  2.769877e+04
     vertex  2.666255e+02 -1.080078e+03  2.769859e+04
     vertex  2.819020e+02 -1.072201e+03  2.770033e+04
   endloop
 endfacet
 facet normal -1.132032e-01 -8.385884e-09  9.935719e-01
   outer loop
     vertex  2.957533e+02 -1.054004e+03  2.770191e+04
     vertex  2.681644e+02 -1.054002e+03  2.769877e+04
     vertex  2.819020e+02 -1.072201e+03  2.770033e+04
   endloop
 endfacet
 facet normal -1.132032e-01 -8.385825e-09  9.935719e-01
   outer loop
     vertex  2.666255e+02 -1.080078e+03  2.769859e+04
     vertex  2.818835e+02 -1.094989e+03  2.770033e+04
     vertex  2.819020e+02 -1.072201e+03  2.770033e+04
   endloop
 endfacet
 facet normal -1.132032e-01 -8.385793e-09  9.935719e-01
   outer loop
     vertex  2.857645e+02 -1.028024e+03  2.770077e+04
     vertex  2.769040e+02 -1.006888e+03  2.769976e+04
     vertex  2.580764e+02 -1.025606e+03  2.769762e+04
   endloop
 endfacet
 facet normal -1.132032e-01 -8.385943e-09  9.935719e-01
   outer loop
     vertex  2.580764e+02 -1.025606e+03  2.769762e+04
     vertex  2.681644e+02 -1.054002e+03  2.769877e+04
     vertex  2.857645e+02 -1.028024e+03  2.770077e+04
   endloop
 endfacet
 facet normal -1.132032e-01 -8.385848e-09  9.935719e-01
   outer loop
     vertex  2.980500e+02 -1.102942e+03  2.770217e+04
     vertex  3.130888e+02 -1.091252e+03  2.770389e+04
     vertex  2.972981e+02 -1.081163e+03  2.770209e+04
   endloop
 endfacet
 facet normal -1.132032e-01 -8.385845e-09  9.935719e-01
   outer loop
     vertex  2.818835e+02 -1.094989e+03  2.770033e+04
     vertex  2.980500e+02 -1.102942e+03  2.770217e+04
     vertex  2.972981e+02 -1.081163e+03  2.770209e+04
   endloop
 endfacet
 facet normal -1.132032e-01 -8.385855e-09  9.935719e-01
   outer loop
     vertex  3.130888e+02 -1.091252e+03  2.770389e+04
     vertex  3.122685e+02 -1.068729e+03  2.770379e+04
     vertex  2.972981e+02 -1.081163e+03  2.770209e+04
   endloop
 endfacet
 facet normal -1.132032e-01 -8.385825e-09  9.935719e-01
   outer loop
     vertex  2.818835e+02 -1.094989e+03  2.770033e+04
     vertex  2.972981e+02 -1.081163e+03  2.770209e+04
     vertex  2.819020e+02 -1.072201e+03  2.770033e+04
   endloop
 endfacet
 facet normal -1.132032e-01 -8.385767e-09  9.935719e-01
   outer loop
     vertex  3.086500e+02 -1.033968e+03  2.770338e+04
     vertex  3.049435e+02 -1.016872e+03  2.770296e+04
     vertex  2.857645e+02 -1.028024e+03  2.770077e+04
   endloop
 endfacet
 facet normal -1.132032e-01 -8.385855e-09  9.935719e-01
   outer loop
     vertex  2.593001e+02 -9.968108e+02  2.769776e+04
     vertex  2.351810e+02 -1.004381e+03  2.769501e+04
     vertex  2.580764e+02 -1.025606e+03  2.769762e+04
   endloop
 endfacet
 facet normal -1.132032e-01 -8.385915e-09  9.935719e-01
   outer loop
     vertex  2.972981e+02 -1.081163e+03  2.770209e+04
     vertex  3.122685e+02 -1.068729e+03  2.770379e+04
     vertex  2.957533e+02 -1.054004e+03  2.770191e+04
   endloop
 endfacet
 facet normal -1.132032e-01 -8.385859e-09  9.935719e-01
   outer loop
     vertex  2.957533e+02 -1.054004e+03  2.770191e+04
     vertex  3.086500e+02 -1.033968e+03  2.770338e+04
     vertex  2.857645e+02 -1.028024e+03  2.770077e+04
   endloop
 endfacet
 facet normal -1.132032e-01 -8.385918e-09  9.935719e-01
   outer loop
     vertex  2.819020e+02 -1.072201e+03  2.770033e+04
     vertex  2.972981e+02 -1.081163e+03  2.770209e+04
     vertex  2.957533e+02 -1.054004e+03  2.770191e+04
   endloop
 endfacet
endsolid
